  0
SECTION
  2
HEADER
  9
$ACADVER
  1
AC1032
  9
$ACADMAINTVER
 90
        6
  9
$DWGCODEPAGE
  3
ANSI_1252
  9
$REQUIREDVERSIONS
160
                 0
  9
$INSBASE
 10
0.0
 20
0.0
 30
0.0
  9
$EXTMIN
 10
-1.526101345552888
 20
52.84222663199284
 30
0.0
  9
$EXTMAX
 10
541.1107782667868
 20
849.0946508470509
 30
0.0
  9
$LIMMIN
 10
0.0
 20
0.0
  9
$LIMMAX
 10
12.0
 20
9.0
  9
$ORTHOMODE
 70
     0
  9
$REGENMODE
 70
     1
  9
$FILLMODE
 70
     1
  9
$QTEXTMODE
 70
     0
  9
$MIRRTEXT
 70
     0
  9
$LTSCALE
 40
2.0
  9
$ATTMODE
 70
     1
  9
$TEXTSIZE
 40
3.5
  9
$TRACEWID
 40
0.05
  9
$TEXTSTYLE
  7
Tech 2.5
  9
$CLAYER
  8
0
  9
$CELTYPE
  6
ByLayer
  9
$CECOLOR
 62
   256
  9
$CELTSCALE
 40
1.0
  9
$DISPSILH
 70
     0
  9
$DIMSCALE
 40
1.0
  9
$DIMASZ
 40
1.5
  9
$DIMEXO
 40
5.0
  9
$DIMDLI
 40
1.499999999999999
  9
$DIMRND
 40
0.0
  9
$DIMDLE
 40
1.0
  9
$DIMEXE
 40
1.5
  9
$DIMTP
 40
0.0
  9
$DIMTM
 40
0.0
  9
$DIMTXT
 40
1.0
  9
$DIMCEN
 40
1.5
  9
$DIMTSZ
 40
0.0
  9
$DIMTOL
 70
     0
  9
$DIMLIM
 70
     0
  9
$DIMTIH
 70
     0
  9
$DIMTOH
 70
     0
  9
$DIMSE1
 70
     0
  9
$DIMSE2
 70
     0
  9
$DIMTAD
 70
     0
  9
$DIMZIN
 70
     8
  9
$DIMBLK
  1

  9
$DIMASO
 70
     1
  9
$DIMSHO
 70
     1
  9
$DIMPOST
  1

  9
$DIMAPOST
  1

  9
$DIMALT
 70
     0
  9
$DIMALTD
 70
     3
  9
$DIMALTF
 40
0.03937007874016
  9
$DIMLFAC
 40
1.0
  9
$DIMTOFL
 70
     1
  9
$DIMTVP
 40
0.0
  9
$DIMTIX
 70
     0
  9
$DIMSOXD
 70
     0
  9
$DIMSAH
 70
     0
  9
$DIMBLK1
  1

  9
$DIMBLK2
  1

  9
$DIMSTYLE
  2
Pres 1-1 2.0
  9
$DIMCLRD
 70
     1
  9
$DIMCLRE
 70
     0
  9
$DIMCLRT
 70
     0
  9
$DIMTFAC
 40
1.0
  9
$DIMGAP
 40
2.0
  9
$DIMJUST
 70
     0
  9
$DIMSD1
 70
     0
  9
$DIMSD2
 70
     0
  9
$DIMTOLJ
 70
     0
  9
$DIMTZIN
 70
     8
  9
$DIMALTZ
 70
     0
  9
$DIMALTTZ
 70
     0
  9
$DIMUPT
 70
     0
  9
$DIMDEC
 70
     0
  9
$DIMTDEC
 70
     0
  9
$DIMALTU
 70
     2
  9
$DIMALTTD
 70
     3
  9
$DIMTXSTY
  7
1-1 PS 2
  9
$DIMAUNIT
 70
     0
  9
$DIMADEC
 70
     0
  9
$DIMALTRND
 40
0.0
  9
$DIMAZIN
 70
     0
  9
$DIMDSEP
 70
    46
  9
$DIMATFIT
 70
     3
  9
$DIMFRAC
 70
     0
  9
$DIMLDRBLK
  1

  9
$DIMLUNIT
 70
     2
  9
$DIMLWD
 70
    -1
  9
$DIMLWE
 70
    -2
  9
$DIMTMOVE
 70
     0
  9
$DIMFXL
 40
1.0
  9
$DIMFXLON
 70
     0
  9
$DIMJOGANG
 40
0.7853981633974483
  9
$DIMTFILL
 70
     0
  9
$DIMTFILLCLR
 70
     0
  9
$DIMARCSYM
 70
     0
  9
$DIMLTYPE
  6

  9
$DIMLTEX1
  6

  9
$DIMLTEX2
  6

  9
$DIMTXTDIRECTION
 70
     0
  9
$LUNITS
 70
     2
  9
$LUPREC
 70
     2
  9
$SKETCHINC
 40
0.1
  9
$FILLETRAD
 40
12.5
  9
$AUNITS
 70
     0
  9
$AUPREC
 70
     0
  9
$MENU
  1
.
  9
$ELEVATION
 40
0.0
  9
$PELEVATION
 40
0.0
  9
$THICKNESS
 40
0.0
  9
$LIMCHECK
 70
     0
  9
$CHAMFERA
 40
4.0
  9
$CHAMFERB
 40
4.0
  9
$CHAMFERC
 40
0.0
  9
$CHAMFERD
 40
0.0
  9
$SKPOLY
 70
     0
  9
$TDCREATE
 40
2453614.950578704
  9
$TDUCREATE
 40
2453614.533915995
  9
$TDUPDATE
 40
2458774.519351852
  9
$TDUUPDATE
 40
2458774.061022211
  9
$TDINDWG
 40
7.7981413426
  9
$TDUSRTIMER
 40
7.7981413426
  9
$USRTIMER
 70
     1
  9
$ANGBASE
 50
0.0
  9
$ANGDIR
 70
     0
  9
$PDMODE
 70
     0
  9
$PDSIZE
 40
0.0
  9
$PLINEWID
 40
0.0
  9
$SPLFRAME
 70
     0
  9
$SPLINETYPE
 70
     6
  9
$SPLINESEGS
 70
     8
  9
$HANDSEED
  5
13D
  9
$SURFTAB1
 70
     6
  9
$SURFTAB2
 70
     6
  9
$SURFTYPE
 70
     6
  9
$SURFU
 70
     6
  9
$SURFV
 70
     6
  9
$UCSBASE
  2

  9
$UCSNAME
  2

  9
$UCSORG
 10
0.0
 20
0.0
 30
0.0
  9
$UCSXDIR
 10
1.0
 20
0.0
 30
0.0
  9
$UCSYDIR
 10
0.0
 20
1.0
 30
0.0
  9
$UCSORTHOREF
  2

  9
$UCSORTHOVIEW
 70
     0
  9
$UCSORGTOP
 10
0.0
 20
0.0
 30
0.0
  9
$UCSORGBOTTOM
 10
0.0
 20
0.0
 30
0.0
  9
$UCSORGLEFT
 10
0.0
 20
0.0
 30
0.0
  9
$UCSORGRIGHT
 10
0.0
 20
0.0
 30
0.0
  9
$UCSORGFRONT
 10
0.0
 20
0.0
 30
0.0
  9
$UCSORGBACK
 10
0.0
 20
0.0
 30
0.0
  9
$PUCSBASE
  2

  9
$PUCSNAME
  2

  9
$PUCSORG
 10
0.0
 20
0.0
 30
0.0
  9
$PUCSXDIR
 10
1.0
 20
0.0
 30
0.0
  9
$PUCSYDIR
 10
0.0
 20
1.0
 30
0.0
  9
$PUCSORTHOREF
  2

  9
$PUCSORTHOVIEW
 70
     0
  9
$PUCSORGTOP
 10
0.0
 20
0.0
 30
0.0
  9
$PUCSORGBOTTOM
 10
0.0
 20
0.0
 30
0.0
  9
$PUCSORGLEFT
 10
0.0
 20
0.0
 30
0.0
  9
$PUCSORGRIGHT
 10
0.0
 20
0.0
 30
0.0
  9
$PUCSORGFRONT
 10
0.0
 20
0.0
 30
0.0
  9
$PUCSORGBACK
 10
0.0
 20
0.0
 30
0.0
  9
$USERI1
 70
     0
  9
$USERI2
 70
     0
  9
$USERI3
 70
     0
  9
$USERI4
 70
     0
  9
$USERI5
 70
     0
  9
$USERR1
 40
0.0
  9
$USERR2
 40
0.0
  9
$USERR3
 40
0.0
  9
$USERR4
 40
0.0
  9
$USERR5
 40
0.0
  9
$WORLDVIEW
 70
     1
  9
$SHADEDGE
 70
     3
  9
$SHADEDIF
 70
    70
  9
$TILEMODE
 70
     1
  9
$MAXACTVP
 70
    16
  9
$PINSBASE
 10
0.0
 20
0.0
 30
0.0
  9
$PLIMCHECK
 70
     0
  9
$PEXTMIN
 10
0.5548555633881735
 20
0.1673825080200686
 30
-0.0015258207003583
  9
$PEXTMAX
 10
290.5589988370714
 20
202.9855557698479
 30
0.0000000349246037
  9
$PLIMMIN
 10
-3.174999952316283
 20
-3.174999952316283
  9
$PLIMMAX
 10
293.8356506824494
 20
206.8406708240509
  9
$UNITMODE
 70
     0
  9
$VISRETAIN
 70
     1
  9
$PLINEGEN
 70
     0
  9
$PSLTSCALE
 70
     0
  9
$TREEDEPTH
 70
  3020
  9
$CMLSTYLE
  2
Standard
  9
$CMLJUST
 70
     0
  9
$CMLSCALE
 40
1.0
  9
$PROXYGRAPHICS
 70
     1
  9
$MEASUREMENT
 70
     1
  9
$CELWEIGHT
370
    -1
  9
$ENDCAPS
280
     0
  9
$JOINSTYLE
280
     0
  9
$LWDISPLAY
290
     0
  9
$INSUNITS
 70
     4
  9
$HYPERLINKBASE
  1

  9
$STYLESHEET
  1

  9
$XEDIT
290
     1
  9
$CEPSNTYPE
380
     0
  9
$PSTYLEMODE
290
     1
  9
$FINGERPRINTGUID
  2
{B6DEB5AD-4813-F64E-B5C6-D4E321C60CCF}
  9
$VERSIONGUID
  2
{7889DC31-48B6-4DF0-8C85-F6083DA8B86B}
  9
$EXTNAMES
290
     1
  9
$PSVPSCALE
 40
0.5
  9
$OLESTARTUP
290
     0
  9
$SORTENTS
280
   127
  9
$INDEXCTL
280
     0
  9
$HIDETEXT
280
     1
  9
$XCLIPFRAME
280
     0
  9
$HALOGAP
280
     0
  9
$OBSCOLOR
 70
   257
  9
$OBSLTYPE
280
     0
  9
$INTERSECTIONDISPLAY
280
     0
  9
$INTERSECTIONCOLOR
 70
   257
  9
$DIMASSOC
280
     2
  9
$PROJECTNAME
  1

  9
$CAMERADISPLAY
290
     0
  9
$LENSLENGTH
 40
50.0
  9
$CAMERAHEIGHT
 40
0.0
  9
$STEPSPERSEC
 40
2.0
  9
$STEPSIZE
 40
6.0
  9
$3DDWFPREC
 40
2.0
  9
$PSOLWIDTH
 40
0.25
  9
$PSOLHEIGHT
 40
4.0
  9
$LOFTANG1
 40
1.570796326794896
  9
$LOFTANG2
 40
1.570796326794896
  9
$LOFTMAG1
 40
0.0
  9
$LOFTMAG2
 40
0.0
  9
$LOFTPARAM
 70
     7
  9
$LOFTNORMALS
280
     1
  9
$LATITUDE
 40
37.795
  9
$LONGITUDE
 40
-122.394
  9
$NORTHDIRECTION
 40
0.0
  9
$TIMEZONE
 70
 -8000
  9
$LIGHTGLYPHDISPLAY
280
     1
  9
$TILEMODELIGHTSYNCH
280
     1
  9
$CMATERIAL
347
17
  9
$SOLIDHIST
280
     0
  9
$SHOWHIST
280
     1
  9
$DWFFRAME
280
     2
  9
$DGNFRAME
280
     0
  9
$REALWORLDSCALE
290
     1
  9
$INTERFERECOLOR
 62
     1
  9
$INTERFEREOBJVS
345
55
  9
$INTERFEREVPVS
346
56
  9
$CSHADOW
280
     0
  9
$SHADOWPLANELOCATION
 40
0.0
  0
ENDSEC
  0
SECTION
  2
CLASSES
  0
CLASS
  1
ACDBDICTIONARYWDFLT
  2
AcDbDictionaryWithDefault
  3
ObjectDBX Classes
 90
        0
 91
        1
280
     0
281
     0
  0
CLASS
  1
TABLESTYLE
  2
AcDbTableStyle
  3
ObjectDBX Classes
 90
     4095
 91
        1
280
     0
281
     0
  0
CLASS
  1
DICTIONARYVAR
  2
AcDbDictionaryVar
  3
ObjectDBX Classes
 90
        0
 91
        9
280
     0
281
     0
  0
CLASS
  1
DIMASSOC
  2
AcDbDimAssoc
  3
"AcDbDimAssoc|Product Desc:     AcDim ARX App For Dimension|Company:          Autodesk, Inc.|WEB Address:      www.autodesk.com"
 90
        0
 91
        0
280
     0
281
     0
  0
CLASS
  1
SORTENTSTABLE
  2
AcDbSortentsTable
  3
ObjectDBX Classes
 90
        0
 91
        2
280
     0
281
     0
  0
CLASS
  1
PLOTSETTINGS
  2
AcDbPlotSettings
  3
ObjectDBX Classes
 90
        0
 91
        0
280
     0
281
     0
  0
CLASS
  1
RASTERVARIABLES
  2
AcDbRasterVariables
  3
ISM
 90
        0
 91
        0
280
     0
281
     0
  0
CLASS
  1
IMAGEDEF
  2
AcDbRasterImageDef
  3
ISM
 90
        0
 91
        0
280
     0
281
     0
  0
CLASS
  1
IMAGEDEF_REACTOR
  2
AcDbRasterImageDefReactor
  3
ISM
 90
        1
 91
        0
280
     0
281
     0
  0
CLASS
  1
IMAGE
  2
AcDbRasterImage
  3
ISM
 90
     2175
 91
        0
280
     0
281
     1
  0
CLASS
  1
MATERIAL
  2
AcDbMaterial
  3
ObjectDBX Classes
 90
     1153
 91
        3
280
     0
281
     0
  0
CLASS
  1
VISUALSTYLE
  2
AcDbVisualStyle
  3
ObjectDBX Classes
 90
     4095
 91
        3
280
     0
281
     0
  0
CLASS
  1
SCALE
  2
AcDbScale
  3
ObjectDBX Classes
 90
     1153
 91
       17
280
     0
281
     0
  0
CLASS
  1
MLEADERSTYLE
  2
AcDbMLeaderStyle
  3
ACDB_MLEADERSTYLE_CLASS
 90
     4095
 91
        0
280
     0
281
     0
  0
CLASS
  1
ACARRAYJIGENTITY
  2
AcArrayJigEntity
  3
ACAD_ARRAY
 90
      129
 91
        0
280
     1
281
     1
  0
CLASS
  1
ACDBASSOCNETWORK
  2
AcDbAssocNetwork
  3
ObjectDBX Classes
 90
     1025
 91
        0
280
     0
281
     0
  0
CLASS
  1
ACDBASSOCACTION
  2
AcDbAssocAction
  3
ObjectDBX Classes
 90
     1025
 91
        0
280
     0
281
     0
  0
CLASS
  1
ACDBASSOCARRAYACTIONBODY
  2
AcDbAssocArrayActionBody
  3
ObjectDBX Classes
 90
     1025
 91
        0
280
     0
281
     0
  0
CLASS
  1
ACDBASSOCVERTEXACTIONPARAM
  2
AcDbAssocVertexActionParam
  3
ObjectDBX Classes
 90
     1025
 91
        0
280
     0
281
     0
  0
CLASS
  1
ACDBASSOCDEPENDENCY
  2
AcDbAssocDependency
  3
ObjectDBX Classes
 90
     1025
 91
        0
280
     0
281
     0
  0
CLASS
  1
ACDBASSOCARRAYRECTANGULARPARAMETERS
  2
AcDbAssocArrayRectangularParameters
  3
ObjectDBX Classes
 90
     1025
 91
        0
280
     0
281
     0
  0
CLASS
  1
ACDBASSOCARRAYPOLARPARAMETERS
  2
AcDbAssocArrayPolarParameters
  3
ObjectDBX Classes
 90
     1025
 91
        0
280
     0
281
     0
  0
CLASS
  1
SOLID_BACKGROUND
  2
AcDbSolidBackground
  3
SCENEOE
 90
     4095
 91
        0
280
     0
281
     0
  0
CLASS
  1
NPOCOLLECTION
  2
AcDbImpNonPersistentObjectsCollection
  3
ObjectDBX Classes
 90
     1153
 91
        0
280
     0
281
     0
  0
CLASS
  1
CELLSTYLEMAP
  2
AcDbCellStyleMap
  3
ObjectDBX Classes
 90
     1152
 91
        1
280
     0
281
     0
  0
CLASS
  1
ACDBSECTIONVIEWSTYLE
  2
AcDbSectionViewStyle
  3
ObjectDBX Classes
 90
     1025
 91
        0
280
     0
281
     0
  0
CLASS
  1
ACDBDETAILVIEWSTYLE
  2
AcDbDetailViewStyle
  3
ObjectDBX Classes
 90
     1025
 91
        0
280
     0
281
     0
  0
CLASS
  1
DMMAPMANAGER
  2
AcMapDMMapManager
  3
AcMapDisplayManagement
 90
     1024
 91
        0
280
     0
281
     0
  0
CLASS
  1
DMSTYLELIBRARY
  2
AcMapDMStyleLibrary
  3
AcMapDisplayManagement
 90
     1024
 91
        0
280
     0
281
     0
  0
CLASS
  1
DMSTYLECATEGORY
  2
AcMapDMStyleCategory
  3
AcMapDisplayManagement
 90
     1024
 91
        0
280
     0
281
     0
  0
CLASS
  1
DATATABLE
  2
AcDbDataTable
  3
ObjectDBX Classes
 90
        0
 91
        0
280
     0
281
     0
  0
CLASS
  1
MAPRESOURCEMANAGEROBJECT
  2
AcMapResourceManager
  3
AcMapSharedComponents
 90
     1024
 91
        0
280
     0
281
     0
  0
CLASS
  1
MAPGWSUNDOOBJECT
  2
AcMapGWSUndoRecorder
  3
AcMapFeatureSourceManager
 90
     1025
 91
        0
280
     0
281
     0
  0
CLASS
  1
DMMAP
  2
AcMapDMMap
  3
AcMapDisplayManagement
 90
     1024
 91
        0
280
     0
281
     0
  0
CLASS
  1
DMBASEELEMENT
  2
AcMapDMBaseElement
  3
AcMapDisplayManagement
 90
     1024
 91
        0
280
     0
281
     0
  0
CLASS
  1
DMDEFAULTSTYLE
  2
AcMapDMDefaultStyle
  3
AcMapDisplayManagement
 90
     1024
 91
        0
280
     0
281
     0
  0
CLASS
  1
DMSTYLEREFERENCE
  2
AcMapDMStyleReference
  3
AcMapDisplayManagement
 90
     1024
 91
        0
280
     0
281
     0
  0
CLASS
  1
DMSURROGATESTYLESETS
  2
AcMapDMSurrogateStyleSets
  3
AcMapDisplayManagement
 90
     1153
 91
        0
280
     0
281
     0
  0
CLASS
  1
DMSTYLIZEDENTITIESTABLE
  2
AcMapDMStylizedEntitiesTable
  3
AcMapDisplayManagement
 90
     1024
 91
        0
280
     0
281
     0
  0
ENDSEC
  0
SECTION
  2
TABLES
  0
TABLE
  2
VPORT
  5
38
330
0
100
AcDbSymbolTable
 70
     1
  0
VPORT
  5
39
330
38
100
AcDbSymbolTableRecord
100
AcDbViewportTableRecord
  2
*Active
 70
     0
 10
0.0
 20
0.0
 11
1.0
 21
1.0
 12
372.8465370062095
 22
221.9357157456737
 13
0.0
 23
0.0
 14
1.0
 24
1.0
 15
0.0
 25
0.0
 16
0.0
 26
0.0
 36
1.0
 17
0.0
 27
0.0
 37
0.0
 40
1539.75955782894
 41
2.283459162663006
 42
50.0
 43
0.0
 44
0.0
 50
0.0
 51
0.0
 71
     8
 72
   250
 73
     1
 74
     1
 75
     0
 76
     0
 77
     0
 78
     0
281
     0
 65
     1
110
0.0
120
0.0
130
0.0
111
1.0
121
0.0
131
0.0
112
0.0
122
1.0
132
0.0
 79
     0
146
0.0
348
3A
 60
     3
 61
     5
292
     1
282
     1
141
0.0
142
0.0
 63
   250
421
  3355443
1001
ACAD_NAV_VCDISPLAY
1070
     3
  0
ENDTAB
  0
TABLE
  2
LTYPE
  5
33
330
0
100
AcDbSymbolTable
 70
     2
  0
LTYPE
  5
34
330
33
100
AcDbSymbolTableRecord
100
AcDbLinetypeTableRecord
  2
ByBlock
 70
     0
  3

 72
    65
 73
     0
 40
0.0
  0
LTYPE
  5
35
330
33
100
AcDbSymbolTableRecord
100
AcDbLinetypeTableRecord
  2
ByLayer
 70
     0
  3

 72
    65
 73
     0
 40
0.0
  0
LTYPE
  5
16
330
33
100
AcDbSymbolTableRecord
100
AcDbLinetypeTableRecord
  2
Continuous
 70
     0
  3
Solid line
 72
    65
 73
     0
 40
0.0
  0
LTYPE
  5
C9
330
33
100
AcDbSymbolTableRecord
100
AcDbLinetypeTableRecord
  2
DASHED
 70
     0
  3
__ __ __ __ __ __ __ __ __ __ __ __ __ __ __ __
 72
    65
 73
     2
 40
0.75
 49
0.5
 74
     0
 49
-0.25
 74
     0
  0
ENDTAB
  0
TABLE
  2
LAYER
  5
2B
102
{ACAD_XDICTIONARY
360
2C
102
}
330
0
100
AcDbSymbolTable
 70
     2
  0
LAYER
  5
7
102
{ACAD_XDICTIONARY
360
8
102
}
330
2B
100
AcDbSymbolTableRecord
100
AcDbLayerTableRecord
  2
0
 70
     0
 62
     7
  6
Continuous
370
    -3
390
A
347
D
348
0
  0
LAYER
  5
C6
102
{ACAD_XDICTIONARY
360
C7
102
}
330
2B
100
AcDbSymbolTableRecord
100
AcDbLayerTableRecord
  2
Line Thin Dotted
 70
     0
 62
     1
  6
DASHED
370
     9
390
A
347
D
348
0
  0
ENDTAB
  0
TABLE
  2
STYLE
  5
2F
330
0
100
AcDbSymbolTable
 70
     3
  0
STYLE
  5
30
330
2F
100
AcDbSymbolTableRecord
100
AcDbTextStyleTableRecord
  2
Standard
 70
     0
 40
100.0
 41
1.0
 50
0.0
 71
     0
 42
100.0
  3
arial.ttf
  4

1001
ACAD
1000
Arial
1071
       34
  0
STYLE
  5
40
330
2F
100
AcDbSymbolTableRecord
100
AcDbTextStyleTableRecord
  2
1-1 PS 2
 70
     0
 40
2.0
 41
1.0
 50
0.0
 71
     0
 42
2.0
  3
arial.ttf
  4

1001
ACAD
1000
Arial
1071
       34
  0
STYLE
  5
51
330
2F
100
AcDbSymbolTableRecord
100
AcDbTextStyleTableRecord
  2
Tech 2.5
 70
     0
 40
2.5
 41
1.0
 50
0.0
 71
     0
 42
3.5
  3
dim.shx
  4

  0
ENDTAB
  0
TABLE
  2
VIEW
  5
36
330
0
100
AcDbSymbolTable
 70
     0
  0
ENDTAB
  0
TABLE
  2
UCS
  5
37
330
0
100
AcDbSymbolTable
 70
     0
  0
ENDTAB
  0
TABLE
  2
APPID
  5
3D
330
0
100
AcDbSymbolTable
 70
     3
  0
APPID
  5
31
330
3D
100
AcDbSymbolTableRecord
100
AcDbRegAppTableRecord
  2
ACAD
 70
     0
  0
APPID
  5
2A
330
3D
100
AcDbSymbolTableRecord
100
AcDbRegAppTableRecord
  2
ACAD_PSEXT
 70
     0
  0
APPID
  5
3C
330
3D
100
AcDbSymbolTableRecord
100
AcDbRegAppTableRecord
  2
ACAD_NAV_VCDISPLAY
 70
     0
  0
ENDTAB
  0
TABLE
  2
DIMSTYLE
  5
3E
330
0
100
AcDbSymbolTable
 70
     1
100
AcDbDimStyleTable
 71
     1
340
3F
  0
DIMSTYLE
105
3F
330
3E
100
AcDbSymbolTableRecord
100
AcDbDimStyleTableRecord
  2
Pres 1-1 2.0
 70
     0
 41
1.5
 42
5.0
 43
1.499999999999999
 44
1.5
 46
1.0
 73
     0
 74
     0
 78
     8
140
1.0
141
1.5
143
0.03937007874016
147
2.0
171
     3
172
     1
176
     1
271
     0
272
     0
274
     3
283
     0
284
     8
340
40
371
    -1
  0
ENDTAB
  0
TABLE
  2
BLOCK_RECORD
  5
1
330
0
100
AcDbSymbolTable
 70
     0
  0
BLOCK_RECORD
  5
2
102
{ACAD_XDICTIONARY
360
3
102
}
330
1
100
AcDbSymbolTableRecord
100
AcDbBlockTableRecord
  2
*Model_Space
340
20
 70
     0
280
     1
281
     0
  0
BLOCK_RECORD
  5
24
330
1
100
AcDbSymbolTableRecord
100
AcDbBlockTableRecord
  2
*Paper_Space
340
27
 70
     0
280
     1
281
     0
  0
ENDTAB
  0
ENDSEC
  0
SECTION
  2
BLOCKS
  0
BLOCK
  5
6
330
2
100
AcDbEntity
  8
0
100
AcDbBlockBegin
  2
*Model_Space
 70
     0
 10
0.0
 20
0.0
 30
0.0
  3
*Model_Space
  1

  0
ENDBLK
  5
1F
330
2
100
AcDbEntity
  8
0
100
AcDbBlockEnd
  0
BLOCK
  5
25
330
24
100
AcDbEntity
 67
     1
  8
0
100
AcDbBlockBegin
  2
*Paper_Space
 70
     0
 10
0.0
 20
0.0
 30
0.0
  3
*Paper_Space
  1

  0
ENDBLK
  5
26
330
24
100
AcDbEntity
 67
     1
  8
0
100
AcDbBlockEnd
  0
ENDSEC
  0
SECTION
  2
ENTITIES
  0
LWPOLYLINE
  5
68
330
2
100
AcDbEntity
  8
0
100
AcDbPolyline
 90
        4
 70
     1
 43
0.0
 10
252.9366825610774
 20
518.1517242774208
 42
-0.2360679774997897
 10
253.9366825610774
 20
520.1517242774208
 10
256.9366825610774
 20
520.1517242774208
 42
-0.2360679774997897
 10
257.9366825610774
 20
518.1517242774208
 42
-1.0
  0
CIRCLE
  5
69
330
2
100
AcDbEntity
  8
0
100
AcDbCircle
 10
255.4366825610774
 20
518.1517242774203
 30
0.0
 40
15.5
  0
CIRCLE
  5
6A
330
2
100
AcDbEntity
  8
0
100
AcDbCircle
 10
255.4366825610783
 20
529.1517242774204
 30
0.0
 40
1.75
  0
CIRCLE
  5
6B
330
2
100
AcDbEntity
  8
0
100
AcDbCircle
 10
264.9629620027068
 20
512.6517242774204
 30
0.0
 40
1.75
  0
CIRCLE
  5
6C
330
2
100
AcDbEntity
  8
0
100
AcDbCircle
 10
245.9104031194489
 20
512.6517242774204
 30
0.0
 40
1.75
  0
LWPOLYLINE
  5
6D
330
2
100
AcDbEntity
  8
0
100
AcDbPolyline
 90
        4
 70
     1
 43
0.0
 10
215.7657113395986
 20
518.1517242774208
 42
-0.2360679774997897
 10
216.7657113395986
 20
520.1517242774208
 10
219.7657113395986
 20
520.1517242774208
 42
-0.2360679774997897
 10
220.7657113395986
 20
518.1517242774208
 42
-1.0
  0
CIRCLE
  5
6E
330
2
100
AcDbEntity
  8
0
100
AcDbCircle
 10
218.2657113395986
 20
518.1517242774203
 30
0.0
 40
15.5
  0
CIRCLE
  5
6F
330
2
100
AcDbEntity
  8
0
100
AcDbCircle
 10
218.2657113395995
 20
529.1517242774204
 30
0.0
 40
2.0
  0
CIRCLE
  5
70
330
2
100
AcDbEntity
  8
0
100
AcDbCircle
 10
208.7394318979701
 20
512.6517242774204
 30
0.0
 40
2.0
  0
CIRCLE
  5
71
330
2
100
AcDbEntity
  8
0
100
AcDbCircle
 10
227.791990781228
 20
512.6517242774204
 30
0.0
 40
2.0
  0
TEXT
  5
72
330
2
100
AcDbEntity
  8
0
100
AcDbText
 10
3.132400930772746
 20
633.8104020454625
 30
0.0
 40
2.5
  1
6MM ACRYLIC
  7
Tech 2.5
100
AcDbText
  0
TEXT
  5
73
330
2
100
AcDbEntity
  8
0
100
AcDbText
 10
201.9635587215571
 20
633.993389110781
 30
0.0
 40
2.5
  1
3MM ACRYLIC
  7
Tech 2.5
100
AcDbText
  0
CIRCLE
  5
74
330
2
100
AcDbEntity
  8
0
100
AcDbCircle
 10
133.1105567723293
 20
514.1416645212805
 30
0.0
 40
1.5
  0
CIRCLE
  5
75
330
2
100
AcDbEntity
  8
0
100
AcDbCircle
 10
133.1105567723293
 20
545.1416645212806
 30
0.0
 40
1.5
  0
CIRCLE
  5
76
330
2
100
AcDbEntity
  8
0
100
AcDbCircle
 10
102.1105567723293
 20
545.1416645212805
 30
0.0
 40
1.5
  0
CIRCLE
  5
77
330
2
100
AcDbEntity
  8
0
100
AcDbCircle
 10
102.1105567723293
 20
514.1416645212806
 30
0.0
 40
1.5
  0
CIRCLE
  5
78
330
2
100
AcDbEntity
  8
0
100
AcDbCircle
 10
117.6105567723293
 20
529.6416645212802
 30
0.0
 40
11.5
  0
LINE
  5
79
330
2
100
AcDbEntity
  8
0
100
AcDbLine
 10
123.6105567723293
 20
508.4916645212806
 30
0.0
 11
133.760556772329
 21
508.4916645212806
 31
0.0
  0
LWPOLYLINE
  5
7A
330
2
100
AcDbEntity
  8
0
100
AcDbPolyline
 90
       14
 70
     1
 43
0.0
 10
138.760556772329
 20
545.7916645212804
 42
0.4142135623730927
 10
133.760556772329
 20
550.7916645212806
 10
101.4605567723297
 20
550.7916645212808
 42
0.4142135623730973
 10
96.46055677232972
 20
545.7916645212808
 10
96.46055677232972
 20
513.4916645212805
 42
0.4142135623730951
 10
101.4605567723297
 20
508.4916645212806
 10
111.6105567723293
 20
508.4916645212806
 42
-0.4142135623730951
 10
112.6105567723293
 20
507.4916645212805
 42
0.4142135623730951
 10
113.6105567723293
 20
506.4916645212806
 10
121.6105567723293
 20
506.4916645212806
 42
0.4142135623730951
 10
122.6105567723293
 20
507.4916645212805
 42
-0.4142135623730951
 10
123.6105567723293
 20
508.4916645212806
 10
133.760556772329
 20
508.4916645212806
 42
0.4142135623730951
 10
138.760556772329
 20
513.4916645212805
  0
CIRCLE
  5
7B
330
2
100
AcDbEntity
  8
0
100
AcDbCircle
 10
304.3446138051877
 20
608.7062392737878
 30
0.0
 40
2.0
  0
CIRCLE
  5
7C
330
2
100
AcDbEntity
  8
0
100
AcDbCircle
 10
304.3446138051881
 20
608.7062392737878
 30
0.0
 40
4.5
  0
CIRCLE
  5
7D
330
2
100
AcDbEntity
  8
0
100
AcDbCircle
 10
314.3446138051877
 20
608.7062392737878
 30
0.0
 40
2.0
  0
CIRCLE
  5
7E
330
2
100
AcDbEntity
  8
0
100
AcDbCircle
 10
314.3446138051881
 20
608.7062392737878
 30
0.0
 40
4.5
  0
CIRCLE
  5
7F
330
2
100
AcDbEntity
  8
0
100
AcDbCircle
 10
304.3446138051877
 20
618.706239273788
 30
0.0
 40
2.0
  0
CIRCLE
  5
80
330
2
100
AcDbEntity
  8
0
100
AcDbCircle
 10
304.3446138051881
 20
618.706239273788
 30
0.0
 40
4.5
  0
CIRCLE
  5
81
330
2
100
AcDbEntity
  8
0
100
AcDbCircle
 10
314.3446138051877
 20
618.706239273788
 30
0.0
 40
2.0
  0
CIRCLE
  5
82
330
2
100
AcDbEntity
  8
0
100
AcDbCircle
 10
314.3446138051881
 20
618.706239273788
 30
0.0
 40
4.5
  0
CIRCLE
  5
83
330
2
100
AcDbEntity
  8
0
100
AcDbCircle
 10
324.3446138051877
 20
608.7062392737878
 30
0.0
 40
2.0
  0
CIRCLE
  5
84
330
2
100
AcDbEntity
  8
0
100
AcDbCircle
 10
324.3446138051881
 20
608.7062392737878
 30
0.0
 40
4.5
  0
CIRCLE
  5
85
330
2
100
AcDbEntity
  8
0
100
AcDbCircle
 10
334.3446138051877
 20
608.7062392737878
 30
0.0
 40
2.0
  0
CIRCLE
  5
86
330
2
100
AcDbEntity
  8
0
100
AcDbCircle
 10
334.3446138051882
 20
608.7062392737878
 30
0.0
 40
4.5
  0
CIRCLE
  5
87
330
2
100
AcDbEntity
  8
0
100
AcDbCircle
 10
324.3446138051877
 20
618.706239273788
 30
0.0
 40
2.0
  0
CIRCLE
  5
88
330
2
100
AcDbEntity
  8
0
100
AcDbCircle
 10
324.3446138051881
 20
618.706239273788
 30
0.0
 40
4.5
  0
CIRCLE
  5
89
330
2
100
AcDbEntity
  8
0
100
AcDbCircle
 10
334.3446138051877
 20
618.706239273788
 30
0.0
 40
2.0
  0
CIRCLE
  5
8A
330
2
100
AcDbEntity
  8
0
100
AcDbCircle
 10
334.3446138051882
 20
618.706239273788
 30
0.0
 40
4.5
  0
TEXT
  5
8B
330
2
100
AcDbEntity
  8
0
100
AcDbText
 10
301.9191178261058
 20
633.8104020454625
 30
0.0
 40
2.5
  1
1.5MM ACRYLIC
  7
Tech 2.5
100
AcDbText
  0
CIRCLE
  5
8C
330
2
100
AcDbEntity
  8
0
100
AcDbCircle
 10
304.3446138051877
 20
582.1481652552484
 30
0.0
 40
2.0
  0
CIRCLE
  5
8D
330
2
100
AcDbEntity
  8
0
100
AcDbCircle
 10
304.3446138051881
 20
582.1481652552484
 30
0.0
 40
4.5
  0
CIRCLE
  5
8E
330
2
100
AcDbEntity
  8
0
100
AcDbCircle
 10
314.3446138051877
 20
582.1481652552484
 30
0.0
 40
2.0
  0
CIRCLE
  5
8F
330
2
100
AcDbEntity
  8
0
100
AcDbCircle
 10
314.3446138051881
 20
582.1481652552484
 30
0.0
 40
4.5
  0
CIRCLE
  5
90
330
2
100
AcDbEntity
  8
0
100
AcDbCircle
 10
304.3446138051877
 20
592.1481652552484
 30
0.0
 40
2.0
  0
CIRCLE
  5
91
330
2
100
AcDbEntity
  8
0
100
AcDbCircle
 10
304.3446138051881
 20
592.1481652552484
 30
0.0
 40
4.5
  0
CIRCLE
  5
92
330
2
100
AcDbEntity
  8
0
100
AcDbCircle
 10
314.3446138051877
 20
592.1481652552484
 30
0.0
 40
2.0
  0
CIRCLE
  5
93
330
2
100
AcDbEntity
  8
0
100
AcDbCircle
 10
314.3446138051881
 20
592.1481652552484
 30
0.0
 40
4.5
  0
CIRCLE
  5
94
330
2
100
AcDbEntity
  8
0
100
AcDbCircle
 10
324.3446138051877
 20
582.1481652552484
 30
0.0
 40
2.0
  0
CIRCLE
  5
95
330
2
100
AcDbEntity
  8
0
100
AcDbCircle
 10
324.3446138051881
 20
582.1481652552484
 30
0.0
 40
4.5
  0
CIRCLE
  5
96
330
2
100
AcDbEntity
  8
0
100
AcDbCircle
 10
324.3446138051877
 20
592.1481652552484
 30
0.0
 40
2.0
  0
CIRCLE
  5
97
330
2
100
AcDbEntity
  8
0
100
AcDbCircle
 10
324.3446138051881
 20
592.1481652552484
 30
0.0
 40
4.5
  0
TEXT
  5
98
330
2
100
AcDbEntity
  8
0
100
AcDbText
 10
3.132400930772746
 20
643.1657233637456
 30
0.0
 40
2.5
  1
PERISTALTIC PUMP
  7
Tech 2.5
100
AcDbText
  0
TEXT
  5
99
330
2
100
AcDbEntity
  8
0
100
AcDbText
 10
3.132400930772746
 20
196.436948211661
 30
0.0
 40
2.5
  1
SAUSAGE TRAY
  7
Tech 2.5
100
AcDbText
  0
LWPOLYLINE
  5
9A
330
2
100
AcDbEntity
  8
0
100
AcDbPolyline
 90
       28
 70
     1
 43
0.0
 10
174.0197289427683
 20
89.37139381490872
 42
0.4142135623730951
 10
175.0197289427683
 20
90.37139381490872
 10
175.0197289427683
 20
99.13934300734013
 42
0.2679491924310728
 10
174.5197289427683
 20
100.0053684111242
 42
-0.7673269879789311
 10
175.0197289427683
 20
101.8713938149087
 10
181.0197289427683
 20
101.8713938149087
 42
-0.7673269879786405
 10
181.5197289427683
 20
100.0053684111242
 42
0.2679491924311028
 10
181.0197289427683
 20
99.13934300734013
 10
181.0197289427683
 20
90.37139381490872
 42
0.4142135623730951
 10
182.0197289427683
 20
89.37139381490872
 10
196.0197289427683
 20
89.37139381490872
 42
0.4142135623730951
 10
206.0197289427683
 20
99.37139381490872
 10
206.0197289427683
 20
113.3713938149087
 42
0.4142135623730951
 10
205.0197289427683
 20
114.3713938149087
 10
3.019728942768324
 20
114.3713938149092
 42
0.4142135623730951
 10
2.019728942768324
 20
113.3713938149092
 10
2.019728942768324
 20
99.37139381490922
 42
0.4142135623730951
 10
12.01972894276832
 20
89.3713938149092
 10
26.01972894276832
 20
89.3713938149092
 42
0.4142135623730951
 10
27.01972894276833
 20
90.37139381490922
 10
27.01972894276833
 20
99.13934300734061
 42
0.2679491924310724
 10
26.51972894276833
 20
100.0053684111246
 42
-0.7673269879789305
 10
27.01972894276833
 20
101.8713938149092
 10
33.01972894276833
 20
101.8713938149092
 42
-0.7673269879789767
 10
33.51972894276832
 20
100.0053684111246
 42
0.2679491924311316
 10
33.01972894276833
 20
99.13934300734061
 10
33.01972894276833
 20
90.37139381490922
 42
0.4142135623730951
 10
34.01972894276833
 20
89.3713938149092
  0
LWPOLYLINE
  5
9B
330
2
100
AcDbEntity
  8
0
100
AcDbPolyline
 90
       44
 70
     1
 43
0.0
 10
39.05196198980093
 20
174.523943624446
 42
0.1989123673796683
 10
35.51642808386759
 20
175.9884097185133
 10
24.01807851331752
 20
175.9884097185129
 42
0.4142135623730838
 10
23.01807851331751
 20
174.9884097185129
 10
23.01807851331751
 20
166.220460526082
 42
0.2679491924311244
 10
23.5180785133175
 20
165.3544351222974
 42
-0.7673269879789642
 10
23.01807851331751
 20
163.4884097185129
 10
17.01807851331841
 20
163.4884097185129
 42
-0.7673269879787834
 10
16.51807851331749
 20
165.3544351222972
 42
0.2679491924310055
 10
17.0180785133175
 20
166.2204605260815
 10
17.0180785133175
 20
174.9884097185129
 42
0.4142135623730951
 10
16.0180785133175
 20
175.9884097185129
 10
3.019728942767413
 20
175.9884097185129
 42
0.4142135623731111
 10
2.019728942767414
 20
174.9884097185129
 10
2.019728942769233
 20
135.4884097185129
 42
0.4142135623730973
 10
3.019728942769233
 20
134.4884097185129
 10
12.19130181802166
 20
134.4884097185133
 42
0.3178372451957633
 10
13.13411085960342
 20
135.15507638518
 42
-0.8430389971007564
 10
17.01972894276741
 20
134.4884097185133
 10
17.01972894276741
 20
129.4884097185128
 42
0.4142135623730826
 10
18.01972894276741
 20
128.4884097185129
 10
132.1552628487002
 20
128.4884097185129
 42
0.4142135623730951
 10
133.1552628487002
 20
129.4884097185128
 10
133.1552628487002
 20
134.4884097185129
 42
-0.8430389971006956
 10
137.0408809318642
 20
135.1550763851799
 42
0.3178372451957288
 10
137.9836899734459
 20
134.4884097185133
 10
147.1552628487001
 20
134.4884097185129
 42
0.4142135623731078
 10
148.1552628487001
 20
135.4884097185129
 10
148.1552628487001
 20
174.9884097185129
 42
0.4142135623730951
 10
147.1552628487001
 20
175.9884097185129
 10
134.1569132781501
 20
175.9884097185129
 42
0.4142135623730951
 10
133.1569132781501
 20
174.9884097185129
 10
133.1569132781501
 20
166.220460526082
 42
0.2679491924311248
 10
133.6569132781501
 20
165.3544351222974
 42
-0.7673269879789643
 10
133.1569132781501
 20
163.4884097185129
 10
127.156913278151
 20
163.4884097185129
 42
-0.7673269879790448
 10
126.6569132781505
 20
165.3544351222972
 42
0.2679491924309861
 10
127.1569132781501
 20
166.2204605260815
 10
127.1569132781501
 20
174.9884097185129
 42
0.4142135623730826
 10
126.1569132781501
 20
175.9884097185129
 10
114.6585637076
 20
175.9884097185133
 42
0.1989123673796683
 10
111.1230298016667
 20
174.523943624446
 10
77.20881623929336
 20
140.6097300620724
 42
-0.4142135623730951
 10
72.96617555217427
 20
140.6097300620724
  0
LWPOLYLINE
  5
9C
330
2
100
AcDbEntity
  8
0
100
AcDbPolyline
 90
       44
 70
     1
 43
0.0
 10
194.2712458373794
 20
174.523943624446
 42
0.1989123673796683
 10
190.7357119314465
 20
175.9884097185133
 10
179.2373623608964
 20
175.9884097185129
 42
0.4142135623730838
 10
178.2373623608964
 20
174.9884097185129
 10
178.2373623608964
 20
166.220460526082
 42
0.2679491924311244
 10
178.7373623608964
 20
165.3544351222974
 42
-0.7673269879789642
 10
178.2373623608964
 20
163.4884097185129
 10
172.2373623608969
 20
163.4884097185129
 42
-0.7673269879787834
 10
171.7373623608969
 20
165.3544351222972
 42
0.2679491924310055
 10
172.2373623608964
 20
166.2204605260815
 10
172.2373623608964
 20
174.9884097185129
 42
0.4142135623730951
 10
171.2373623608964
 20
175.9884097185129
 10
158.2390127903463
 20
175.9884097185129
 42
0.4142135623731111
 10
157.2390127903463
 20
174.9884097185129
 10
157.2390127903481
 20
135.4884097185129
 42
0.4142135623730973
 10
158.2390127903481
 20
134.4884097185129
 10
167.4105856656001
 20
134.4884097185133
 42
0.3178372451957633
 10
168.3533947071823
 20
135.15507638518
 42
-0.8430389971007564
 10
172.2390127903459
 20
134.4884097185133
 10
172.2390127903463
 20
129.4884097185128
 42
0.4142135623730826
 10
173.2390127903463
 20
128.4884097185129
 10
287.3745466962791
 20
128.4884097185129
 42
0.4142135623730951
 10
288.3745466962791
 20
129.4884097185128
 10
288.3745466962791
 20
134.4884097185129
 42
-0.8430389971006956
 10
292.2601647794431
 20
135.1550763851799
 42
0.3178372451957288
 10
293.2029738210253
 20
134.4884097185133
 10
302.3745466962791
 20
134.4884097185129
 42
0.4142135623731078
 10
303.3745466962792
 20
135.4884097185129
 10
303.3745466962792
 20
174.9884097185129
 42
0.4142135623730951
 10
302.3745466962791
 20
175.9884097185129
 10
289.3761971257291
 20
175.9884097185129
 42
0.4142135623730951
 10
288.376197125729
 20
174.9884097185129
 10
288.376197125729
 20
166.220460526082
 42
0.2679491924311248
 10
288.8761971257292
 20
165.3544351222974
 42
-0.7673269879789643
 10
288.376197125729
 20
163.4884097185129
 10
282.37619712573
 20
163.4884097185129
 42
-0.7673269879790448
 10
281.8761971257295
 20
165.3544351222972
 42
0.2679491924309861
 10
282.376197125729
 20
166.2204605260815
 10
282.376197125729
 20
174.9884097185129
 42
0.4142135623730826
 10
281.376197125729
 20
175.9884097185129
 10
269.877847555179
 20
175.9884097185133
 42
0.1989123673796683
 10
266.3423136492461
 20
174.523943624446
 10
232.4281000868723
 20
140.6097300620724
 42
-0.4142135623730951
 10
228.1854593997532
 20
140.6097300620724
  0
LWPOLYLINE
  5
9D
330
2
100
AcDbEntity
  8
0
100
AcDbPolyline
 90
       28
 70
     1
 43
0.0
 10
174.0197289427683
 20
52.84222663199284
 42
0.4142135623730951
 10
175.0197289427683
 20
53.84222663199285
 10
175.0197289427683
 20
62.61017582442423
 42
0.2679491924310728
 10
174.5197289427683
 20
63.47620122820877
 42
-0.7673269879789311
 10
175.0197289427683
 20
65.34222663199284
 10
181.0197289427683
 20
65.34222663199284
 42
-0.7673269879786405
 10
181.5197289427683
 20
63.47620122820877
 42
0.2679491924311028
 10
181.0197289427683
 20
62.61017582442423
 10
181.0197289427683
 20
53.84222663199285
 42
0.4142135623730951
 10
182.0197289427683
 20
52.84222663199284
 10
196.0197289427683
 20
52.84222663199284
 42
0.4142135623730951
 10
206.0197289427683
 20
62.84222663199284
 10
206.0197289427683
 20
76.84222663199284
 42
0.4142135623730951
 10
205.0197289427683
 20
77.84222663199284
 10
3.019728942768324
 20
77.84222663199329
 42
0.4142135623730951
 10
2.019728942768324
 20
76.8422266319933
 10
2.019728942768324
 20
62.84222663199329
 42
0.4142135623730951
 10
12.01972894276832
 20
52.84222663199329
 10
26.01972894276832
 20
52.84222663199329
 42
0.4142135623730951
 10
27.01972894276833
 20
53.84222663199329
 10
27.01972894276833
 20
62.61017582442469
 42
0.2679491924310724
 10
26.51972894276833
 20
63.47620122820922
 42
-0.7673269879789305
 10
27.01972894276833
 20
65.34222663199329
 10
33.01972894276833
 20
65.34222663199329
 42
-0.7673269879789767
 10
33.51972894276832
 20
63.47620122820922
 42
0.2679491924311316
 10
33.01972894276833
 20
62.61017582442469
 10
33.01972894276833
 20
53.84222663199329
 42
0.4142135623730951
 10
34.01972894276833
 20
52.84222663199329
  0
TEXT
  5
9E
330
2
100
AcDbEntity
  8
0
100
AcDbText
 10
3.132400930772746
 20
185.7638729692764
 30
0.0
 40
2.5
  1
6MM ACRYLIC
  7
Tech 2.5
100
AcDbText
  0
CIRCLE
  5
9F
330
2
100
AcDbEntity
  8
0
100
AcDbCircle
 10
38.01972894276833
 20
372.6724219149644
 30
0.0
 40
20.5
  0
LINE
  5
A0
330
2
100
AcDbEntity
  8
0
100
AcDbLine
 10
74.01972894276831
 20
372.6724219149644
 30
0.0
 11
74.01972894276831
 21
405.6724219149644
 31
0.0
  0
LINE
  5
A1
330
2
100
AcDbEntity
  8
0
100
AcDbLine
 10
2.019728942768324
 20
405.6724219149644
 30
0.0
 11
2.019728942768324
 21
372.6724219149653
 31
0.0
  0
ARC
  5
A2
330
2
100
AcDbEntity
  8
0
100
AcDbCircle
 10
14.51972894276832
 20
405.6724219149644
 30
0.0
 40
12.5
100
AcDbArc
 50
90.0
 51
180.0
  0
CIRCLE
  5
A3
330
2
100
AcDbEntity
  8
0
100
AcDbCircle
 10
61.51972894276831
 20
405.6724219149644
 30
0.0
 40
2.0
  0
ARC
  5
A4
330
2
100
AcDbEntity
  8
0
100
AcDbCircle
 10
38.01972894276833
 20
372.6724219149644
 30
0.0
 40
36.0
100
AcDbArc
 50
180.0
 51
0.0
  0
LINE
  5
A5
330
2
100
AcDbEntity
  8
0
100
AcDbLine
 10
14.51972894276832
 20
418.1724219149644
 30
0.0
 11
61.51972894276831
 21
418.1724219149644
 31
0.0
  0
ARC
  5
A6
330
2
100
AcDbEntity
  8
0
100
AcDbCircle
 10
61.51972894276831
 20
405.6724219149644
 30
0.0
 40
12.5
100
AcDbArc
 50
0.0
 51
90.0
  0
CIRCLE
  5
A7
330
2
100
AcDbEntity
  8
0
100
AcDbCircle
 10
14.51972894276832
 20
405.6724219149644
 30
0.0
 40
2.0
  0
LWPOLYLINE
  5
A8
330
2
100
AcDbEntity
  8
0
100
AcDbPolyline
 90
        4
 70
     1
 43
0.0
 10
271.4546419441467
 20
392.1214685213104
 10
271.4546419441467
 20
417.1214685213108
 10
199.4546419441467
 20
417.1214685213108
 10
199.4546419441467
 20
392.1214685213104
  0
ARC
  5
A9
330
2
100
AcDbEntity
  8
0
100
AcDbCircle
 10
211.9546419441467
 20
404.6214685213104
 30
0.0
 40
12.5
100
AcDbArc
 50
90.0
 51
180.0
  0
ARC
  5
AA
330
2
100
AcDbEntity
  8
0
100
AcDbCircle
 10
258.9546419441467
 20
404.6214685213104
 30
0.0
 40
12.5
100
AcDbArc
 50
0.0
 51
90.0
  0
CIRCLE
  5
AB
330
2
100
AcDbEntity
  8
0
100
AcDbCircle
 10
258.9546419441467
 20
404.6214685213104
 30
0.0
 40
2.0
  0
CIRCLE
  5
AC
330
2
100
AcDbEntity
  8
0
100
AcDbCircle
 10
211.9546419441467
 20
404.6214685213104
 30
0.0
 40
2.0
  0
LINE
  5
AD
330
2
100
AcDbEntity
  8
0
100
AcDbLine
 10
211.9546419441467
 20
399.6214685213104
 30
0.0
 11
211.9546419441467
 21
409.6214685213103
 31
0.0
  0
LINE
  5
AE
330
2
100
AcDbEntity
  8
0
100
AcDbLine
 10
258.9546419441467
 20
399.6214685213104
 30
0.0
 11
258.9546419441467
 21
409.6214685213103
 31
0.0
  0
LWPOLYLINE
  5
AF
330
2
100
AcDbEntity
  8
0
100
AcDbPolyline
 90
        4
 70
     1
 43
0.0
 10
271.4546419441467
 20
367.1214685213099
 10
271.4546419441467
 20
392.1214685213104
 10
199.4546419441467
 20
392.1214685213104
 10
199.4546419441467
 20
367.1214685213099
  0
LINE
  5
B0
330
2
100
AcDbEntity
  8
0
100
AcDbLine
 10
199.4546419441467
 20
392.1214685213104
 30
0.0
 11
199.4546419441467
 21
377.3214685213102
 31
0.0
  0
CIRCLE
  5
B1
330
2
100
AcDbEntity
  8
0
100
AcDbCircle
 10
208.4546419441467
 20
377.3214685213102
 30
0.0
 40
2.0
  0
LINE
  5
B2
330
2
100
AcDbEntity
  8
0
100
AcDbLine
 10
208.4546419441467
 20
372.3214685213102
 30
0.0
 11
208.4546419441467
 21
382.3214685213102
 31
0.0
  0
CIRCLE
  5
B3
330
2
100
AcDbEntity
  8
0
100
AcDbCircle
 10
262.4546419441467
 20
377.3214685213102
 30
0.0
 40
2.0
  0
LINE
  5
B4
330
2
100
AcDbEntity
  8
0
100
AcDbLine
 10
262.4546419441467
 20
372.3214685213102
 30
0.0
 11
262.4546419441467
 21
382.3214685213102
 31
0.0
  0
LINE
  5
B5
330
2
100
AcDbEntity
  8
0
100
AcDbLine
 10
211.9546419441467
 20
417.1214685213104
 30
0.0
 11
211.9546419441467
 21
412.1214685213103
 31
0.0
  0
LINE
  5
B6
330
2
100
AcDbEntity
  8
0
100
AcDbLine
 10
199.4546419441462
 20
404.6214685213099
 30
0.0
 11
204.4546419441462
 21
404.6214685213099
 31
0.0
  0
LINE
  5
B7
330
2
100
AcDbEntity
  8
0
100
AcDbLine
 10
258.9546419441467
 20
417.1214685213104
 30
0.0
 11
258.9546419441467
 21
412.1214685213103
 31
0.0
  0
LINE
  5
B8
330
2
100
AcDbEntity
  8
0
100
AcDbLine
 10
271.4546419441472
 20
404.6214685213099
 30
0.0
 11
266.4546419441472
 21
404.6214685213099
 31
0.0
  0
LINE
  5
B9
330
2
100
AcDbEntity
  8
0
100
AcDbLine
 10
216.9546419441467
 20
404.6214685213104
 30
0.0
 11
206.9546419441467
 21
404.6214685213104
 31
0.0
  0
LINE
  5
BA
330
2
100
AcDbEntity
  8
0
100
AcDbLine
 10
263.9546419441467
 20
404.6214685213104
 30
0.0
 11
253.9546419441467
 21
404.6214685213104
 31
0.0
  0
LINE
  5
BB
330
2
100
AcDbEntity
  8
0
100
AcDbLine
 10
213.4546419441467
 20
377.3214685213102
 30
0.0
 11
203.4546419441467
 21
377.3214685213102
 31
0.0
  0
LINE
  5
BC
330
2
100
AcDbEntity
  8
0
100
AcDbLine
 10
267.4546419441467
 20
377.3214685213102
 30
0.0
 11
257.4546419441467
 21
377.3214685213102
 31
0.0
  0
TEXT
  5
BD
330
2
100
AcDbEntity
  8
0
100
AcDbText
 10
3.132400930772746
 20
439.1818661901056
 30
0.0
 40
2.5
  1
BOTTLE MOUNT
  7
Tech 2.5
100
AcDbText
  0
TEXT
  5
BE
330
2
100
AcDbEntity
  8
0
100
AcDbText
 10
3.132400930772746
 20
428.508790947721
 30
0.0
 40
2.5
  1
6MM ACRYLIC
  7
Tech 2.5
100
AcDbText
  0
TEXT
  5
BF
330
2
100
AcDbEntity
  8
0
100
AcDbText
 10
200.1874156508447
 20
428.508790947721
 30
0.0
 40
2.5
  1
ALUMINIUM ANGLE
  7
Tech 2.5
100
AcDbText
  0
LWPOLYLINE
  5
C0
330
2
100
AcDbEntity
  8
0
100
AcDbPolyline
 90
        4
 70
     1
 43
0.0
 10
25.97389865444711
 20
770.0952159983264
 10
28.97389865444711
 20
770.0952159983264
 10
28.97389865444711
 20
708.095216003614
 10
25.97389865444711
 20
708.095216003614
  0
LWPOLYLINE
  5
C1
330
2
100
AcDbEntity
  8
0
100
AcDbPolyline
 90
        4
 70
     1
 43
0.0
 10
29.97389865444711
 20
708.095216003614
 10
35.97389865444711
 20
708.095216003614
 10
35.97389865444711
 20
770.0952159983264
 10
29.97389865444711
 20
770.0952159983264
  0
LWPOLYLINE
  5
C2
330
2
100
AcDbEntity
  8
0
100
AcDbPolyline
 90
        4
 70
     1
 43
0.0
 10
42.9738986544471
 20
815.0952159983264
 10
48.9738986544471
 20
815.0952159983264
 10
48.9738986544471
 20
827.0952159983265
 10
42.9738986544471
 20
827.0952159983265
  0
LWPOLYLINE
  5
C3
330
2
100
AcDbEntity
  8
0
100
AcDbPolyline
 90
        4
 70
     1
 43
0.0
 10
36.97389865444711
 20
708.095216003614
 10
42.9738986544471
 20
708.095216003614
 10
42.9738986544471
 20
827.0952159983265
 10
36.97389865444711
 20
827.0952159983265
  0
LWPOLYLINE
  5
C4
330
2
100
AcDbEntity
  8
0
100
AcDbPolyline
 90
        4
 70
     1
 43
0.0
 10
48.9738986544471
 20
782.0952159983264
 10
54.9738986544471
 20
782.0952159983264
 10
54.9738986544471
 20
827.0952159983265
 10
48.9738986544471
 20
827.0952159983265
  0
LINE
  5
C5
330
2
100
AcDbEntity
  8
Line Thin Dotted
100
AcDbLine
 10
27.3905357868407
 20
818.0952159983265
 30
0.0
 11
63.08275943292028
 21
818.0952159983265
 31
0.0
  0
LINE
  5
CA
330
2
100
AcDbEntity
  8
0
100
AcDbLine
 10
27.3905357868407
 20
816.0952159983262
 30
0.0
 11
63.08275943292028
 21
816.0952159983262
 31
0.0
  0
LINE
  5
CB
330
2
100
AcDbEntity
  8
0
100
AcDbLine
 10
27.3905357868407
 20
820.0952159983263
 30
0.0
 11
63.08275943292028
 21
820.0952159983263
 31
0.0
  0
LINE
  5
CC
330
2
100
AcDbEntity
  8
Line Thin Dotted
100
AcDbLine
 10
67.47389865444711
 20
849.0946508470509
 30
0.0
 11
67.47389865444711
 21
822.6957811496014
 31
0.0
  0
LWPOLYLINE
  5
CD
330
2
100
AcDbEntity
  8
0
100
AcDbPolyline
 90
       10
 70
     1
 43
0.0
 10
54.9738986544471
 20
838.8952159983263
 10
55.4738986544471
 20
838.8952159983263
 10
55.4738986544471
 20
841.3952159983264
 10
13.47389865444711
 20
841.3952159983264
 10
13.47389865444711
 20
838.8952159983263
 10
13.97389865444711
 20
838.8952159983263
 10
13.97389865444711
 20
830.0952159983264
 42
0.4142135623730951
 10
16.9738986544471
 20
827.0952159983265
 10
51.9738986544471
 20
827.0952159983265
 42
0.4142135623730951
 10
54.9738986544471
 20
830.0952159983264
  0
LWPOLYLINE
  5
CE
330
2
100
AcDbEntity
  8
0
100
AcDbPolyline
 90
        6
 70
     1
 43
0.0
 10
79.97389865444711
 20
832.8952159983257
 10
54.9738986544471
 20
832.8952159983264
 10
54.9738986544471
 20
807.8952159983264
 10
57.9738986544471
 20
807.8952159983264
 10
57.9738986544471
 20
829.8952159983263
 10
79.97389865444711
 20
829.895215998326
  0
LWPOLYLINE
  5
CF
330
2
100
AcDbEntity
  8
0
100
AcDbPolyline
 90
        4
 70
     1
 43
0.0
 10
79.97389865444711
 20
832.8952159983257
 10
-1.526101345552888
 20
832.8952159983257
 10
-1.526101345552888
 20
838.8952159983263
 10
79.97389865444711
 20
838.8952159983263
  0
LWPOLYLINE
  5
D0
330
2
100
AcDbEntity
  8
0
100
AcDbPolyline
 90
        4
 70
     1
 43
0.0
 10
33.18620202873763
 20
265.6486030211504
 42
0.6417424305044152
 10
33.18620202873763
 20
264.7395121120595
 42
-4.582575694955791
 10
30.85325440221459
 20
264.7395121120595
 42
0.6417424305044133
 10
30.85325440221459
 20
265.6486030211504
 42
-4.582575694955798
  0
LWPOLYLINE
  5
D1
330
2
100
AcDbEntity
  8
0
100
AcDbPolyline
 90
       20
 70
     1
 43
0.0
 10
62.01972821547633
 20
280.1940575666049
 42
0.4142135623730951
 10
57.01972821547633
 20
285.1940575666049
 10
7.019728215476334
 20
285.1940575666049
 42
0.4142135623730951
 10
2.019728215476334
 20
280.1940575666049
 10
2.019728215476334
 20
269.1940575666049
 42
0.4142135623730951
 10
4.019728215476334
 20
267.1940575666049
 10
9.019728215476334
 20
267.1940575666049
 42
-1.0
 10
9.019728215476334
 20
263.1940575666049
 10
4.019728215476334
 20
263.1940575666049
 42
0.4142135623730951
 10
2.019728215476334
 20
261.1940575666049
 10
2.019728215476334
 20
250.1940575666049
 42
0.4142135623730951
 10
7.019728215476334
 20
245.1940575666049
 10
57.01972821547633
 20
245.1940575666049
 42
0.4142135623730951
 10
62.01972821547633
 20
250.1940575666049
 10
62.01972821547633
 20
261.1940575666049
 42
0.4142135623730951
 10
60.01972821547633
 20
263.1940575666049
 10
55.01972821547633
 20
263.1940575666049
 42
-1.0
 10
55.01972821547633
 20
267.1940575666049
 10
60.01972821547633
 20
267.1940575666049
 42
0.4142135623730951
 10
62.01972821547633
 20
269.1940575666049
  0
TEXT
  5
D2
330
2
100
AcDbEntity
  8
0
100
AcDbText
 10
3.132400930772746
 20
306.6669820359189
 30
0.0
 40
2.5
  1
TUBE PLATE
  7
Tech 2.5
100
AcDbText
  0
TEXT
  5
D3
330
2
100
AcDbEntity
  8
0
100
AcDbText
 10
3.132400930772746
 20
295.9939067935343
 30
0.0
 40
2.5
  1
6MM ACRYLIC
  7
Tech 2.5
100
AcDbText
  0
LWPOLYLINE
  5
D4
330
2
100
AcDbEntity
  8
0
100
AcDbPolyline
 90
        2
 70
     1
 43
0.0
 10
105.8827970466605
 20
387.8004477803659
 42
-1.0
 10
109.8827970466604
 20
387.8004477803659
 42
-1.0
  0
LWPOLYLINE
  5
D5
330
2
100
AcDbEntity
  8
0
100
AcDbPolyline
 90
        2
 70
     1
 43
0.0
 10
159.8834174802359
 20
387.8004477803659
 42
-1.0
 10
163.8834174802359
 20
387.8004477803659
 42
-1.0
  0
LWPOLYLINE
  5
D6
330
2
100
AcDbEntity
  8
0
100
AcDbPolyline
 90
        8
 70
     1
 43
0.0
 10
107.8827970466605
 20
351.8004477803659
 10
161.8834174802332
 20
351.8004477803659
 42
0.4142135623730951
 10
170.8834174802332
 20
360.8004477803659
 10
170.8834174802332
 20
387.8004477803659
 42
0.4142135623730951
 10
161.8834174802332
 20
396.8004477803658
 10
107.8827970466605
 20
396.8004477803658
 42
0.4142135623730951
 10
98.88279704666048
 20
387.8004477803659
 10
98.88279704666048
 20
360.8004477803659
 42
0.4142135623730951
  0
LWPOLYLINE
  5
D7
330
2
100
AcDbEntity
  8
0
100
AcDbPolyline
 90
        2
 70
     1
 43
0.0
 10
109.8827970466541
 20
409.1724219149644
 42
-1.0
 10
105.8827970466541
 20
409.1724219149644
 42
-1.0
  0
LWPOLYLINE
  5
D8
330
2
100
AcDbEntity
  8
0
100
AcDbPolyline
 90
        2
 70
     1
 43
0.0
 10
163.8834174802296
 20
409.1724219149644
 42
-1.0
 10
159.8834174802296
 20
409.1724219149644
 42
-1.0
  0
LWPOLYLINE
  5
D9
330
2
100
AcDbEntity
  8
0
100
AcDbPolyline
 90
        6
 70
     1
 43
0.0
 10
98.88279704665727
 20
409.1724219149644
 10
98.88279704665727
 20
406.1724219149644
 10
170.8834174802296
 20
406.1724219149644
 10
170.8834174802296
 20
409.1724219149639
 42
0.4142135623731103
 10
161.8834174802296
 20
418.1724219149644
 10
107.8827970466573
 20
418.1724219149644
 42
0.4142135623730955
  0
TEXT
  5
DA
330
2
100
AcDbEntity
  8
0
100
AcDbText
 10
99.62642545443305
 20
429.9167029518456
 30
0.0
 40
2.5
  1
6MM ACRYLIC
  7
Tech 2.5
100
AcDbText
  0
LWPOLYLINE
  5
DB
330
2
100
AcDbEntity
  8
0
100
AcDbPolyline
 90
        4
 70
     1
 43
0.0
 10
42.9738986544471
 20
717.9452160009701
 10
48.9738986544471
 20
717.9452160009701
 10
48.9738986544471
 20
760.2452160009703
 10
42.9738986544471
 20
760.2452160009703
  0
LWPOLYLINE
  5
DC
330
2
100
AcDbEntity
  8
0
100
AcDbPolyline
 90
        2
 70
     1
 43
0.0
 10
160.4689693948544
 20
572.4369360944019
 42
-1.0
 10
156.4689693948544
 20
572.4369360944019
 42
-1.0
  0
LWPOLYLINE
  5
DD
330
2
100
AcDbEntity
  8
0
100
AcDbPolyline
 90
        2
 70
     1
 43
0.0
 10
106.6283489612883
 20
572.4369360944019
 42
-1.0
 10
102.6283489612883
 20
572.4369360944019
 42
-1.0
  0
LWPOLYLINE
  5
DE
330
2
100
AcDbEntity
  8
0
100
AcDbPolyline
 90
        2
 70
     1
 43
0.0
 10
160.4689693948544
 20
616.2775565279686
 42
-1.0
 10
156.4689693948544
 20
616.2775565279686
 42
-1.0
  0
LWPOLYLINE
  5
DF
330
2
100
AcDbEntity
  8
0
100
AcDbPolyline
 90
        2
 70
     1
 43
0.0
 10
106.6283489612883
 20
616.2775565279686
 42
-1.0
 10
102.6283489612883
 20
616.2775565279686
 42
-1.0
  0
LWPOLYLINE
  5
E0
330
2
100
AcDbEntity
  8
0
100
AcDbPolyline
 90
       78
 70
     1
 43
0.0
 10
158.4689693948548
 20
625.3572463085417
 10
104.6283489612878
 20
625.3572463085417
 42
0.4142135623730951
 10
95.54834896128795
 20
616.2772463085417
 10
95.54834896128795
 20
598.3569360917583
 42
0.4142135623730951
 10
97.54834896128796
 20
596.3569360917585
 10
101.5483489612879
 20
596.3569360917585
 42
-1.0
 10
101.5483489612879
 20
592.3569360917585
 10
97.54834896128796
 20
592.3569360917585
 42
0.4142135623730728
 10
95.54834896128818
 20
590.3569360917587
 10
95.54834896128658
 20
572.4372463085427
 42
0.4142235577338698
 10
104.6286588269612
 20
563.3572463138292
 10
116.5350650346404
 20
563.3572463164823
 42
0.4142135623078301
 10
118.5350650341947
 20
565.3572463164825
 10
118.5350650341947
 20
565.831031456115
 10
115.7774593425724
 20
565.831031456115
 10
115.7774593425724
 20
568.831031456115
 10
118.5350650341947
 20
568.831031456115
 10
118.4960755802403
 20
570.1886450751291
 10
118.3353471728505
 20
571.4407314253437
 10
118.0655905518342
 20
572.6126814362384
 10
117.6995164569998
 20
573.7298860372922
 10
117.2498356281552
 20
574.8177361579839
 10
116.7292588051091
 20
575.9016227277926
 10
116.1504967276698
 20
577.0069366761966
 10
115.5262601356452
 20
578.1590689326775
 10
114.8692599890956
 20
579.3834096799462
 10
114.1938821538056
 20
580.6996703102345
 10
113.520220306802
 20
582.1082098046772
 10
112.8695829190401
 20
583.6052683691868
 10
112.2632784614757
 20
585.1870862096745
 10
111.722615405064
 20
586.8499035320517
 10
111.268902220761
 20
588.5899605422301
 10
110.9234473795222
 20
590.4034974461215
 10
110.7077990667235
 20
592.286642933103
 10
110.6472846988404
 20
594.2337675723977
 10
110.7702426017586
 20
596.2378412407655
 10
111.1050946589012
 20
598.2917949435162
 10
111.6802627536917
 20
600.3885596859601
 10
112.5241687695543
 20
602.5210664734069
 10
113.6652345899134
 20
604.6822463111692
 42
-0.5773502691902276
 10
149.4320837662293
 20
604.6822463111692
 10
150.5731495865884
 20
602.5210664734069
 10
151.417055602451
 20
600.3885596859601
 10
151.9922236972415
 20
598.2917949435162
 10
152.3270757543842
 20
596.2378412407655
 10
152.4500336573023
 20
594.2337675723977
 10
152.3895192894192
 20
592.286642933103
 10
152.1738709766205
 20
590.4034974461215
 10
151.8284161353816
 20
588.5899605422301
 10
151.3747029510786
 20
586.8499035320517
 10
150.834039894667
 20
585.1870862096745
 10
150.2277354371026
 20
583.6052683691868
 10
149.5770980493408
 20
582.1082098046773
 10
148.9034362023371
 20
580.6996703102341
 10
148.2280583670472
 20
579.3834096799465
 10
147.5710582204973
 20
578.1590689326777
 10
146.946821628473
 20
577.0069366761967
 10
146.3680595510337
 20
575.9016227277925
 10
145.8474827279874
 20
574.8177361579839
 10
145.3978018991429
 20
573.7298860372922
 10
145.0317278043085
 20
572.6126814362384
 10
144.7619711832922
 20
571.4407314253437
 10
144.6012427759024
 20
570.1886450751291
 10
144.562253321948
 20
568.831031456115
 10
147.3198590135703
 20
568.831031456115
 10
147.3198590135703
 20
565.831031456115
 10
144.562253321948
 20
565.831031456115
 10
144.562253321948
 20
565.3572463164825
 42
0.4142135623078323
 10
146.5622533215023
 20
563.3572463164823
 10
158.4692792598223
 20
563.3572463138292
 42
0.4142035671058615
 10
167.5489693948563
 20
572.4372463085424
 10
167.5489693948552
 20
590.3569360917587
 42
0.4142135623730784
 10
165.5489693948552
 20
592.3569360917587
 10
161.5489693948553
 20
592.3569360917585
 42
-1.0
 10
161.5489693948553
 20
596.3569360917585
 10
165.5489693948548
 20
596.3569360917585
 42
0.4142135623730951
 10
167.5489693948548
 20
598.3569360917583
 10
167.5489693948548
 20
616.2772463085417
 42
0.4142135623730951
  0
POLYLINE
  5
E1
330
2
100
AcDbEntity
  8
0
 62
   139
370
     0
100
AcDb2dPolyline
 66
     1
 10
0.0
 20
0.0
 30
0.0
  0
VERTEX
  5
E2
330
E1
100
AcDbEntity
  8
0
 62
   139
370
     0
100
AcDbVertex
100
AcDb2dVertex
 10
99.95539386612746
 20
582.6679577471629
 30
0.0
  0
VERTEX
  5
E3
330
E1
100
AcDbEntity
  8
0
 62
   139
370
     0
100
AcDbVertex
100
AcDb2dVertex
 10
100.9064509471186
 20
580.1682198788824
 30
0.0
  0
VERTEX
  5
E4
330
E1
100
AcDbEntity
  8
0
 62
   139
370
     0
100
AcDbVertex
100
AcDb2dVertex
 10
101.8596500485623
 20
582.6679577471629
 30
0.0
  0
SEQEND
  5
E5
330
E1
100
AcDbEntity
  8
0
 62
   139
370
     0
  0
POLYLINE
  5
E6
330
2
100
AcDbEntity
  8
0
 62
   139
370
     0
100
AcDb2dPolyline
 66
     1
 10
0.0
 20
0.0
 30
0.0
  0
VERTEX
  5
E7
330
E6
100
AcDbEntity
  8
0
 62
   139
370
     0
100
AcDbVertex
100
AcDb2dVertex
 10
102.3351785890577
 20
582.1924292066673
 30
0.0
  0
VERTEX
  5
E8
330
E6
100
AcDbEntity
  8
0
 62
   139
370
     0
100
AcDbVertex
100
AcDb2dVertex
 10
102.5729428593054
 20
582.3102403315647
 30
0.0
  0
VERTEX
  5
E9
330
E6
100
AcDbEntity
  8
0
 62
   139
370
     0
100
AcDbVertex
100
AcDb2dVertex
 10
102.9306602749034
 20
582.6679577471629
 30
0.0
  0
VERTEX
  5
EA
330
E6
100
AcDbEntity
  8
0
 62
   139
370
     0
100
AcDbVertex
100
AcDb2dVertex
 10
102.9306602749034
 20
580.1682198788824
 30
0.0
  0
SEQEND
  5
EB
330
E6
100
AcDbEntity
  8
0
 62
   139
370
     0
  0
POLYLINE
  5
EC
330
2
100
AcDbEntity
  8
0
 62
   139
370
     0
100
AcDb2dPolyline
 66
     1
 10
0.0
 20
0.0
 30
0.0
  0
VERTEX
  5
ED
330
EC
100
AcDbEntity
  8
0
 62
   139
370
     0
100
AcDbVertex
100
AcDb2dVertex
 10
104.2394347714926
 20
581.2392301052234
 30
0.0
  0
VERTEX
  5
EE
330
EC
100
AcDbEntity
  8
0
 62
   139
370
     0
100
AcDbVertex
100
AcDb2dVertex
 10
105.430398143184
 20
581.2392301052234
 30
0.0
  0
SEQEND
  5
EF
330
EC
100
AcDbEntity
  8
0
 62
   139
370
     0
  0
POLYLINE
  5
F0
330
2
100
AcDbEntity
  8
0
 62
   139
370
     0
100
AcDb2dPolyline
 66
     1
 10
0.0
 20
0.0
 30
0.0
  0
VERTEX
  5
F1
330
F0
100
AcDbEntity
  8
0
 62
   139
370
     0
100
AcDbVertex
100
AcDb2dVertex
 10
107.8101828661142
 20
582.6679577471629
 30
0.0
  0
VERTEX
  5
F2
330
F0
100
AcDbEntity
  8
0
 62
   139
370
     0
100
AcDbVertex
100
AcDb2dVertex
 10
106.6192194944228
 20
582.6679577471629
 30
0.0
  0
VERTEX
  5
F3
330
F0
100
AcDbEntity
  8
0
 62
   139
370
     0
100
AcDbVertex
100
AcDb2dVertex
 10
106.5014083695255
 20
581.5969475208215
 30
0.0
  0
VERTEX
  5
F4
330
F0
100
AcDbEntity
  8
0
 62
   139
370
     0
100
AcDbVertex
100
AcDb2dVertex
 10
106.6192194944228
 20
581.7169006661717
 30
0.0
  0
VERTEX
  5
F5
330
F0
100
AcDbEntity
  8
0
 62
   139
370
     0
100
AcDbVertex
100
AcDb2dVertex
 10
106.9769369100209
 20
581.8347117910693
 30
0.0
  0
VERTEX
  5
F6
330
F0
100
AcDbEntity
  8
0
 62
   139
370
     0
100
AcDbVertex
100
AcDb2dVertex
 10
107.3346543256189
 20
581.8347117910693
 30
0.0
  0
VERTEX
  5
F7
330
F0
100
AcDbEntity
  8
0
 62
   139
370
     0
100
AcDbVertex
100
AcDb2dVertex
 10
107.6902297207639
 20
581.7169006661717
 30
0.0
  0
VERTEX
  5
F8
330
F0
100
AcDbEntity
  8
0
 62
   139
370
     0
100
AcDbVertex
100
AcDb2dVertex
 10
107.927993991012
 20
581.4769943754713
 30
0.0
  0
VERTEX
  5
F9
330
F0
100
AcDbEntity
  8
0
 62
   139
370
     0
100
AcDbVertex
100
AcDb2dVertex
 10
108.0479471363619
 20
581.1214189803262
 30
0.0
  0
VERTEX
  5
FA
330
F0
100
AcDbEntity
  8
0
 62
   139
370
     0
100
AcDbVertex
100
AcDb2dVertex
 10
108.0479471363619
 20
580.8836547100782
 30
0.0
  0
VERTEX
  5
FB
330
F0
100
AcDbEntity
  8
0
 62
   139
370
     0
100
AcDbVertex
100
AcDb2dVertex
 10
107.927993991012
 20
580.5259372944802
 30
0.0
  0
VERTEX
  5
FC
330
F0
100
AcDbEntity
  8
0
 62
   139
370
     0
100
AcDbVertex
100
AcDb2dVertex
 10
107.6902297207639
 20
580.2881730242326
 30
0.0
  0
VERTEX
  5
FD
330
F0
100
AcDbEntity
  8
0
 62
   139
370
     0
100
AcDbVertex
100
AcDb2dVertex
 10
107.3346543256189
 20
580.1682198788824
 30
0.0
  0
VERTEX
  5
FE
330
F0
100
AcDbEntity
  8
0
 62
   139
370
     0
100
AcDbVertex
100
AcDb2dVertex
 10
106.9769369100209
 20
580.1682198788824
 30
0.0
  0
VERTEX
  5
FF
330
F0
100
AcDbEntity
  8
0
 62
   139
370
     0
100
AcDbVertex
100
AcDb2dVertex
 10
106.6192194944228
 20
580.2881730242326
 30
0.0
  0
VERTEX
  5
100
330
F0
100
AcDbEntity
  8
0
 62
   139
370
     0
100
AcDbVertex
100
AcDb2dVertex
 10
106.5014083695255
 20
580.4059841491302
 30
0.0
  0
VERTEX
  5
101
330
F0
100
AcDbEntity
  8
0
 62
   139
370
     0
100
AcDbVertex
100
AcDb2dVertex
 10
106.3814552241751
 20
580.6437484193777
 30
0.0
  0
SEQEND
  5
102
330
F0
100
AcDbEntity
  8
0
 62
   139
370
     0
  0
CIRCLE
  5
103
330
2
100
AcDbEntity
  8
0
100
AcDbCircle
 10
38.02003915955278
 20
594.3569360917589
 30
0.0
 40
16.5
  0
LINE
  5
104
330
2
100
AcDbEntity
  8
0
100
AcDbLine
 10
74.02034937633756
 20
525.2069360944029
 30
0.0
 11
74.02034937633756
 21
525.2069360944029
 31
0.0
  0
CIRCLE
  5
105
330
2
100
AcDbEntity
  8
0
100
AcDbCircle
 10
11.01972894276481
 20
525.2069360944029
 30
0.0
 40
2.0
  0
CIRCLE
  5
106
330
2
100
AcDbEntity
  8
0
100
AcDbCircle
 10
65.02034937634029
 20
525.2069360944029
 30
0.0
 40
2.0
  0
CIRCLE
  5
107
330
2
100
AcDbEntity
  8
0
100
AcDbCircle
 10
11.09972894276974
 20
616.2772463085429
 30
0.0
 40
1.75
  0
CIRCLE
  5
108
330
2
100
AcDbEntity
  8
0
100
AcDbCircle
 10
64.94034937633582
 20
616.2772463085429
 30
0.0
 40
1.75
  0
CIRCLE
  5
109
330
2
100
AcDbEntity
  8
0
100
AcDbCircle
 10
11.09972894276974
 20
572.4366258749756
 30
0.0
 40
1.75
  0
CIRCLE
  5
10A
330
2
100
AcDbEntity
  8
0
100
AcDbCircle
 10
64.94034937633582
 20
572.4366258749756
 30
0.0
 40
1.75
  0
ARC
  5
10B
330
2
100
AcDbEntity
  8
0
100
AcDbCircle
 10
64.94034937633582
 20
616.2772463085429
 30
0.0
 40
9.079999999999927
100
AcDbArc
 50
0.0
 51
90.0
  0
LINE
  5
10C
330
2
100
AcDbEntity
  8
0
100
AcDbLine
 10
64.94034937633582
 20
625.3572463085417
 30
0.0
 11
11.09972894276974
 21
625.3572463085417
 31
0.0
  0
ARC
  5
10D
330
2
100
AcDbEntity
  8
0
100
AcDbCircle
 10
11.09972894276974
 20
616.2772463085429
 30
0.0
 40
9.079999999999927
100
AcDbArc
 50
90.0
 51
180.0
  0
LINE
  5
10E
330
2
100
AcDbEntity
  8
0
100
AcDbLine
 10
2.019728942768904
 20
616.2772463085429
 30
0.0
 11
2.019728942768904
 21
598.3569360917589
 31
0.0
  0
ARC
  5
10F
330
2
100
AcDbEntity
  8
0
100
AcDbCircle
 10
4.019728942768904
 20
598.3569360917589
 30
0.0
 40
2.0
100
AcDbArc
 50
180.0
 51
270.0
  0
LINE
  5
110
330
2
100
AcDbEntity
  8
0
100
AcDbLine
 10
4.019728942768904
 20
596.3569360917589
 30
0.0
 11
8.019728942768903
 21
596.3569360917589
 31
0.0
  0
ARC
  5
111
330
2
100
AcDbEntity
  8
0
100
AcDbCircle
 10
8.019728942768903
 20
594.3569360917589
 30
0.0
 40
2.0
100
AcDbArc
 50
270.0
 51
90.0
  0
LINE
  5
112
330
2
100
AcDbEntity
  8
0
100
AcDbLine
 10
8.019728942768903
 20
592.3569360917589
 30
0.0
 11
4.019728942768904
 21
592.3569360917589
 31
0.0
  0
ARC
  5
113
330
2
100
AcDbEntity
  8
0
100
AcDbCircle
 10
4.019728942768904
 20
590.3569360917589
 30
0.0
 40
2.0
100
AcDbArc
 50
90.0
 51
180.0
  0
LINE
  5
114
330
2
100
AcDbEntity
  8
0
100
AcDbLine
 10
2.019728942768904
 20
590.3569360917589
 30
0.0
 11
2.019728942765721
 21
525.2072463138298
 31
0.0
  0
ARC
  5
115
330
2
100
AcDbEntity
  8
0
100
AcDbCircle
 10
11.01972894276481
 20
525.2072463138298
 30
0.0
 40
9.0
100
AcDbArc
 50
180.0
 51
270.0
  0
LINE
  5
116
330
2
100
AcDbEntity
  8
0
100
AcDbLine
 10
11.01972894276481
 20
516.2072463138298
 30
0.0
 11
65.02034937633665
 21
516.2072463138298
 31
0.0
  0
ARC
  5
117
330
2
100
AcDbEntity
  8
0
100
AcDbCircle
 10
65.02034937633665
 20
525.2072463138298
 30
0.0
 40
9.0
100
AcDbArc
 50
270.0
 51
0.0
  0
LINE
  5
118
330
2
100
AcDbEntity
  8
0
100
AcDbLine
 10
74.02034937633756
 20
525.2072463138298
 30
0.0
 11
74.02034937633665
 21
590.3569360917589
 31
0.0
  0
ARC
  5
119
330
2
100
AcDbEntity
  8
0
100
AcDbCircle
 10
72.02034937633666
 20
590.3569360917589
 30
0.0
 40
2.0
100
AcDbArc
 50
0.0
 51
90.0
  0
LINE
  5
11A
330
2
100
AcDbEntity
  8
0
100
AcDbLine
 10
72.02034937633666
 20
592.3569360917589
 30
0.0
 11
68.02034937633665
 21
592.3569360917589
 31
0.0
  0
ARC
  5
11B
330
2
100
AcDbEntity
  8
0
100
AcDbCircle
 10
68.02034937633665
 20
594.3569360917589
 30
0.0
 40
2.0
100
AcDbArc
 50
90.0
 51
270.0
  0
LINE
  5
11C
330
2
100
AcDbEntity
  8
0
100
AcDbLine
 10
68.02034937633665
 20
596.3569360917589
 30
0.0
 11
72.02034937633574
 21
596.3569360917589
 31
0.0
  0
ARC
  5
11D
330
2
100
AcDbEntity
  8
0
100
AcDbCircle
 10
72.02034937633574
 20
598.3569360917589
 30
0.0
 40
2.0
100
AcDbArc
 50
270.0
 51
0.0
  0
LINE
  5
11E
330
2
100
AcDbEntity
  8
0
100
AcDbLine
 10
74.02034937633574
 20
598.3569360917589
 30
0.0
 11
74.02034937633574
 21
616.2772463085429
 31
0.0
  0
CIRCLE
  5
11F
330
2
100
AcDbEntity
  8
0
100
AcDbCircle
 10
53.52003915955278
 20
578.8569360917589
 30
0.0
 40
1.5
  0
CIRCLE
  5
120
330
2
100
AcDbEntity
  8
0
100
AcDbCircle
 10
53.52003915955278
 20
609.8569360917589
 30
0.0
 40
1.5
  0
CIRCLE
  5
121
330
2
100
AcDbEntity
  8
0
100
AcDbCircle
 10
22.52003915955278
 20
609.8569360917589
 30
0.0
 40
1.5
  0
CIRCLE
  5
122
330
2
100
AcDbEntity
  8
0
100
AcDbCircle
 10
22.52003915955278
 20
578.8569360917598
 30
0.0
 40
1.5
  0
LWPOLYLINE
  5
123
330
2
100
AcDbEntity
  8
0
100
AcDbPolyline
 90
        4
 70
     1
 43
0.0
 10
32.26405070729028
 20
568.8307212366886
 10
23.74883932405158
 20
568.8307212366886
 10
23.74883932405158
 20
565.8307212366886
 10
32.26405070729028
 20
565.8307212366886
  0
LWPOLYLINE
  5
124
330
2
100
AcDbEntity
  8
0
100
AcDbPolyline
 90
        4
 70
     1
 43
0.0
 10
43.77602761181482
 20
568.8307212366886
 10
52.29123899505352
 20
568.8307212366886
 10
52.29123899505352
 20
565.8307212366886
 10
43.77602761181482
 20
565.8307212366886
  0
CIRCLE
  5
125
330
2
100
AcDbEntity
  8
0
100
AcDbCircle
 10
236.8511969503379
 20
594.3575565306121
 30
0.0
 40
16.5
  0
LWPOLYLINE
  5
126
330
2
100
AcDbEntity
  8
0
100
AcDbPolyline
 90
       20
 70
     1
 43
0.0
 10
272.8515071671209
 20
616.2775565279684
 42
0.4142135623730951
 10
263.7715071671209
 20
625.3575565279683
 10
209.9308867335549
 20
625.3575565279683
 42
0.4142135623730951
 10
200.850886733554
 20
616.2775565279684
 10
200.850886733554
 20
598.3572463111851
 42
0.4142135623730951
 10
202.850886733554
 20
596.3572463111851
 10
206.850886733554
 20
596.3572463111851
 42
-1.0
 10
206.850886733554
 20
592.3572463111851
 10
202.850886733554
 20
592.3572463111851
 42
0.4142135623730749
 10
200.850886733554
 20
590.3572463111851
 10
200.8508867335527
 20
572.4375565279693
 42
0.4142235577143368
 10
209.9311965986217
 20
563.3575565332563
 10
263.7718170321918
 20
563.3575565332563
 42
0.4142035671025389
 10
272.8515071671227
 20
572.4375565279693
 10
272.8515071671218
 20
590.3572463111851
 42
0.4142135623730753
 10
270.8515071671218
 20
592.3572463111851
 10
266.8515071671218
 20
592.3572463111851
 42
-1.0
 10
266.8515071671218
 20
596.3572463111851
 10
270.8515071671209
 20
596.3572463111851
 42
0.4142135623730951
 10
272.8515071671209
 20
598.3572463111851
  0
CIRCLE
  5
127
330
2
100
AcDbEntity
  8
0
100
AcDbCircle
 10
263.7715071671209
 20
616.2778667473964
 30
0.0
 40
3.5
  0
CIRCLE
  5
128
330
2
100
AcDbEntity
  8
0
100
AcDbCircle
 10
209.9308867335549
 20
616.2778667473964
 30
0.0
 40
3.5
  0
CIRCLE
  5
129
330
2
100
AcDbEntity
  8
0
100
AcDbCircle
 10
209.9308867335549
 20
572.4372463138291
 30
0.0
 40
3.5
  0
CIRCLE
  5
12A
330
2
100
AcDbEntity
  8
0
100
AcDbCircle
 10
263.7715071671209
 20
572.4372463138291
 30
0.0
 40
3.5
  0
LWPOLYLINE
  5
12B
330
2
100
AcDbEntity
  8
0
100
AcDbPolyline
 90
        4
 70
     1
 43
0.0
 10
231.0952084980754
 20
568.8313416755421
 10
222.5799971148367
 20
568.8313416755421
 10
222.5799971148367
 20
565.8313416755421
 10
231.0952084980754
 20
565.8313416755421
  0
LWPOLYLINE
  5
12C
330
2
100
AcDbEntity
  8
0
100
AcDbPolyline
 90
        4
 70
     1
 43
0.0
 10
242.6071854026
 20
568.8313416755421
 10
251.1223967858386
 20
568.8313416755421
 10
251.1223967858386
 20
565.8313416755421
 10
242.6071854026
 20
565.8313416755421
  0
LWPOLYLINE
  5
12D
330
2
100
AcDbEntity
  8
0
100
AcDbPolyline
 90
       64
 70
     1
 43
0.0
 10
231.0955183631472
 20
558.0004413998408
 10
222.5803069799085
 20
558.0004413998408
 10
222.5803069799085
 20
555.0004413998408
 10
221.0803069799085
 20
555.0004413998408
 10
221.0803069799085
 20
551.0004413998396
 10
224.2343592809357
 20
551.0004413998396
 42
0.1989123673797956
 10
224.1611359762323
 20
551.1772180951368
 10
223.9663573261145
 20
551.3719967452548
 42
-0.2516534781385659
 10
223.8981541441276
 20
551.5986218078876
 42
-0.0962758983517508
 10
224.3362120588485
 20
552.6561871667126
 42
-0.2516534781393618
 10
224.5446871099057
 20
552.7682083528068
 10
224.8201457185623
 20
552.7682083528056
 42
0.4142135623735785
 10
225.0701457185623
 20
553.0182083528057
 10
225.0701457185623
 20
553.2936669614639
 42
-0.2516534781388446
 10
225.1821669046567
 20
553.5021420125199
 42
-0.0962758983518181
 10
226.2397322634806
 20
553.9401999272406
 42
-0.2516534781388384
 10
226.4663573261145
 20
553.8719967452548
 10
226.6611359762323
 20
553.6772180951368
 42
0.4142135623730949
 10
227.0146893668257
 20
553.6772180951368
 10
227.2094680169434
 20
553.8719967452548
 42
-0.2516534781387805
 10
227.4360930795774
 20
553.9401999272406
 42
-0.0962758983517742
 10
228.4936584384018
 20
553.5021420125208
 42
-0.2516534781388406
 10
228.6056796244956
 20
553.2936669614639
 10
228.6056796244956
 20
553.0182083528067
 42
0.4142135623730951
 10
228.8556796244956
 20
552.7682083528068
 10
229.1311382331528
 20
552.7682083528068
 42
-0.2516534781388268
 10
229.3396132842085
 20
552.6561871667126
 42
-0.0962758983518138
 10
229.7776711989295
 20
551.5986218078876
 42
-0.2516534781390638
 10
229.7094680169425
 20
551.3719967452536
 10
229.5146893668257
 20
551.1772180951368
 42
0.1989123673806894
 10
229.4414660621228
 20
551.0004413998396
 10
244.2615475686916
 20
551.0004413998408
 42
0.1989123673802466
 10
244.1883242639883
 20
551.1772180951368
 10
243.9935456138705
 20
551.3719967452536
 42
-0.2516534781390574
 10
243.9253424318844
 20
551.5986218078876
 42
-0.0962758983518224
 10
244.3634003466058
 20
552.6561871667126
 42
-0.251653478138825
 10
244.5718753976616
 20
552.7682083528068
 10
244.8473340063183
 20
552.7682083528068
 42
0.4142135623730951
 10
245.0973340063192
 20
553.0182083528067
 10
245.0973340063192
 20
553.2936669614639
 42
-0.251653478138963
 10
245.2093551924126
 20
553.5021420125208
 42
-0.0962758983517811
 10
246.2669205512366
 20
553.9401999272406
 42
-0.2516534781387287
 10
246.4935456138705
 20
553.8719967452548
 10
246.6883242639883
 20
553.6772180951368
 42
0.4142135623730975
 10
247.0418776545816
 20
553.6772180951368
 10
247.2366563046994
 20
553.8719967452548
 42
-0.251653478138858
 10
247.4632813673333
 20
553.9401999272406
 42
-0.0962758983518277
 10
248.5208467261564
 20
553.5021420125199
 42
-0.2516534781387323
 10
248.6328679122516
 20
553.2936669614639
 10
248.6328679122516
 20
553.0182083528057
 42
0.4142135623735779
 10
248.8828679122516
 20
552.7682083528056
 10
249.1583265209087
 20
552.7682083528068
 42
-0.2516534781392721
 10
249.3668015719654
 20
552.6561871667126
 42
-0.0962758983517274
 10
249.8048594866855
 20
551.5986218078888
 42
-0.2516534781386081
 10
249.7366563046994
 20
551.3719967452548
 10
249.5418776545816
 20
551.1772180951368
 42
0.1989123673797841
 10
249.4686543498787
 20
551.0004413998396
 10
252.6227066509054
 20
551.0004413998396
 10
252.6227066509054
 20
555.0004413998408
 10
251.1227066509054
 20
555.0004413998408
 10
251.1227066509054
 20
558.0004413998408
 10
242.6074952676663
 20
558.0004413998408
 10
242.6074952676663
 20
555.0004413998396
 10
231.0955183631472
 20
555.0004413998408
  0
LWPOLYLINE
  5
12E
330
2
100
AcDbEntity
  8
0
100
AcDbPolyline
 90
       64
 70
     1
 43
0.0
 10
231.0955183631472
 20
540.7608838101639
 10
222.5803069799085
 20
540.7608838101639
 10
222.5803069799085
 20
543.7608838101628
 10
221.0803069799085
 20
543.7608838101628
 10
221.0803069799085
 20
547.7608838101639
 10
224.2343592809357
 20
547.7608838101639
 42
-0.1989123673797956
 10
224.1611359762323
 20
547.5841071148668
 10
223.9663573261145
 20
547.3893284647488
 42
0.2516534781385659
 10
223.8981541441276
 20
547.1627034021158
 42
0.0962758983517508
 10
224.3362120588485
 20
546.1051380432909
 42
0.2516534781393618
 10
224.5446871099057
 20
545.9931168571968
 10
224.8201457185623
 20
545.9931168571976
 42
-0.4142135623735785
 10
225.0701457185623
 20
545.7431168571977
 10
225.0701457185623
 20
545.4676582485408
 42
0.2516534781388446
 10
225.1821669046567
 20
545.2591831974837
 42
0.0962758983518181
 10
226.2397322634806
 20
544.8211252827627
 42
0.2516534781388384
 10
226.4663573261145
 20
544.8893284647497
 10
226.6611359762323
 20
545.0841071148667
 42
-0.4142135623730949
 10
227.0146893668257
 20
545.0841071148667
 10
227.2094680169434
 20
544.8893284647497
 42
0.2516534781387805
 10
227.4360930795774
 20
544.8211252827627
 42
0.0962758983517742
 10
228.4936584384018
 20
545.2591831974827
 42
0.2516534781388406
 10
228.6056796244956
 20
545.4676582485396
 10
228.6056796244956
 20
545.7431168571968
 42
-0.4142135623730951
 10
228.8556796244956
 20
545.9931168571968
 10
229.1311382331528
 20
545.9931168571968
 42
0.2516534781388268
 10
229.3396132842085
 20
546.1051380432909
 42
0.0962758983518138
 10
229.7776711989295
 20
547.1627034021158
 42
0.2516534781390638
 10
229.7094680169425
 20
547.3893284647497
 10
229.5146893668257
 20
547.5841071148668
 42
-0.1989123673806894
 10
229.4414660621228
 20
547.7608838101639
 10
244.2615475686916
 20
547.7608838101628
 42
-0.1989123673802466
 10
244.1883242639883
 20
547.5841071148668
 10
243.9935456138705
 20
547.3893284647497
 42
0.2516534781390574
 10
243.9253424318844
 20
547.1627034021158
 42
0.0962758983518224
 10
244.3634003466058
 20
546.1051380432909
 42
0.251653478138825
 10
244.5718753976616
 20
545.9931168571968
 10
244.8473340063183
 20
545.9931168571968
 42
-0.4142135623730951
 10
245.0973340063192
 20
545.7431168571968
 10
245.0973340063192
 20
545.4676582485396
 42
0.251653478138963
 10
245.2093551924126
 20
545.2591831974827
 42
0.0962758983517811
 10
246.2669205512366
 20
544.8211252827627
 42
0.2516534781387287
 10
246.4935456138705
 20
544.8893284647497
 10
246.6883242639883
 20
545.0841071148667
 42
-0.4142135623730975
 10
247.0418776545816
 20
545.0841071148667
 10
247.2366563046994
 20
544.8893284647497
 42
0.251653478138858
 10
247.4632813673333
 20
544.8211252827627
 42
0.0962758983518277
 10
248.5208467261564
 20
545.2591831974837
 42
0.2516534781387323
 10
248.6328679122516
 20
545.4676582485408
 10
248.6328679122516
 20
545.7431168571977
 42
-0.4142135623735779
 10
248.8828679122516
 20
545.9931168571976
 10
249.1583265209087
 20
545.9931168571968
 42
0.2516534781392721
 10
249.3668015719654
 20
546.1051380432909
 42
0.0962758983517274
 10
249.8048594866855
 20
547.1627034021148
 42
0.2516534781386081
 10
249.7366563046994
 20
547.3893284647488
 10
249.5418776545816
 20
547.5841071148668
 42
-0.1989123673797841
 10
249.4686543498787
 20
547.7608838101639
 10
252.6227066509054
 20
547.7608838101639
 10
252.6227066509054
 20
543.7608838101628
 10
251.1227066509054
 20
543.7608838101628
 10
251.1227066509054
 20
540.7608838101639
 10
242.6074952676663
 20
540.7608838101639
 10
242.6074952676663
 20
543.7608838101639
 10
231.0955183631472
 20
543.7608838101628
  0
ENDSEC
  0
SECTION
  2
OBJECTS
  0
DICTIONARY
  5
C
330
0
100
AcDbDictionary
281
     1
  3
ACAD_COLOR
350
4D
  3
ACAD_GROUP
350
42
  3
ACAD_LAYOUT
350
21
  3
ACAD_MATERIAL
350
E
  3
ACAD_MLEADERSTYLE
350
50
  3
ACAD_MLINESTYLE
350
43
  3
ACAD_PLOTSETTINGS
350
44
  3
ACAD_PLOTSTYLENAME
350
B
  3
ACAD_SCALELIST
350
4E
  3
ACAD_TABLESTYLE
350
4F
  3
ACAD_VISUALSTYLE
350
3B
  3
ACDB_RECOMPOSE_DATA
350
13C
  3
AcDbVariableDictionary
350
131
  0
DICTIONARY
  5
2C
330
2B
100
AcDbDictionary
280
     1
281
     1
  3
ACAD_LAYERFILTERS
360
2D
  3
ACAD_LAYERSTATES
360
2E
  0
DICTIONARY
  5
8
330
7
100
AcDbDictionary
280
     1
281
     1
  3
ADSK_XREC_LAYER_RECONCILED
360
9
  0
DICTIONARY
  5
C7
330
C6
100
AcDbDictionary
280
     1
281
     1
  3
ADSK_XREC_LAYER_RECONCILED
360
C8
  0
DICTIONARY
  5
3
330
2
100
AcDbDictionary
280
     1
281
     1
  3
ACAD_ASSOCNETWORK
360
4
  3
ACAD_SORTENTS
360
12F
  0
DICTIONARY
  5
4D
102
{ACAD_REACTORS
330
C
102
}
330
C
100
AcDbDictionary
281
     1
  0
DICTIONARY
  5
42
102
{ACAD_REACTORS
330
C
102
}
330
C
100
AcDbDictionary
281
     1
  0
DICTIONARY
  5
21
102
{ACAD_REACTORS
330
C
102
}
330
C
100
AcDbDictionary
281
     1
  3
Landscape
350
27
  3
Model
350
20
  0
DICTIONARY
  5
E
102
{ACAD_REACTORS
330
C
102
}
330
C
100
AcDbDictionary
281
     1
  3
ByBlock
350
45
  3
ByLayer
350
17
  3
Global
350
D
  0
DICTIONARY
  5
50
102
{ACAD_REACTORS
330
C
102
}
330
C
100
AcDbDictionary
281
     1
  0
DICTIONARY
  5
43
102
{ACAD_REACTORS
330
C
102
}
330
C
100
AcDbDictionary
281
     1
  3
Standard
350
52
  0
DICTIONARY
  5
44
102
{ACAD_REACTORS
330
C
102
}
330
C
100
AcDbDictionary
281
     1
  0
ACDBDICTIONARYWDFLT
  5
B
102
{ACAD_REACTORS
330
C
102
}
330
C
100
AcDbDictionary
281
     1
  3
Normal
350
A
100
AcDbDictionaryWithDefault
340
A
  0
DICTIONARY
  5
4E
102
{ACAD_REACTORS
330
C
102
}
330
C
100
AcDbDictionary
281
     1
  3
A0
350
57
  3
A1
350
58
  3
A2
350
59
  3
A3
350
5A
  3
A4
350
5B
  3
A5
350
5C
  3
A6
350
5D
  3
A7
350
5E
  3
A8
350
5F
  3
A9
350
60
  3
B0
350
61
  3
B1
350
62
  3
B2
350
63
  3
B3
350
64
  3
B4
350
65
  3
B5
350
66
  3
B6
350
67
  0
DICTIONARY
  5
4F
102
{ACAD_REACTORS
330
C
102
}
330
C
100
AcDbDictionary
281
     1
  3
Standard
350
53
  0
DICTIONARY
  5
3B
102
{ACAD_REACTORS
330
C
102
}
330
C
100
AcDbDictionary
281
     1
  3
2dWireframe
350
3A
  3
Realistic
350
55
  3
Wireframe
350
56
  0
XRECORD
  5
13C
102
{ACAD_REACTORS
330
C
102
}
330
C
100
AcDbXrecord
280
     1
 90
        1
330
53
  0
DICTIONARY
  5
131
102
{ACAD_REACTORS
330
C
102
}
330
C
100
AcDbDictionary
281
     1
  3
CANNOSCALE
350
137
  3
CMLEADERSTYLE
350
133
  3
CTABLESTYLE
350
132
  3
CVIEWDETAILSTYLE
350
134
  3
CVIEWSECTIONSTYLE
350
135
  3
LAYEREVAL
350
139
  3
LAYERNOTIFY
350
13A
  3
LIGHTINGUNITS
350
138
  3
MSLTSCALE
350
136
  0
DICTIONARY
  5
2D
102
{ACAD_REACTORS
330
2C
102
}
330
2C
100
AcDbDictionary
281
     1
  0
DICTIONARY
  5
2E
102
{ACAD_REACTORS
330
2C
102
}
330
2C
100
AcDbDictionary
281
     1
  0
XRECORD
  5
9
102
{ACAD_REACTORS
330
8
102
}
330
8
100
AcDbXrecord
280
     1
290
     1
  0
XRECORD
  5
C8
102
{ACAD_REACTORS
330
C7
102
}
330
C7
100
AcDbXrecord
280
     1
290
     1
  0
DICTIONARY
  5
4
102
{ACAD_REACTORS
330
3
102
}
330
3
100
AcDbDictionary
281
     1
  0
SORTENTSTABLE
  5
12F
102
{ACAD_REACTORS
330
3
102
}
330
3
100
AcDbSortentsTable
330
2
  0
LAYOUT
  5
27
102
{ACAD_XDICTIONARY
360
28
102
}
102
{ACAD_REACTORS
330
21
102
}
330
21
100
AcDbPlotSettings
  1

  2
Microsoft Print to PDF.pc3
  4
A4
  6

 40
3.174999952316283
 41
3.174999952316283
 42
3.17498779296875
 43
3.175003051757812
 44
297.0106506347656
 45
210.0156707763672
 46
0.0
 47
0.0
 48
0.0
 49
0.0
140
0.0
141
0.0
142
1.0
143
1.0
 70
   688
 72
     1
 73
     0
 74
     5
  7
monochrome.ctb
 75
    16
147
1.0
 76
     1
 77
     3
 78
   600
148
0.0
149
0.0
100
AcDbLayout
  1
Landscape
 70
     0
 71
     1
 10
-3.174999952316283
 20
-3.174999952316283
 11
293.8356506824494
 21
206.8406708240509
 12
0.0
 22
0.0
 32
0.0
 14
0.5548555633881735
 24
0.1673825080200686
 34
-0.0015258207003583
 15
290.5589988370714
 25
202.9855557698479
 35
0.0000000349246037
146
0.0
 13
0.0
 23
0.0
 33
0.0
 16
1.0
 26
0.0
 36
0.0
 17
0.0
 27
1.0
 37
0.0
 76
     0
330
24
1001
ACAD_PSEXT
1000
Microsoft Print to PDF.pc3
1000
Microsoft Print To PDF
1000
PORTPROMPT:
1000

1070
     0
  0
LAYOUT
  5
20
102
{ACAD_XDICTIONARY
360
22
102
}
102
{ACAD_REACTORS
330
21
102
}
330
21
100
AcDbPlotSettings
  1

  2
HP LaserJet 4L
  4
Letter
  6

 40
7.143749713897705
 41
5.027085304260253
 42
7.14373779296875
 43
5.027069091796875
 44
215.8999938964844
 45
279.3999938964844
 46
0.0
 47
0.0
 48
0.0
 49
0.0
140
0.0
141
0.0
142
1.0
143
1.0
 70
 11952
 72
     1
 73
     1
 74
     0
  7

 75
     0
147
1.0
 76
     0
 77
     2
 78
   300
148
-43219.15422176181
149
1998.377131679037
100
AcDbLayout
  1
Model
 70
     1
 71
     0
 10
0.0
 20
0.0
 11
12.0
 21
9.0
 12
0.0
 22
0.0
 32
0.0
 14
0.0
 24
0.0
 34
0.0
 15
0.0
 25
0.0
 35
0.0
146
0.0
 13
0.0
 23
0.0
 33
0.0
 16
1.0
 26
0.0
 36
0.0
 17
0.0
 27
1.0
 37
0.0
 76
     0
330
2
331
39
  0
MATERIAL
  5
45
102
{ACAD_XDICTIONARY
360
46
102
}
102
{ACAD_REACTORS
330
E
102
}
330
E
100
AcDbMaterial
  1
ByBlock
 72
     0
 43
0.0008202099737533
 43
0.0
 43
0.0
 43
0.0
 43
0.0
 43
0.0008202099737533
 43
0.0
 43
0.0
 43
0.0
 43
0.0
 43
1.0
 43
0.0
 43
0.0
 43
0.0
 43
0.0
 43
1.0
 77
     0
 47
0.0008202099737533
 47
0.0
 47
0.0
 47
0.0
 47
0.0
 47
0.0008202099737533
 47
0.0
 47
0.0
 47
0.0
 47
0.0
 47
1.0
 47
0.0
 47
0.0
 47
0.0
 47
0.0
 47
1.0
171
     0
 49
0.0008202099737533
 49
0.0
 49
0.0
 49
0.0
 49
0.0
 49
0.0008202099737533
 49
0.0
 49
0.0
 49
0.0
 49
0.0
 49
1.0
 49
0.0
 49
0.0
 49
0.0
 49
0.0
 49
1.0
175
     0
142
0.0008202099737533
142
0.0
142
0.0
142
0.0
142
0.0
142
0.0008202099737533
142
0.0
142
0.0
142
0.0
142
0.0
142
1.0
142
0.0
142
0.0
142
0.0
142
0.0
142
1.0
179
     0
144
0.0008202099737533
144
0.0
144
0.0
144
0.0
144
0.0
144
0.0008202099737533
144
0.0
144
0.0
144
0.0
144
0.0
144
1.0
144
0.0
144
0.0
144
0.0
144
0.0
144
1.0
147
0.0008202099737533
147
0.0
147
0.0
147
0.0
147
0.0
147
0.0008202099737533
147
0.0
147
0.0
147
0.0
147
0.0
147
1.0
147
0.0
147
0.0
147
0.0
147
0.0
147
1.0
  0
MATERIAL
  5
17
102
{ACAD_XDICTIONARY
360
18
102
}
102
{ACAD_REACTORS
330
E
102
}
330
E
100
AcDbMaterial
  1
ByLayer
 72
     0
 43
0.0008202099737533
 43
0.0
 43
0.0
 43
0.0
 43
0.0
 43
0.0008202099737533
 43
0.0
 43
0.0
 43
0.0
 43
0.0
 43
1.0
 43
0.0
 43
0.0
 43
0.0
 43
0.0
 43
1.0
 77
     0
 47
0.0008202099737533
 47
0.0
 47
0.0
 47
0.0
 47
0.0
 47
0.0008202099737533
 47
0.0
 47
0.0
 47
0.0
 47
0.0
 47
1.0
 47
0.0
 47
0.0
 47
0.0
 47
0.0
 47
1.0
171
     0
 49
0.0008202099737533
 49
0.0
 49
0.0
 49
0.0
 49
0.0
 49
0.0008202099737533
 49
0.0
 49
0.0
 49
0.0
 49
0.0
 49
1.0
 49
0.0
 49
0.0
 49
0.0
 49
0.0
 49
1.0
175
     0
142
0.0008202099737533
142
0.0
142
0.0
142
0.0
142
0.0
142
0.0008202099737533
142
0.0
142
0.0
142
0.0
142
0.0
142
1.0
142
0.0
142
0.0
142
0.0
142
0.0
142
1.0
179
     0
144
0.0008202099737533
144
0.0
144
0.0
144
0.0
144
0.0
144
0.0008202099737533
144
0.0
144
0.0
144
0.0
144
0.0
144
1.0
144
0.0
144
0.0
144
0.0
144
0.0
144
1.0
147
0.0008202099737533
147
0.0
147
0.0
147
0.0
147
0.0
147
0.0008202099737533
147
0.0
147
0.0
147
0.0
147
0.0
147
1.0
147
0.0
147
0.0
147
0.0
147
0.0
147
1.0
  0
MATERIAL
  5
D
102
{ACAD_XDICTIONARY
360
F
102
}
102
{ACAD_REACTORS
330
E
102
}
330
E
100
AcDbMaterial
  1
Global
 72
     0
 43
0.0008202099737533
 43
0.0
 43
0.0
 43
0.0
 43
0.0
 43
0.0008202099737533
 43
0.0
 43
0.0
 43
0.0
 43
0.0
 43
1.0
 43
0.0
 43
0.0
 43
0.0
 43
0.0
 43
1.0
 77
     0
 47
0.0008202099737533
 47
0.0
 47
0.0
 47
0.0
 47
0.0
 47
0.0008202099737533
 47
0.0
 47
0.0
 47
0.0
 47
0.0
 47
1.0
 47
0.0
 47
0.0
 47
0.0
 47
0.0
 47
1.0
171
     0
 49
0.0008202099737533
 49
0.0
 49
0.0
 49
0.0
 49
0.0
 49
0.0008202099737533
 49
0.0
 49
0.0
 49
0.0
 49
0.0
 49
1.0
 49
0.0
 49
0.0
 49
0.0
 49
0.0
 49
1.0
175
     0
142
0.0008202099737533
142
0.0
142
0.0
142
0.0
142
0.0
142
0.0008202099737533
142
0.0
142
0.0
142
0.0
142
0.0
142
1.0
142
0.0
142
0.0
142
0.0
142
0.0
142
1.0
179
     0
144
0.0008202099737533
144
0.0
144
0.0
144
0.0
144
0.0
144
0.0008202099737533
144
0.0
144
0.0
144
0.0
144
0.0
144
1.0
144
0.0
144
0.0
144
0.0
144
0.0
144
1.0
147
0.0008202099737533
147
0.0
147
0.0
147
0.0
147
0.0
147
0.0008202099737533
147
0.0
147
0.0
147
0.0
147
0.0
147
1.0
147
0.0
147
0.0
147
0.0
147
0.0
147
1.0
  0
MLINESTYLE
  5
52
102
{ACAD_REACTORS
330
43
102
}
330
43
100
AcDbMlineStyle
  2
STANDARD
 70
     0
  3

 62
   256
 51
90.0
 52
90.0
 71
     2
 49
0.5
 62
   256
  6
BYLAYER
 49
-0.5
 62
   256
  6
BYLAYER
  0
ACDBPLACEHOLDER
  5
A
102
{ACAD_REACTORS
330
B
102
}
330
B
  0
SCALE
  5
57
102
{ACAD_REACTORS
330
4E
102
}
330
4E
100
AcDbScale
 70
     0
300
1:1
140
1.0
141
1.0
290
     1
  0
SCALE
  5
58
102
{ACAD_REACTORS
330
4E
102
}
330
4E
100
AcDbScale
 70
     0
300
1:2
140
1.0
141
2.0
290
     0
  0
SCALE
  5
59
102
{ACAD_REACTORS
330
4E
102
}
330
4E
100
AcDbScale
 70
     0
300
1:4
140
1.0
141
4.0
290
     0
  0
SCALE
  5
5A
102
{ACAD_REACTORS
330
4E
102
}
330
4E
100
AcDbScale
 70
     0
300
1:5
140
1.0
141
5.0
290
     0
  0
SCALE
  5
5B
102
{ACAD_REACTORS
330
4E
102
}
330
4E
100
AcDbScale
 70
     0
300
1:8
140
1.0
141
8.0
290
     0
  0
SCALE
  5
5C
102
{ACAD_REACTORS
330
4E
102
}
330
4E
100
AcDbScale
 70
     0
300
1:10
140
1.0
141
10.0
290
     0
  0
SCALE
  5
5D
102
{ACAD_REACTORS
330
4E
102
}
330
4E
100
AcDbScale
 70
     0
300
1:16
140
1.0
141
16.0
290
     0
  0
SCALE
  5
5E
102
{ACAD_REACTORS
330
4E
102
}
330
4E
100
AcDbScale
 70
     0
300
1:20
140
1.0
141
20.0
290
     0
  0
SCALE
  5
5F
102
{ACAD_REACTORS
330
4E
102
}
330
4E
100
AcDbScale
 70
     0
300
1:30
140
1.0
141
30.0
290
     0
  0
SCALE
  5
60
102
{ACAD_REACTORS
330
4E
102
}
330
4E
100
AcDbScale
 70
     0
300
1:40
140
1.0
141
40.0
290
     0
  0
SCALE
  5
61
102
{ACAD_REACTORS
330
4E
102
}
330
4E
100
AcDbScale
 70
     0
300
1:50
140
1.0
141
50.0
290
     0
  0
SCALE
  5
62
102
{ACAD_REACTORS
330
4E
102
}
330
4E
100
AcDbScale
 70
     0
300
1:100
140
1.0
141
100.0
290
     0
  0
SCALE
  5
63
102
{ACAD_REACTORS
330
4E
102
}
330
4E
100
AcDbScale
 70
     0
300
2:1
140
2.0
141
1.0
290
     0
  0
SCALE
  5
64
102
{ACAD_REACTORS
330
4E
102
}
330
4E
100
AcDbScale
 70
     0
300
4:1
140
4.0
141
1.0
290
     0
  0
SCALE
  5
65
102
{ACAD_REACTORS
330
4E
102
}
330
4E
100
AcDbScale
 70
     0
300
8:1
140
8.0
141
1.0
290
     0
  0
SCALE
  5
66
102
{ACAD_REACTORS
330
4E
102
}
330
4E
100
AcDbScale
 70
     0
300
10:1
140
10.0
141
1.0
290
     0
  0
SCALE
  5
67
102
{ACAD_REACTORS
330
4E
102
}
330
4E
100
AcDbScale
 70
     0
300
100:1
140
100.0
141
1.0
290
     0
  0
TABLESTYLE
  5
53
102
{ACAD_XDICTIONARY
360
54
102
}
102
{ACAD_REACTORS
330
4F
102
}
330
4F
100
AcDbTableStyle
280
     0
  3
Standard
 70
     0
 71
     0
 40
0.06
 41
0.06
280
     0
281
     0
  7
Standard
140
0.18
170
     2
 62
     0
 63
     7
283
     0
 90
        4
 91
        0
  1

274
    -2
284
     1
 64
     0
275
    -2
285
     1
 65
     0
276
    -2
286
     1
 66
     0
277
    -2
287
     1
 67
     0
278
    -2
288
     1
 68
     0
279
    -2
289
     1
 69
     0
  7
Standard
140
0.25
170
     5
 62
     0
 63
     7
283
     0
 90
        4
 91
        0
  1

274
    -2
284
     1
 64
     0
275
    -2
285
     1
 65
     0
276
    -2
286
     1
 66
     0
277
    -2
287
     1
 67
     0
278
    -2
288
     1
 68
     0
279
    -2
289
     1
 69
     0
  7
Standard
140
0.18
170
     5
 62
     0
 63
     7
283
     0
 90
        4
 91
        0
  1

274
    -2
284
     1
 64
     0
275
    -2
285
     1
 65
     0
276
    -2
286
     1
 66
     0
277
    -2
287
     1
 67
     0
278
    -2
288
     1
 68
     0
279
    -2
289
     1
 69
     0
  0
VISUALSTYLE
  5
3A
102
{ACAD_REACTORS
330
3B
102
}
330
3B
100
AcDbVisualStyle
  2
2dWireframe
 70
     4
177
     3
291
     0
 70
    58
 90
        0
176
     1
 90
        2
176
     1
 90
        0
176
     1
 90
        0
176
     1
 40
0.6
176
     1
 40
30.0
176
     1
 62
     7
420
 16777215
176
     1
 90
        1
176
     1
 90
        4
176
     1
 62
     7
176
     1
 62
   257
176
     1
 90
        1
176
     1
 90
        1
176
     1
 40
1.0
176
     1
 90
        0
176
     1
 62
   257
176
     1
 40
1.0
176
     1
 90
        1
176
     1
 90
        6
176
     1
 90
        2
176
     1
 62
     7
176
     1
 90
        5
176
     1
 90
        0
176
     1
 90
        0
176
     1
290
     0
176
     1
 90
        1
176
     1
 40
0.0
176
     1
 90
        0
176
     1
290
     1
176
     1
290
     1
176
     1
290
     0
176
     1
290
     0
176
     1
290
     0
176
     1
290
     0
176
     1
290
     0
176
     1
290
     0
176
     1
290
     0
176
     1
 90
       50
176
     1
 40
0.0
176
     1
 40
1.0
176
     1
 90
        0
176
     1
 62
    18
420
        0
176
     1
 90
       50
176
     1
 90
        3
176
     1
 62
     5
420
      255
176
     1
290
     0
176
     1
 90
       50
176
     1
 90
       50
176
     1
 90
       50
176
     1
290
     0
176
     1
 90
       50
176
     1
 62
   256
176
     0
 40
1.0
176
     0
 90
        2
176
     1
  1
strokes_ogs.tif
176
     1
290
     0
176
     1
 40
1.0
176
     1
 40
1.0
176
     1
  0
VISUALSTYLE
  5
55
102
{ACAD_REACTORS
330
3B
102
}
330
3B
100
AcDbVisualStyle
  2
Realistic
 70
     8
177
     3
291
     0
 70
    58
 90
        2
176
     1
 90
        3
176
     1
 90
        0
176
     1
 90
        2
176
     1
 40
0.6
176
     1
 40
30.0
176
     1
 62
     7
420
 16777215
176
     1
 90
        0
176
     1
 90
        0
176
     1
 62
     7
176
     1
 62
   257
176
     1
 90
        1
176
     1
 90
        1
176
     1
 40
1.0
176
     1
 90
        8
176
     1
 62
   257
176
     1
 40
1.0
176
     1
 90
        1
176
     1
 90
        6
176
     1
 90
        2
176
     1
 62
     7
176
     1
 90
        3
176
     1
 90
        0
176
     1
 90
        0
176
     1
290
     0
176
     1
 90
       13
176
     1
 40
0.0
176
     1
 90
        0
176
     1
290
     0
176
     1
290
     1
176
     1
290
     1
176
     1
290
     0
176
     1
290
     0
176
     1
290
     0
176
     1
290
     0
176
     1
290
     0
176
     1
290
     0
176
     1
 90
       50
176
     1
 40
0.0
176
     1
 40
1.0
176
     1
 90
        0
176
     1
 62
    18
420
        0
176
     1
 90
       50
176
     1
 90
        3
176
     1
 62
     5
420
      255
176
     1
290
     0
176
     1
 90
       50
176
     1
 90
       50
176
     1
 90
       50
176
     1
290
     0
176
     1
 90
       50
176
     1
 62
   256
176
     0
 40
1.0
176
     0
 90
        2
176
     1
  1
strokes_ogs.tif
176
     1
290
     0
176
     1
 40
1.0
176
     1
 40
1.0
176
     1
  0
VISUALSTYLE
  5
56
102
{ACAD_REACTORS
330
3B
102
}
330
3B
100
AcDbVisualStyle
  2
Wireframe
 70
     5
177
     3
291
     0
 70
    58
 90
        0
176
     1
 90
        2
176
     1
 90
        0
176
     1
 90
        0
176
     1
 40
0.6
176
     1
 40
30.0
176
     1
 62
     7
420
 16777215
176
     1
 90
        1
176
     1
 90
        4
176
     1
 62
     7
176
     1
 62
   257
176
     1
 90
        1
176
     1
 90
        1
176
     1
 40
1.0
176
     1
 90
        0
176
     1
 62
   257
176
     1
 40
1.0
176
     1
 90
        1
176
     1
 90
        6
176
     1
 90
        2
176
     1
 62
     7
176
     1
 90
        3
176
     1
 90
        0
176
     1
 90
        0
176
     1
290
     0
176
     1
 90
        1
176
     1
 40
0.0
176
     1
 90
        0
176
     1
290
     0
176
     1
290
     1
176
     1
290
     1
176
     1
290
     0
176
     1
290
     0
176
     1
290
     0
176
     1
290
     0
176
     1
290
     0
176
     1
290
     0
176
     1
 90
       50
176
     1
 40
0.0
176
     1
 40
1.0
176
     1
 90
        0
176
     1
 62
    18
420
        0
176
     1
 90
       50
176
     1
 90
        3
176
     1
 62
     5
420
      255
176
     1
290
     0
176
     1
 90
       50
176
     1
 90
       50
176
     1
 90
       50
176
     1
290
     0
176
     1
 90
       50
176
     1
 62
   256
176
     0
 40
1.0
176
     0
 90
        2
176
     1
  1
strokes_ogs.tif
176
     1
290
     0
176
     1
 40
1.0
176
     1
 40
1.0
176
     1
  0
DICTIONARYVAR
  5
137
102
{ACAD_REACTORS
330
131
102
}
330
131
100
DictionaryVariables
280
     0
  1
1:1
  0
DICTIONARYVAR
  5
133
102
{ACAD_REACTORS
330
131
102
}
330
131
100
DictionaryVariables
280
     0
  1
STANDARD
  0
DICTIONARYVAR
  5
132
102
{ACAD_REACTORS
330
131
102
}
330
131
100
DictionaryVariables
280
     0
  1
STANDARD
  0
DICTIONARYVAR
  5
134
102
{ACAD_REACTORS
330
131
102
}
330
131
100
DictionaryVariables
280
     0
  1

  0
DICTIONARYVAR
  5
135
102
{ACAD_REACTORS
330
131
102
}
330
131
100
DictionaryVariables
280
     0
  1

  0
DICTIONARYVAR
  5
139
102
{ACAD_REACTORS
330
131
102
}
330
131
100
DictionaryVariables
280
     0
  1
1
  0
DICTIONARYVAR
  5
13A
102
{ACAD_REACTORS
330
131
102
}
330
131
100
DictionaryVariables
280
     0
  1
15
  0
DICTIONARYVAR
  5
138
102
{ACAD_REACTORS
330
131
102
}
330
131
100
DictionaryVariables
280
     0
  1
0
  0
DICTIONARYVAR
  5
136
102
{ACAD_REACTORS
330
131
102
}
330
131
100
DictionaryVariables
280
     0
  1
0
  0
DICTIONARY
  5
28
330
27
100
AcDbDictionary
280
     1
281
     1
  0
DICTIONARY
  5
22
330
20
100
AcDbDictionary
280
     1
281
     1
  0
DICTIONARY
  5
46
330
45
100
AcDbDictionary
280
     1
281
     1
  3
BUMPTILE
360
47
  3
DIFFUSETILE
360
48
  3
OPACITYTILE
360
49
  3
REFLECTIONTILE
360
4A
  3
REFRACTIONTILE
360
4B
  3
SPECULARTILE
360
4C
  0
DICTIONARY
  5
18
330
17
100
AcDbDictionary
280
     1
281
     1
  3
BUMPTILE
360
19
  3
DIFFUSETILE
360
1A
  3
OPACITYTILE
360
1B
  3
REFLECTIONTILE
360
1C
  3
REFRACTIONTILE
360
1D
  3
SPECULARTILE
360
1E
  0
DICTIONARY
  5
F
330
D
100
AcDbDictionary
280
     1
281
     1
  3
BUMPTILE
360
10
  3
DIFFUSETILE
360
11
  3
OPACITYTILE
360
12
  3
REFLECTIONTILE
360
13
  3
REFRACTIONTILE
360
14
  3
SPECULARTILE
360
15
  0
DICTIONARY
  5
54
330
53
100
AcDbDictionary
280
     1
281
     1
  3
ACAD_ROUNDTRIP_2008_TABLESTYLE_CELLSTYLEMAP
360
13B
  0
XRECORD
  5
47
102
{ACAD_REACTORS
330
46
102
}
330
46
100
AcDbXrecord
280
     1
270
     1
271
     1
  0
XRECORD
  5
48
102
{ACAD_REACTORS
330
46
102
}
330
46
100
AcDbXrecord
280
     1
270
     1
271
     1
  0
XRECORD
  5
49
102
{ACAD_REACTORS
330
46
102
}
330
46
100
AcDbXrecord
280
     1
270
     1
271
     1
  0
XRECORD
  5
4A
102
{ACAD_REACTORS
330
46
102
}
330
46
100
AcDbXrecord
280
     1
270
     1
271
     1
  0
XRECORD
  5
4B
102
{ACAD_REACTORS
330
46
102
}
330
46
100
AcDbXrecord
280
     1
270
     1
271
     1
  0
XRECORD
  5
4C
102
{ACAD_REACTORS
330
46
102
}
330
46
100
AcDbXrecord
280
     1
270
     1
271
     1
  0
XRECORD
  5
19
102
{ACAD_REACTORS
330
18
102
}
330
18
100
AcDbXrecord
280
     1
270
     1
271
     1
  0
XRECORD
  5
1A
102
{ACAD_REACTORS
330
18
102
}
330
18
100
AcDbXrecord
280
     1
270
     1
271
     1
  0
XRECORD
  5
1B
102
{ACAD_REACTORS
330
18
102
}
330
18
100
AcDbXrecord
280
     1
270
     1
271
     1
  0
XRECORD
  5
1C
102
{ACAD_REACTORS
330
18
102
}
330
18
100
AcDbXrecord
280
     1
270
     1
271
     1
  0
XRECORD
  5
1D
102
{ACAD_REACTORS
330
18
102
}
330
18
100
AcDbXrecord
280
     1
270
     1
271
     1
  0
XRECORD
  5
1E
102
{ACAD_REACTORS
330
18
102
}
330
18
100
AcDbXrecord
280
     1
270
     1
271
     1
  0
XRECORD
  5
10
102
{ACAD_REACTORS
330
F
102
}
330
F
100
AcDbXrecord
280
     1
270
     1
271
     1
  0
XRECORD
  5
11
102
{ACAD_REACTORS
330
F
102
}
330
F
100
AcDbXrecord
280
     1
270
     1
271
     1
  0
XRECORD
  5
12
102
{ACAD_REACTORS
330
F
102
}
330
F
100
AcDbXrecord
280
     1
270
     1
271
     1
  0
XRECORD
  5
13
102
{ACAD_REACTORS
330
F
102
}
330
F
100
AcDbXrecord
280
     1
270
     1
271
     1
  0
XRECORD
  5
14
102
{ACAD_REACTORS
330
F
102
}
330
F
100
AcDbXrecord
280
     1
270
     1
271
     1
  0
XRECORD
  5
15
102
{ACAD_REACTORS
330
F
102
}
330
F
100
AcDbXrecord
280
     1
270
     1
271
     1
  0
CELLSTYLEMAP
  5
13B
102
{ACAD_REACTORS
330
54
102
}
330
54
100
AcDbCellStyleMap
 90
        3
300
CELLSTYLE
  1
TABLEFORMAT_BEGIN
 90
        5
170
     1
 91
        0
 92
    32768
 62
   257
 93
        1
300
CONTENTFORMAT
  1
CONTENTFORMAT_BEGIN
 90
        0
 91
        0
 92
        4
 93
        0
300

 40
0.0
140
1.0
 94
        5
 62
     0
340
30
144
0.25
309
CONTENTFORMAT_END
171
     1
301
MARGIN
  1
CELLMARGIN_BEGIN
 40
0.06
 40
0.06
 40
0.06
 40
0.06
 40
0.18
 40
0.18
309
CELLMARGIN_END
 94
        6
 95
        1
302
GRIDFORMAT
  1
GRIDFORMAT_BEGIN
 90
        0
 91
        1
 62
     0
 92
       -2
340
0
 93
        0
 40
0.045
309
GRIDFORMAT_END
 95
        2
302
GRIDFORMAT
  1
GRIDFORMAT_BEGIN
 90
        0
 91
        1
 62
     0
 92
       -2
340
0
 93
        0
 40
0.045
309
GRIDFORMAT_END
 95
        4
302
GRIDFORMAT
  1
GRIDFORMAT_BEGIN
 90
        0
 91
        1
 62
     0
 92
       -2
340
0
 93
        0
 40
0.045
309
GRIDFORMAT_END
 95
        8
302
GRIDFORMAT
  1
GRIDFORMAT_BEGIN
 90
        0
 91
        1
 62
     0
 92
       -2
340
0
 93
        0
 40
0.045
309
GRIDFORMAT_END
 95
       16
302
GRIDFORMAT
  1
GRIDFORMAT_BEGIN
 90
        0
 91
        1
 62
     0
 92
       -2
340
0
 93
        0
 40
0.045
309
GRIDFORMAT_END
 95
       32
302
GRIDFORMAT
  1
GRIDFORMAT_BEGIN
 90
        0
 91
        1
 62
     0
 92
       -2
340
0
 93
        0
 40
0.045
309
GRIDFORMAT_END
309
TABLEFORMAT_END
  1
CELLSTYLE_BEGIN
 90
        1
 91
        1
300
_TITLE
309
CELLSTYLE_END
300
CELLSTYLE
  1
TABLEFORMAT_BEGIN
 90
        5
170
     1
 91
        0
 92
        0
 62
   257
 93
        1
300
CONTENTFORMAT
  1
CONTENTFORMAT_BEGIN
 90
        0
 91
        0
 92
        4
 93
        0
300

 40
0.0
140
1.0
 94
        5
 62
     0
340
30
144
0.18
309
CONTENTFORMAT_END
171
     1
301
MARGIN
  1
CELLMARGIN_BEGIN
 40
0.06
 40
0.06
 40
0.06
 40
0.06
 40
0.18
 40
0.18
309
CELLMARGIN_END
 94
        6
 95
        1
302
GRIDFORMAT
  1
GRIDFORMAT_BEGIN
 90
        0
 91
        1
 62
     0
 92
       -2
340
0
 93
        0
 40
0.045
309
GRIDFORMAT_END
 95
        2
302
GRIDFORMAT
  1
GRIDFORMAT_BEGIN
 90
        0
 91
        1
 62
     0
 92
       -2
340
0
 93
        0
 40
0.045
309
GRIDFORMAT_END
 95
        4
302
GRIDFORMAT
  1
GRIDFORMAT_BEGIN
 90
        0
 91
        1
 62
     0
 92
       -2
340
0
 93
        0
 40
0.045
309
GRIDFORMAT_END
 95
        8
302
GRIDFORMAT
  1
GRIDFORMAT_BEGIN
 90
        0
 91
        1
 62
     0
 92
       -2
340
0
 93
        0
 40
0.045
309
GRIDFORMAT_END
 95
       16
302
GRIDFORMAT
  1
GRIDFORMAT_BEGIN
 90
        0
 91
        1
 62
     0
 92
       -2
340
0
 93
        0
 40
0.045
309
GRIDFORMAT_END
 95
       32
302
GRIDFORMAT
  1
GRIDFORMAT_BEGIN
 90
        0
 91
        1
 62
     0
 92
       -2
340
0
 93
        0
 40
0.045
309
GRIDFORMAT_END
309
TABLEFORMAT_END
  1
CELLSTYLE_BEGIN
 90
        2
 91
        1
300
_HEADER
309
CELLSTYLE_END
300
CELLSTYLE
  1
TABLEFORMAT_BEGIN
 90
        5
170
     1
 91
        0
 92
        0
 62
   257
 93
        1
300
CONTENTFORMAT
  1
CONTENTFORMAT_BEGIN
 90
        0
 91
        0
 92
        4
 93
        0
300

 40
0.0
140
1.0
 94
        2
 62
     0
340
30
144
0.18
309
CONTENTFORMAT_END
171
     1
301
MARGIN
  1
CELLMARGIN_BEGIN
 40
0.06
 40
0.06
 40
0.06
 40
0.06
 40
0.18
 40
0.18
309
CELLMARGIN_END
 94
        6
 95
        1
302
GRIDFORMAT
  1
GRIDFORMAT_BEGIN
 90
        0
 91
        1
 62
     0
 92
       -2
340
0
 93
        0
 40
0.045
309
GRIDFORMAT_END
 95
        2
302
GRIDFORMAT
  1
GRIDFORMAT_BEGIN
 90
        0
 91
        1
 62
     0
 92
       -2
340
0
 93
        0
 40
0.045
309
GRIDFORMAT_END
 95
        4
302
GRIDFORMAT
  1
GRIDFORMAT_BEGIN
 90
        0
 91
        1
 62
     0
 92
       -2
340
0
 93
        0
 40
0.045
309
GRIDFORMAT_END
 95
        8
302
GRIDFORMAT
  1
GRIDFORMAT_BEGIN
 90
        0
 91
        1
 62
     0
 92
       -2
340
0
 93
        0
 40
0.045
309
GRIDFORMAT_END
 95
       16
302
GRIDFORMAT
  1
GRIDFORMAT_BEGIN
 90
        0
 91
        1
 62
     0
 92
       -2
340
0
 93
        0
 40
0.045
309
GRIDFORMAT_END
 95
       32
302
GRIDFORMAT
  1
GRIDFORMAT_BEGIN
 90
        0
 91
        1
 62
     0
 92
       -2
340
0
 93
        0
 40
0.045
309
GRIDFORMAT_END
309
TABLEFORMAT_END
  1
CELLSTYLE_BEGIN
 90
        3
 91
        2
300
_DATA
309
CELLSTYLE_END
  0
ENDSEC
  0
SECTION
  2
ACDSDATA
 70
     2
 71
     8
  0
ACDSSCHEMA
 90
        0
  1
AcDb_Thumbnail_Schema
  2
AcDbDs::ID
280
    10
 91
        8
  2
Thumbnail_Data
280
    15
 91
        0
101
ACDSRECORD
 95
        0
 90
        1
  2
AcDbDs::TreatedAsObjectData
280
     1
291
     1
101
ACDSRECORD
 95
        0
 90
        2
  2
AcDbDs::Legacy
280
     1
291
     1
101
ACDSRECORD
  1
AcDbDs::ID
 90
        3
  2
AcDs:Indexable
280
     1
291
     1
101
ACDSRECORD
  1
AcDbDs::ID
 90
        4
  2
AcDbDs::HandleAttribute
280
     7
282
     1
  0
ACDSSCHEMA
 90
        1
  1
AcDbDs::TreatedAsObjectDataSchema
  2
AcDbDs::TreatedAsObjectData
280
     1
 91
        0
  0
ACDSSCHEMA
 90
        2
  1
AcDbDs::LegacySchema
  2
AcDbDs::Legacy
280
     1
 91
        0
  0
ACDSSCHEMA
 90
        3
  1
AcDbDs::IndexedPropertySchema
  2
AcDs:Indexable
280
     1
 91
        0
  0
ACDSSCHEMA
 90
        4
  1
AcDbDs::HandleAttributeSchema
  2
AcDbDs::HandleAttribute
280
     7
 91
        1
284
     1
  0
ACDSRECORD
 90
        0
  2
AcDbDs::ID
280
    10
320
27
  2
Thumbnail_Data
280
    15
 94
     1524
310
89504E470D0A1A0A0000000D4948445200000100000000B5080300000087DCD12600000300504C5445FFFFFF000000C8C8C80000000000000000000000000000000000000000000000000000330000660000990000CC0000FF0033000033330033660033990033CC0033FF0066000066330066660066990066CC0066FF0099
310
000099330099660099990099CC0099FF00CC0000CC3300CC6600CC9900CCCC00CCFF00FF0000FF3300FF6600FF9900FFCC00FFFF3300003300333300663300993300CC3300FF3333003333333333663333993333CC3333FF3366003366333366663366993366CC3366FF3399003399333399663399993399CC3399FF33CC00
310
33CC3333CC6633CC9933CCCC33CCFF33FF0033FF3333FF6633FF9933FFCC33FFFF6600006600336600666600996600CC6600FF6633006633336633666633996633CC6633FF6666006666336666666666996666CC6666FF6699006699336699666699996699CC6699FF66CC0066CC3366CC6666CC9966CCCC66CCFF66FF0066
310
FF3366FF6666FF9966FFCC66FFFF9900009900339900669900999900CC9900FF9933009933339933669933999933CC9933FF9966009966339966669966999966CC9966FF9999009999339999669999999999CC9999FF99CC0099CC3399CC6699CC9999CCCC99CCFF99FF0099FF3399FF6699FF9999FFCC99FFFFCC0000CC00
310
33CC0066CC0099CC00CCCC00FFCC3300CC3333CC3366CC3399CC33CCCC33FFCC6600CC6633CC6666CC6699CC66CCCC66FFCC9900CC9933CC9966CC9999CC99CCCC99FFCCCC00CCCC33CCCC66CCCC99CCCCCCCCCCFFCCFF00CCFF33CCFF66CCFF99CCFFCCCCFFFFFF0000FF0033FF0066FF0099FF00CCFF00FFFF3300FF3333
310
FF3366FF3399FF33CCFF33FFFF6600FF6633FF6666FF6699FF66CCFF66FFFF9900FF9933FF9966FF9999FF99CCFF99FFFFCC00FFCC33FFCC66FFCC99FFCCCCFFCCFFFFFF00FFFF33FFFF66FFFF99FFFFCCFFFFFF0000000D0D0D1A1A1A2828283535354343435050505D5D5D6B6B6B787878868686939393A1A1A1AEAEAEBB
310
BBBBC9C9C9D6D6D6E4E4E4F1F1F1FFFFFF000000000000000000000000000000000000000000000000000000000000B0E2D235000002AF4944415478DAED9DED6EC3200C45FDFE6F593F49B52EC9960F08D88E42E383B4FDD8921B746A886BB84234757BBD44257103C007C01C0E7F7FDEB4C7FE433E3F9277065800248D7F
310
000000000000C04F22941580000000000000000000801200E757CD01550A002A17CC70B41DEAF45BE355AC22E50FB801808AE1A9ABA88A56E917F10050B1755D575DB7AAC8914AA74875889F0250B1755DFE693A5456B7AAB92B11004C53AC5F4583557A01A89823E028165C71A48EAE7C2F000901E07A0B04743D58E50E00
310
E55C629F3995BB3E804AF71098D60EAAF9D43E57937D0E37888A39021ACB862AD5CF2E46A5F17DA0E7AFDF8E39A0B56C5A0DDE0E15B9488549100000300270A5C2E3A814004856000200000080A22811000000A407903E13040000EAF7A9E5697A898A49040000F001E8DB4739279EEA54912B544C00FA76922E57EB252A5D
310
4B84CBD59EE5F1C642FCF61BCB66617B1415860093200000402A0C00006C01501465AF300000000000000000690168D644A8B124A6D2B73349F5B02416A0D2DD157F496C579B6BCABAF76E9FFB3C43375966E4219619B34F25C43374ACF225969910B38B4AB04A2F002C337703C03233CA5EE1EC7E81B48E113C430C012641
310
006400C056590000000000A8E6535866180200783200F608010000000040E53EF60A2707806506CB4C6ECB4CEB13657DB58EA8C224080000900902600F808A1000CE72093C438F6C000000000000004E9BC332836506CB0C96192C332589EC9619F1F854225434E29C218ED9C133845FC00B00CB4CFA6376B21EB42421D357
310
B00A8E9178009215000B230000000000C0E228110000F60801000000000000CAF7B1571800A901E4364C6099C96E9A9AAE93AEB83B1EBD1CB3C35BE06B013C3E13A4220400009CE41258661ED9000000000000C708000000000000000059DB9C08E56D00D0CC03E0B7BD0143A4B67123711D7D0000000049454E44AE426082
  0
ACDSRECORD
 90
        0
  2
AcDbDs::ID
280
    10
320
20
  2
Thumbnail_Data
280
    15
 94
     1235
310
89504E470D0A1A0A0000000D4948445200000100000000790803000000E1F60FE900000300504C5445212830000000C8C8C80000000000000000000000000000000000000000000000000000330000660000990000CC0000FF0033000033330033660033990033CC0033FF0066000066330066660066990066CC0066FF0099
310
000099330099660099990099CC0099FF00CC0000CC3300CC6600CC9900CCCC00CCFF00FF0000FF3300FF6600FF9900FFCC00FFFF3300003300333300663300993300CC3300FF3333003333333333663333993333CC3333FF3366003366333366663366993366CC3366FF3399003399333399663399993399CC3399FF33CC00
310
33CC3333CC6633CC9933CCCC33CCFF33FF0033FF3333FF6633FF9933FFCC33FFFF6600006600336600666600996600CC6600FF6633006633336633666633996633CC6633FF6666006666336666666666996666CC6666FF6699006699336699666699996699CC6699FF66CC0066CC3366CC6666CC9966CCCC66CCFF66FF0066
310
FF3366FF6666FF9966FFCC66FFFF9900009900339900669900999900CC9900FF9933009933339933669933999933CC9933FF9966009966339966669966999966CC9966FF9999009999339999669999999999CC9999FF99CC0099CC3399CC6699CC9999CCCC99CCFF99FF0099FF3399FF6699FF9999FFCC99FFFFCC0000CC00
310
33CC0066CC0099CC00CCCC00FFCC3300CC3333CC3366CC3399CC33CCCC33FFCC6600CC6633CC6666CC6699CC66CCCC66FFCC9900CC9933CC9966CC9999CC99CCCC99FFCCCC00CCCC33CCCC66CCCC99CCCCCCCCCCFFCCFF00CCFF33CCFF66CCFF99CCFFCCCCFFFFFF0000FF0033FF0066FF0099FF00CCFF00FFFF3300FF3333
310
FF3366FF3399FF33CCFF33FFFF6600FF6633FF6666FF6699FF66CCFF66FFFF9900FF9933FF9966FF9999FF99CCFF99FFFFCC00FFCC33FFCC66FFCC99FFCCCCFFCCFFFFFF00FFFF33FFFF66FFFF99FFFFCCFFFFFF0000000D0D0D1A1A1A2828283535354343435050505D5D5D6B6B6B787878868686939393A1A1A1AEAEAEBB
310
BBBBC9C9C9D6D6D6E4E4E4F1F1F1FFFFFF000000000000000000000000000000000000000000000000000000000000B21171F60000018E4944415478DAED9C4BAEC32010C0E618BDFF417AABD9572D810021EDE26D9EB0AD8A40B3C282E1972422324672B86C4FA967168E7FDED9275D400205B47F1400ED024C015D04C85C
310
9414A000470184806EEA97EF1C59401401A1006A0C984B22222222F2179EDCAA03B7176E0CC0DB003A00E097560AB0072840010A50800214A0001111E18E01CBC160FF21622520872CA005940A8FB9CB6D8280E38713B04A2601011670A69B0A28D5BD8D01C3851204073FDB0B382FABEE0E8801ED023D2353400BF399C114
310
F03508E20410578375027CF4019C804FFCEB8220703FA09B0003053C1EFD32002D00CAD90544041A033C1BC60BC8715990973BFB0F83C7A4B8EE0ED622E14B25EDCDCC7EFBB7BDA8091250DFD01C7C2004F4356DDDBEA684F8983D533968F527EE8AE57CEEC588FD0AF8DA07E8F53706A42D4044041404158056715906E2EA
310
5FD3FD1F09FC29007948B67A509226A03D2001ED02D30312DC16809D08F0F6806EE60122020D012E87F102D85F12EB52680BB81E0DD05A40C25B80334111111111111111F957BC001ACB28631CC9855C0000000049454E44AE426082
  0
ENDSEC
  0
EOF
