  0
SECTION
  2
HEADER
  9
$ACADVER
  1
AC1032
  9
$ACADMAINTVER
 90
        6
  9
$DWGCODEPAGE
  3
ANSI_1252
  9
$REQUIREDVERSIONS
160
                 0
  9
$INSBASE
 10
0.0
 20
0.0
 30
0.0
  9
$EXTMIN
 10
-1198.76755172171
 20
-1288.403883865481
 30
0.0
  9
$EXTMAX
 10
7060.750428327771
 20
2334.462057092453
 30
0.0
  9
$LIMMIN
 10
0.0
 20
0.0
  9
$LIMMAX
 10
12.0
 20
9.0
  9
$ORTHOMODE
 70
     0
  9
$REGENMODE
 70
     1
  9
$FILLMODE
 70
     1
  9
$QTEXTMODE
 70
     0
  9
$MIRRTEXT
 70
     0
  9
$LTSCALE
 40
2.0
  9
$ATTMODE
 70
     1
  9
$TEXTSIZE
 40
3.5
  9
$TRACEWID
 40
0.05
  9
$TEXTSTYLE
  7
Tech 2.5
  9
$CLAYER
  8
0
  9
$CELTYPE
  6
ByLayer
  9
$CECOLOR
 62
   256
  9
$CELTSCALE
 40
1.0
  9
$DISPSILH
 70
     0
  9
$DIMSCALE
 40
1.0
  9
$DIMASZ
 40
1.5
  9
$DIMEXO
 40
5.0
  9
$DIMDLI
 40
1.499999999999999
  9
$DIMRND
 40
0.0
  9
$DIMDLE
 40
1.0
  9
$DIMEXE
 40
1.5
  9
$DIMTP
 40
0.0
  9
$DIMTM
 40
0.0
  9
$DIMTXT
 40
1.0
  9
$DIMCEN
 40
1.5
  9
$DIMTSZ
 40
0.0
  9
$DIMTOL
 70
     0
  9
$DIMLIM
 70
     0
  9
$DIMTIH
 70
     0
  9
$DIMTOH
 70
     0
  9
$DIMSE1
 70
     0
  9
$DIMSE2
 70
     0
  9
$DIMTAD
 70
     0
  9
$DIMZIN
 70
     8
  9
$DIMBLK
  1

  9
$DIMASO
 70
     1
  9
$DIMSHO
 70
     1
  9
$DIMPOST
  1

  9
$DIMAPOST
  1

  9
$DIMALT
 70
     0
  9
$DIMALTD
 70
     3
  9
$DIMALTF
 40
0.03937007874016
  9
$DIMLFAC
 40
1.0
  9
$DIMTOFL
 70
     1
  9
$DIMTVP
 40
0.0
  9
$DIMTIX
 70
     0
  9
$DIMSOXD
 70
     0
  9
$DIMSAH
 70
     0
  9
$DIMBLK1
  1

  9
$DIMBLK2
  1

  9
$DIMSTYLE
  2
Pres 1-1 2.0
  9
$DIMCLRD
 70
     1
  9
$DIMCLRE
 70
     0
  9
$DIMCLRT
 70
     0
  9
$DIMTFAC
 40
1.0
  9
$DIMGAP
 40
2.0
  9
$DIMJUST
 70
     0
  9
$DIMSD1
 70
     0
  9
$DIMSD2
 70
     0
  9
$DIMTOLJ
 70
     0
  9
$DIMTZIN
 70
     8
  9
$DIMALTZ
 70
     0
  9
$DIMALTTZ
 70
     0
  9
$DIMUPT
 70
     0
  9
$DIMDEC
 70
     0
  9
$DIMTDEC
 70
     0
  9
$DIMALTU
 70
     2
  9
$DIMALTTD
 70
     3
  9
$DIMTXSTY
  7
1-1 PS 2
  9
$DIMAUNIT
 70
     0
  9
$DIMADEC
 70
     0
  9
$DIMALTRND
 40
0.0
  9
$DIMAZIN
 70
     0
  9
$DIMDSEP
 70
    46
  9
$DIMATFIT
 70
     3
  9
$DIMFRAC
 70
     0
  9
$DIMLDRBLK
  1

  9
$DIMLUNIT
 70
     2
  9
$DIMLWD
 70
    -1
  9
$DIMLWE
 70
    -2
  9
$DIMTMOVE
 70
     0
  9
$DIMFXL
 40
1.0
  9
$DIMFXLON
 70
     0
  9
$DIMJOGANG
 40
0.7853981633974483
  9
$DIMTFILL
 70
     0
  9
$DIMTFILLCLR
 70
     0
  9
$DIMARCSYM
 70
     0
  9
$DIMLTYPE
  6

  9
$DIMLTEX1
  6

  9
$DIMLTEX2
  6

  9
$DIMTXTDIRECTION
 70
     0
  9
$LUNITS
 70
     2
  9
$LUPREC
 70
     2
  9
$SKETCHINC
 40
0.1
  9
$FILLETRAD
 40
9.0
  9
$AUNITS
 70
     0
  9
$AUPREC
 70
     0
  9
$MENU
  1
.
  9
$ELEVATION
 40
0.0
  9
$PELEVATION
 40
0.0
  9
$THICKNESS
 40
0.0
  9
$LIMCHECK
 70
     0
  9
$CHAMFERA
 40
4.0
  9
$CHAMFERB
 40
4.0
  9
$CHAMFERC
 40
0.0
  9
$CHAMFERD
 40
0.0
  9
$SKPOLY
 70
     0
  9
$TDCREATE
 40
2453614.950578704
  9
$TDUCREATE
 40
2453614.533915995
  9
$TDUPDATE
 40
2460372.875069445
  9
$TDUUPDATE
 40
2460372.416736111
  9
$TDINDWG
 40
8.0243684144
  9
$TDUSRTIMER
 40
8.0243684144
  9
$USRTIMER
 70
     1
  9
$ANGBASE
 50
0.0
  9
$ANGDIR
 70
     0
  9
$PDMODE
 70
     0
  9
$PDSIZE
 40
0.0
  9
$PLINEWID
 40
0.0
  9
$SPLFRAME
 70
     0
  9
$SPLINETYPE
 70
     6
  9
$SPLINESEGS
 70
     8
  9
$HANDSEED
  5
12B
  9
$SURFTAB1
 70
     6
  9
$SURFTAB2
 70
     6
  9
$SURFTYPE
 70
     6
  9
$SURFU
 70
     6
  9
$SURFV
 70
     6
  9
$UCSBASE
  2

  9
$UCSNAME
  2

  9
$UCSORG
 10
0.0
 20
0.0
 30
0.0
  9
$UCSXDIR
 10
1.0
 20
0.0
 30
0.0
  9
$UCSYDIR
 10
0.0
 20
1.0
 30
0.0
  9
$UCSORTHOREF
  2

  9
$UCSORTHOVIEW
 70
     0
  9
$UCSORGTOP
 10
0.0
 20
0.0
 30
0.0
  9
$UCSORGBOTTOM
 10
0.0
 20
0.0
 30
0.0
  9
$UCSORGLEFT
 10
0.0
 20
0.0
 30
0.0
  9
$UCSORGRIGHT
 10
0.0
 20
0.0
 30
0.0
  9
$UCSORGFRONT
 10
0.0
 20
0.0
 30
0.0
  9
$UCSORGBACK
 10
0.0
 20
0.0
 30
0.0
  9
$PUCSBASE
  2

  9
$PUCSNAME
  2

  9
$PUCSORG
 10
0.0
 20
0.0
 30
0.0
  9
$PUCSXDIR
 10
1.0
 20
0.0
 30
0.0
  9
$PUCSYDIR
 10
0.0
 20
1.0
 30
0.0
  9
$PUCSORTHOREF
  2

  9
$PUCSORTHOVIEW
 70
     0
  9
$PUCSORGTOP
 10
0.0
 20
0.0
 30
0.0
  9
$PUCSORGBOTTOM
 10
0.0
 20
0.0
 30
0.0
  9
$PUCSORGLEFT
 10
0.0
 20
0.0
 30
0.0
  9
$PUCSORGRIGHT
 10
0.0
 20
0.0
 30
0.0
  9
$PUCSORGFRONT
 10
0.0
 20
0.0
 30
0.0
  9
$PUCSORGBACK
 10
0.0
 20
0.0
 30
0.0
  9
$USERI1
 70
     0
  9
$USERI2
 70
     0
  9
$USERI3
 70
     0
  9
$USERI4
 70
     0
  9
$USERI5
 70
     0
  9
$USERR1
 40
0.0
  9
$USERR2
 40
0.0
  9
$USERR3
 40
0.0
  9
$USERR4
 40
0.0
  9
$USERR5
 40
0.0
  9
$WORLDVIEW
 70
     1
  9
$SHADEDGE
 70
     3
  9
$SHADEDIF
 70
    70
  9
$TILEMODE
 70
     1
  9
$MAXACTVP
 70
    16
  9
$PINSBASE
 10
0.0
 20
0.0
 30
0.0
  9
$PLIMCHECK
 70
     0
  9
$PEXTMIN
 10
0.5548555633881734
 20
0.1673825080200686
 30
-0.0015258207003583
  9
$PEXTMAX
 10
290.5589988370714
 20
202.9855557698479
 30
0.0000000349246037
  9
$PLIMMIN
 10
-3.174999952316284
 20
-3.174999952316284
  9
$PLIMMAX
 10
293.8356506824494
 20
206.8406708240509
  9
$UNITMODE
 70
     0
  9
$VISRETAIN
 70
     1
  9
$PLINEGEN
 70
     0
  9
$PSLTSCALE
 70
     0
  9
$TREEDEPTH
 70
  3020
  9
$CMLSTYLE
  2
Standard
  9
$CMLJUST
 70
     0
  9
$CMLSCALE
 40
1.0
  9
$PROXYGRAPHICS
 70
     1
  9
$MEASUREMENT
 70
     1
  9
$CELWEIGHT
370
    -1
  9
$ENDCAPS
280
     0
  9
$JOINSTYLE
280
     0
  9
$LWDISPLAY
290
     0
  9
$INSUNITS
 70
     4
  9
$HYPERLINKBASE
  1

  9
$STYLESHEET
  1

  9
$XEDIT
290
     1
  9
$CEPSNTYPE
380
     0
  9
$PSTYLEMODE
290
     1
  9
$FINGERPRINTGUID
  2
{1C1C88A4-6BEB-5D49-B29B-CEDFA370A67B}
  9
$VERSIONGUID
  2
{00F57146-A3A9-3E4A-A605-5C3AF638D5F9}
  9
$EXTNAMES
290
     1
  9
$PSVPSCALE
 40
0.5
  9
$OLESTARTUP
290
     0
  9
$SORTENTS
280
   127
  9
$INDEXCTL
280
     0
  9
$HIDETEXT
280
     1
  9
$XCLIPFRAME
280
     0
  9
$HALOGAP
280
     0
  9
$OBSCOLOR
 70
   257
  9
$OBSLTYPE
280
     0
  9
$INTERSECTIONDISPLAY
280
     0
  9
$INTERSECTIONCOLOR
 70
   257
  9
$DIMASSOC
280
     2
  9
$PROJECTNAME
  1

  9
$CAMERADISPLAY
290
     0
  9
$LENSLENGTH
 40
50.0
  9
$CAMERAHEIGHT
 40
0.0
  9
$STEPSPERSEC
 40
2.0
  9
$STEPSIZE
 40
6.0
  9
$3DDWFPREC
 40
2.0
  9
$PSOLWIDTH
 40
0.25
  9
$PSOLHEIGHT
 40
4.0
  9
$LOFTANG1
 40
1.570796326794896
  9
$LOFTANG2
 40
1.570796326794896
  9
$LOFTMAG1
 40
0.0
  9
$LOFTMAG2
 40
0.0
  9
$LOFTPARAM
 70
     7
  9
$LOFTNORMALS
280
     1
  9
$LATITUDE
 40
37.795
  9
$LONGITUDE
 40
-122.394
  9
$NORTHDIRECTION
 40
0.0
  9
$TIMEZONE
 70
 -8000
  9
$LIGHTGLYPHDISPLAY
280
     1
  9
$TILEMODELIGHTSYNCH
280
     1
  9
$CMATERIAL
347
3C
  9
$SOLIDHIST
280
     0
  9
$SHOWHIST
280
     1
  9
$DWFFRAME
280
     2
  9
$DGNFRAME
280
     0
  9
$REALWORLDSCALE
290
     1
  9
$INTERFERECOLOR
 62
     1
  9
$INTERFEREOBJVS
345
53
  9
$INTERFEREVPVS
346
54
  9
$CSHADOW
280
     0
  9
$SHADOWPLANELOCATION
 40
0.0
  0
ENDSEC
  0
SECTION
  2
CLASSES
  0
CLASS
  1
ACDBDICTIONARYWDFLT
  2
AcDbDictionaryWithDefault
  3
ObjectDBX Classes
 90
        0
 91
        1
280
     0
281
     0
  0
CLASS
  1
TABLESTYLE
  2
AcDbTableStyle
  3
ObjectDBX Classes
 90
     4095
 91
        1
280
     0
281
     0
  0
CLASS
  1
DICTIONARYVAR
  2
AcDbDictionaryVar
  3
ObjectDBX Classes
 90
        0
 91
        9
280
     0
281
     0
  0
CLASS
  1
DIMASSOC
  2
AcDbDimAssoc
  3
"AcDbDimAssoc|Product Desc:     AcDim ARX App For Dimension|Company:          Autodesk, Inc.|WEB Address:      www.autodesk.com"
 90
        0
 91
        0
280
     0
281
     0
  0
CLASS
  1
SORTENTSTABLE
  2
AcDbSortentsTable
  3
ObjectDBX Classes
 90
        0
 91
        2
280
     0
281
     0
  0
CLASS
  1
PLOTSETTINGS
  2
AcDbPlotSettings
  3
ObjectDBX Classes
 90
        0
 91
        0
280
     0
281
     0
  0
CLASS
  1
RASTERVARIABLES
  2
AcDbRasterVariables
  3
ISM
 90
        0
 91
        0
280
     0
281
     0
  0
CLASS
  1
IMAGEDEF
  2
AcDbRasterImageDef
  3
ISM
 90
        0
 91
        0
280
     0
281
     0
  0
CLASS
  1
IMAGEDEF_REACTOR
  2
AcDbRasterImageDefReactor
  3
ISM
 90
        1
 91
        0
280
     0
281
     0
  0
CLASS
  1
IMAGE
  2
AcDbRasterImage
  3
ISM
 90
     2175
 91
        0
280
     0
281
     1
  0
CLASS
  1
MATERIAL
  2
AcDbMaterial
  3
ObjectDBX Classes
 90
     1153
 91
        3
280
     0
281
     0
  0
CLASS
  1
VISUALSTYLE
  2
AcDbVisualStyle
  3
ObjectDBX Classes
 90
     4095
 91
        3
280
     0
281
     0
  0
CLASS
  1
SCALE
  2
AcDbScale
  3
ObjectDBX Classes
 90
     1153
 91
       17
280
     0
281
     0
  0
CLASS
  1
MLEADERSTYLE
  2
AcDbMLeaderStyle
  3
ACDB_MLEADERSTYLE_CLASS
 90
     4095
 91
        0
280
     0
281
     0
  0
CLASS
  1
ACARRAYJIGENTITY
  2
AcArrayJigEntity
  3
ACAD_ARRAY
 90
      129
 91
        0
280
     1
281
     1
  0
CLASS
  1
ACDBASSOCNETWORK
  2
AcDbAssocNetwork
  3
ObjectDBX Classes
 90
     1025
 91
        0
280
     0
281
     0
  0
CLASS
  1
ACDBASSOCACTION
  2
AcDbAssocAction
  3
ObjectDBX Classes
 90
     1025
 91
        0
280
     0
281
     0
  0
CLASS
  1
ACDBASSOCARRAYACTIONBODY
  2
AcDbAssocArrayActionBody
  3
ObjectDBX Classes
 90
     1025
 91
        0
280
     0
281
     0
  0
CLASS
  1
ACDBASSOCVERTEXACTIONPARAM
  2
AcDbAssocVertexActionParam
  3
ObjectDBX Classes
 90
     1025
 91
        0
280
     0
281
     0
  0
CLASS
  1
ACDBASSOCDEPENDENCY
  2
AcDbAssocDependency
  3
ObjectDBX Classes
 90
     1025
 91
        0
280
     0
281
     0
  0
CLASS
  1
ACDBASSOCARRAYRECTANGULARPARAMETERS
  2
AcDbAssocArrayRectangularParameters
  3
ObjectDBX Classes
 90
     1025
 91
        0
280
     0
281
     0
  0
CLASS
  1
ACDBASSOCARRAYPOLARPARAMETERS
  2
AcDbAssocArrayPolarParameters
  3
ObjectDBX Classes
 90
     1025
 91
        0
280
     0
281
     0
  0
CLASS
  1
SOLID_BACKGROUND
  2
AcDbSolidBackground
  3
SCENEOE
 90
     4095
 91
        0
280
     0
281
     0
  0
CLASS
  1
NPOCOLLECTION
  2
AcDbImpNonPersistentObjectsCollection
  3
ObjectDBX Classes
 90
     1153
 91
        0
280
     0
281
     0
  0
CLASS
  1
ACDBSECTIONVIEWSTYLE
  2
AcDbSectionViewStyle
  3
ObjectDBX Classes
 90
     1025
 91
        0
280
     0
281
     0
  0
CLASS
  1
ACDBDETAILVIEWSTYLE
  2
AcDbDetailViewStyle
  3
ObjectDBX Classes
 90
     1025
 91
        0
280
     0
281
     0
  0
CLASS
  1
DMMAPMANAGER
  2
AcMapDMMapManager
  3
AcMapDisplayManagement
 90
     1024
 91
        0
280
     0
281
     0
  0
CLASS
  1
DMSTYLELIBRARY
  2
AcMapDMStyleLibrary
  3
AcMapDisplayManagement
 90
     1024
 91
        0
280
     0
281
     0
  0
CLASS
  1
DMSTYLECATEGORY
  2
AcMapDMStyleCategory
  3
AcMapDisplayManagement
 90
     1024
 91
        0
280
     0
281
     0
  0
CLASS
  1
DATATABLE
  2
AcDbDataTable
  3
ObjectDBX Classes
 90
        0
 91
        0
280
     0
281
     0
  0
CLASS
  1
MAPRESOURCEMANAGEROBJECT
  2
AcMapResourceManager
  3
AcMapSharedComponents
 90
     1024
 91
        0
280
     0
281
     0
  0
CLASS
  1
MAPGWSUNDOOBJECT
  2
AcMapGWSUndoRecorder
  3
AcMapFeatureSourceManager
 90
     1025
 91
        0
280
     0
281
     0
  0
CLASS
  1
DMMAP
  2
AcMapDMMap
  3
AcMapDisplayManagement
 90
     1024
 91
        0
280
     0
281
     0
  0
CLASS
  1
DMBASEELEMENT
  2
AcMapDMBaseElement
  3
AcMapDisplayManagement
 90
     1024
 91
        0
280
     0
281
     0
  0
CLASS
  1
DMDEFAULTSTYLE
  2
AcMapDMDefaultStyle
  3
AcMapDisplayManagement
 90
     1024
 91
        0
280
     0
281
     0
  0
CLASS
  1
DMSTYLEREFERENCE
  2
AcMapDMStyleReference
  3
AcMapDisplayManagement
 90
     1024
 91
        0
280
     0
281
     0
  0
CLASS
  1
DMSURROGATESTYLESETS
  2
AcMapDMSurrogateStyleSets
  3
AcMapDisplayManagement
 90
     1153
 91
        0
280
     0
281
     0
  0
CLASS
  1
DMSTYLIZEDENTITIESTABLE
  2
AcMapDMStylizedEntitiesTable
  3
AcMapDisplayManagement
 90
     1024
 91
        0
280
     0
281
     0
  0
CLASS
  1
CELLSTYLEMAP
  2
AcDbCellStyleMap
  3
ObjectDBX Classes
 90
     1152
 91
        1
280
     0
281
     0
  0
ENDSEC
  0
SECTION
  2
TABLES
  0
TABLE
  2
VPORT
  5
2F
330
0
100
AcDbSymbolTable
 70
     1
  0
VPORT
  5
30
330
2F
100
AcDbSymbolTableRecord
100
AcDbViewportTableRecord
  2
*Active
 70
     0
 10
0.0
 20
0.0
 11
1.0
 21
1.0
 12
285.2153950161992
 22
338.8063677723561
 13
0.0
 23
0.0
 14
1.0
 24
1.0
 15
0.0
 25
0.0
 16
0.0
 26
0.0
 36
1.0
 17
0.0
 27
0.0
 37
0.0
 40
925.775116198022
 41
1.809883321894303
 42
50.0
 43
0.0
 44
0.0
 50
0.0
 51
0.0
 71
     8
 72
   250
 73
     1
 74
     1
 75
     0
 76
     0
 77
     0
 78
     0
281
     0
 65
     1
110
0.0
120
0.0
130
0.0
111
1.0
121
0.0
131
0.0
112
0.0
122
1.0
132
0.0
 79
     0
146
0.0
348
31
 60
     3
 61
     5
292
     1
282
     1
141
0.0
142
0.0
 63
   250
421
  3355443
1001
ACAD_NAV_VCDISPLAY
1070
     3
  0
ENDTAB
  0
TABLE
  2
LTYPE
  5
2A
330
0
100
AcDbSymbolTable
 70
     1
  0
LTYPE
  5
2B
330
2A
100
AcDbSymbolTableRecord
100
AcDbLinetypeTableRecord
  2
ByBlock
 70
     0
  3

 72
    65
 73
     0
 40
0.0
  0
LTYPE
  5
2C
330
2A
100
AcDbSymbolTableRecord
100
AcDbLinetypeTableRecord
  2
ByLayer
 70
     0
  3

 72
    65
 73
     0
 40
0.0
  0
LTYPE
  5
17
330
2A
100
AcDbSymbolTableRecord
100
AcDbLinetypeTableRecord
  2
Continuous
 70
     0
  3
Solid line
 72
    65
 73
     0
 40
0.0
  0
ENDTAB
  0
TABLE
  2
LAYER
  5
22
102
{ACAD_XDICTIONARY
360
23
102
}
330
0
100
AcDbSymbolTable
 70
     1
  0
LAYER
  5
7
102
{ACAD_XDICTIONARY
360
8
102
}
330
22
100
AcDbSymbolTableRecord
100
AcDbLayerTableRecord
  2
0
 70
     0
 62
     7
  6
Continuous
370
    -3
390
A
347
E
348
0
  0
ENDTAB
  0
TABLE
  2
STYLE
  5
26
330
0
100
AcDbSymbolTable
 70
     3
  0
STYLE
  5
27
330
26
100
AcDbSymbolTableRecord
100
AcDbTextStyleTableRecord
  2
Standard
 70
     0
 40
100.0
 41
1.0
 50
0.0
 71
     0
 42
100.0
  3
arial.ttf
  4

1001
ACAD
1000
Arial
1071
       34
  0
STYLE
  5
37
330
26
100
AcDbSymbolTableRecord
100
AcDbTextStyleTableRecord
  2
1-1 PS 2
 70
     0
 40
2.0
 41
1.0
 50
0.0
 71
     0
 42
2.0
  3
arial.ttf
  4

1001
ACAD
1000
Arial
1071
       34
  0
STYLE
  5
50
330
26
100
AcDbSymbolTableRecord
100
AcDbTextStyleTableRecord
  2
Tech 2.5
 70
     0
 40
2.5
 41
1.0
 50
0.0
 71
     0
 42
3.5
  3
dim.shx
  4

  0
ENDTAB
  0
TABLE
  2
VIEW
  5
2D
330
0
100
AcDbSymbolTable
 70
     0
  0
ENDTAB
  0
TABLE
  2
UCS
  5
2E
330
0
100
AcDbSymbolTable
 70
     0
  0
ENDTAB
  0
TABLE
  2
APPID
  5
34
330
0
100
AcDbSymbolTable
 70
     4
  0
APPID
  5
28
330
34
100
AcDbSymbolTableRecord
100
AcDbRegAppTableRecord
  2
ACAD
 70
     0
  0
APPID
  5
21
330
34
100
AcDbSymbolTableRecord
100
AcDbRegAppTableRecord
  2
ACAD_PSEXT
 70
     0
  0
APPID
  5
33
330
34
100
AcDbSymbolTableRecord
100
AcDbRegAppTableRecord
  2
ACAD_NAV_VCDISPLAY
 70
     0
  0
APPID
  5
D
330
34
100
AcDbSymbolTableRecord
100
AcDbRegAppTableRecord
  2
ADE
 70
     0
  0
ENDTAB
  0
TABLE
  2
DIMSTYLE
  5
35
330
0
100
AcDbSymbolTable
 70
     1
100
AcDbDimStyleTable
 71
     1
340
36
  0
DIMSTYLE
105
36
330
35
100
AcDbSymbolTableRecord
100
AcDbDimStyleTableRecord
  2
Pres 1-1 2.0
 70
     0
 41
1.5
 42
5.0
 43
1.499999999999999
 44
1.5
 46
1.0
 73
     0
 74
     0
 78
     8
140
1.0
141
1.5
143
0.03937007874016
147
2.0
171
     3
172
     1
176
     1
271
     0
272
     0
274
     3
283
     0
284
     8
340
37
371
    -1
  0
ENDTAB
  0
TABLE
  2
BLOCK_RECORD
  5
1
330
0
100
AcDbSymbolTable
 70
     0
  0
BLOCK_RECORD
  5
2
102
{ACAD_XDICTIONARY
360
3
102
}
330
1
100
AcDbSymbolTableRecord
100
AcDbBlockTableRecord
  2
*Model_Space
340
19
 70
     0
280
     1
281
     0
  0
BLOCK_RECORD
  5
1C
330
1
100
AcDbSymbolTableRecord
100
AcDbBlockTableRecord
  2
*Paper_Space
340
1F
 70
     0
280
     1
281
     0
  0
ENDTAB
  0
ENDSEC
  0
SECTION
  2
BLOCKS
  0
BLOCK
  5
6
330
2
100
AcDbEntity
  8
0
100
AcDbBlockBegin
  2
*Model_Space
 70
     0
 10
0.0
 20
0.0
 30
0.0
  3
*Model_Space
  1

  0
ENDBLK
  5
18
330
2
100
AcDbEntity
  8
0
100
AcDbBlockEnd
  0
BLOCK
  5
1D
330
1C
100
AcDbEntity
 67
     1
  8
0
100
AcDbBlockBegin
  2
*Paper_Space
 70
     0
 10
0.0
 20
0.0
 30
0.0
  3
*Paper_Space
  1

  0
ENDBLK
  5
1E
330
1C
100
AcDbEntity
 67
     1
  8
0
100
AcDbBlockEnd
  0
ENDSEC
  0
SECTION
  2
ENTITIES
  0
CIRCLE
  5
66
330
2
100
AcDbEntity
  8
0
100
AcDbCircle
 10
38.02003915955356
 20
594.3572463111855
 30
0.0
 40
16.5
  0
LINE
  5
67
330
2
100
AcDbEntity
  8
0
100
AcDbLine
 10
74.02034937633835
 20
525.207246313829
 30
0.0
 11
74.02034937633835
 21
525.207246313829
 31
0.0
  0
CIRCLE
  5
68
330
2
100
AcDbEntity
  8
0
100
AcDbCircle
 10
11.01972894276605
 20
525.207246313829
 30
0.0
 40
2.0
  0
CIRCLE
  5
69
330
2
100
AcDbEntity
  8
0
100
AcDbCircle
 10
65.02034937634153
 20
525.207246313829
 30
0.0
 40
2.0
  0
CIRCLE
  5
6A
330
2
100
AcDbEntity
  8
0
100
AcDbCircle
 10
11.09972894277007
 20
616.2775565279689
 30
0.0
 40
1.75
  0
CIRCLE
  5
6B
330
2
100
AcDbEntity
  8
0
100
AcDbCircle
 10
64.94034937633705
 20
616.2775565279689
 30
0.0
 40
1.75
  0
CIRCLE
  5
6C
330
2
100
AcDbEntity
  8
0
100
AcDbCircle
 10
11.09972894277007
 20
572.4369360944024
 30
0.0
 40
1.75
  0
CIRCLE
  5
6D
330
2
100
AcDbEntity
  8
0
100
AcDbCircle
 10
64.94034937633705
 20
572.4369360944024
 30
0.0
 40
1.75
  0
ARC
  5
6E
330
2
100
AcDbEntity
  8
0
100
AcDbCircle
 10
64.94034937633705
 20
616.2775565279687
 30
0.0
 40
9.079999999999927
100
AcDbArc
 50
0.0
 51
90.0
  0
LINE
  5
6F
330
2
100
AcDbEntity
  8
0
100
AcDbLine
 10
64.94034937633705
 20
625.3575565279686
 30
0.0
 11
11.09972894277007
 21
625.3575565279686
 31
0.0
  0
ARC
  5
70
330
2
100
AcDbEntity
  8
0
100
AcDbCircle
 10
11.09972894277007
 20
616.2775565279687
 30
0.0
 40
9.079999999999927
100
AcDbArc
 50
90.0
 51
180.0
  0
LINE
  5
71
330
2
100
AcDbEntity
  8
0
100
AcDbLine
 10
2.019728942770143
 20
616.2775565279687
 30
0.0
 11
2.019728942770143
 21
598.3572463111855
 31
0.0
  0
ARC
  5
72
330
2
100
AcDbEntity
  8
0
100
AcDbCircle
 10
4.019728942770143
 20
598.3572463111855
 30
0.0
 40
2.0
100
AcDbArc
 50
180.0
 51
270.0
  0
LINE
  5
73
330
2
100
AcDbEntity
  8
0
100
AcDbLine
 10
4.019728942770143
 20
596.3572463111854
 30
0.0
 11
8.019728942770143
 21
596.3572463111854
 31
0.0
  0
ARC
  5
74
330
2
100
AcDbEntity
  8
0
100
AcDbCircle
 10
8.019728942770143
 20
594.3572463111855
 30
0.0
 40
2.0
100
AcDbArc
 50
270.0
 51
90.0
  0
LINE
  5
75
330
2
100
AcDbEntity
  8
0
100
AcDbLine
 10
8.019728942770143
 20
592.3572463111854
 30
0.0
 11
4.019728942770143
 21
592.3572463111854
 31
0.0
  0
ARC
  5
76
330
2
100
AcDbEntity
  8
0
100
AcDbCircle
 10
4.019728942770143
 20
590.3572463111855
 30
0.0
 40
2.0
100
AcDbArc
 50
90.0
 51
180.0
  0
LINE
  5
77
330
2
100
AcDbEntity
  8
0
100
AcDbLine
 10
2.019728942770143
 20
590.3572463111855
 30
0.0
 11
2.019728942766505
 21
525.2075565332566
 31
0.0
  0
ARC
  5
78
330
2
100
AcDbEntity
  8
0
100
AcDbCircle
 10
11.01972894276605
 20
525.2075565332561
 30
0.0
 40
9.0
100
AcDbArc
 50
180.0
 51
270.0
  0
LINE
  5
79
330
2
100
AcDbEntity
  8
0
100
AcDbLine
 10
11.01972894276605
 20
516.2075565332561
 30
0.0
 11
65.02034937633834
 21
516.2075565332561
 31
0.0
  0
ARC
  5
7A
330
2
100
AcDbEntity
  8
0
100
AcDbCircle
 10
65.02034937633834
 20
525.2075565332561
 30
0.0
 40
9.0
100
AcDbArc
 50
270.0
 51
0.0
  0
LINE
  5
7B
330
2
100
AcDbEntity
  8
0
100
AcDbLine
 10
74.02034937633835
 20
525.2075565332561
 30
0.0
 11
74.02034937633743
 21
590.3572463111855
 31
0.0
  0
ARC
  5
7C
330
2
100
AcDbEntity
  8
0
100
AcDbCircle
 10
72.02034937633744
 20
590.3572463111855
 30
0.0
 40
2.0
100
AcDbArc
 50
0.0
 51
90.0
  0
LINE
  5
7D
330
2
100
AcDbEntity
  8
0
100
AcDbLine
 10
72.02034937633744
 20
592.3572463111854
 30
0.0
 11
68.02034937633743
 21
592.3572463111854
 31
0.0
  0
ARC
  5
7E
330
2
100
AcDbEntity
  8
0
100
AcDbCircle
 10
68.02034937633743
 20
594.3572463111855
 30
0.0
 40
2.0
100
AcDbArc
 50
90.0
 51
270.0
  0
LINE
  5
7F
330
2
100
AcDbEntity
  8
0
100
AcDbLine
 10
68.02034937633743
 20
596.3572463111854
 30
0.0
 11
72.02034937633698
 21
596.3572463111854
 31
0.0
  0
ARC
  5
80
330
2
100
AcDbEntity
  8
0
100
AcDbCircle
 10
72.02034937633698
 20
598.3572463111855
 30
0.0
 40
2.0
100
AcDbArc
 50
270.0
 51
0.0
  0
LINE
  5
81
330
2
100
AcDbEntity
  8
0
100
AcDbLine
 10
74.02034937633698
 20
598.3572463111855
 30
0.0
 11
74.02034937633698
 21
616.2775565279687
 31
0.0
  0
CIRCLE
  5
82
330
2
100
AcDbEntity
  8
0
100
AcDbCircle
 10
53.52003915955356
 20
578.8572463111856
 30
0.0
 40
1.5
  0
CIRCLE
  5
83
330
2
100
AcDbEntity
  8
0
100
AcDbCircle
 10
53.52003915955356
 20
609.8572463111858
 30
0.0
 40
1.5
  0
CIRCLE
  5
84
330
2
100
AcDbEntity
  8
0
100
AcDbCircle
 10
22.52003915955356
 20
609.8572463111857
 30
0.0
 40
1.5
  0
CIRCLE
  5
85
330
2
100
AcDbEntity
  8
0
100
AcDbCircle
 10
22.52003915955356
 20
578.8572463111859
 30
0.0
 40
1.5
  0
LWPOLYLINE
  5
86
330
2
100
AcDbEntity
  8
0
100
AcDbPolyline
 90
        4
 70
     1
 43
0.0
 10
252.9366825610774
 20
500.7011730783599
 42
-0.2360679774997897
 10
253.9366825610774
 20
502.7011730783599
 10
256.9366825610774
 20
502.7011730783599
 42
-0.2360679774997897
 10
257.9366825610774
 20
500.7011730783599
 42
-1.0
  0
CIRCLE
  5
87
330
2
100
AcDbEntity
  8
0
100
AcDbCircle
 10
255.4366825610774
 20
500.7011730783594
 30
0.0
 40
15.5
  0
CIRCLE
  5
88
330
2
100
AcDbEntity
  8
0
100
AcDbCircle
 10
255.4366825610783
 20
511.7011730783595
 30
0.0
 40
1.75
  0
CIRCLE
  5
89
330
2
100
AcDbEntity
  8
0
100
AcDbCircle
 10
264.9629620027068
 20
495.2011730783595
 30
0.0
 40
1.75
  0
CIRCLE
  5
8A
330
2
100
AcDbEntity
  8
0
100
AcDbCircle
 10
245.9104031194489
 20
495.2011730783595
 30
0.0
 40
1.75
  0
LWPOLYLINE
  5
8B
330
2
100
AcDbEntity
  8
0
100
AcDbPolyline
 90
        4
 70
     1
 43
0.0
 10
215.7657113395986
 20
500.7011730783599
 42
-0.2360679774997897
 10
216.7657113395986
 20
502.7011730783599
 10
219.7657113395986
 20
502.7011730783599
 42
-0.2360679774997897
 10
220.7657113395986
 20
500.7011730783599
 42
-1.0
  0
CIRCLE
  5
8C
330
2
100
AcDbEntity
  8
0
100
AcDbCircle
 10
218.2657113395986
 20
500.7011730783594
 30
0.0
 40
15.5
  0
CIRCLE
  5
8D
330
2
100
AcDbEntity
  8
0
100
AcDbCircle
 10
218.2657113395995
 20
511.7011730783595
 30
0.0
 40
2.0
  0
CIRCLE
  5
8E
330
2
100
AcDbEntity
  8
0
100
AcDbCircle
 10
208.7394318979701
 20
495.2011730783595
 30
0.0
 40
2.0
  0
CIRCLE
  5
8F
330
2
100
AcDbEntity
  8
0
100
AcDbCircle
 10
227.791990781228
 20
495.2011730783595
 30
0.0
 40
2.0
  0
TEXT
  5
90
330
2
100
AcDbEntity
  8
0
100
AcDbText
 10
3.132400930772746
 20
633.8104020454625
 30
0.0
 40
2.5
  1
6MM ACRYLIC
  7
Tech 2.5
100
AcDbText
  0
TEXT
  5
91
330
2
100
AcDbEntity
  8
0
100
AcDbText
 10
201.9635587215571
 20
633.9933891107811
 30
0.0
 40
2.5
  1
3MM ACRYLIC
  7
Tech 2.5
100
AcDbText
  0
CIRCLE
  5
92
330
2
100
AcDbEntity
  8
0
100
AcDbCircle
 10
139.4743035946681
 20
514.1416645212805
 30
0.0
 40
1.5
  0
CIRCLE
  5
93
330
2
100
AcDbEntity
  8
0
100
AcDbCircle
 10
139.4743035946681
 20
545.1416645212807
 30
0.0
 40
1.5
  0
CIRCLE
  5
94
330
2
100
AcDbEntity
  8
0
100
AcDbCircle
 10
108.474303594668
 20
545.1416645212805
 30
0.0
 40
1.5
  0
CIRCLE
  5
95
330
2
100
AcDbEntity
  8
0
100
AcDbCircle
 10
108.474303594668
 20
514.1416645212807
 30
0.0
 40
1.5
  0
CIRCLE
  5
96
330
2
100
AcDbEntity
  8
0
100
AcDbCircle
 10
123.9743035946681
 20
529.6416645212802
 30
0.0
 40
11.5
  0
LINE
  5
97
330
2
100
AcDbEntity
  8
0
100
AcDbLine
 10
129.9743035946681
 20
508.4916645212806
 30
0.0
 11
140.1243035946677
 21
508.4916645212806
 31
0.0
  0
LWPOLYLINE
  5
98
330
2
100
AcDbEntity
  8
0
100
AcDbPolyline
 90
       14
 70
     1
 43
0.0
 10
145.1243035946677
 20
545.7916645212805
 42
0.4142135623730927
 10
140.1243035946677
 20
550.7916645212806
 10
107.8243035946684
 20
550.7916645212808
 42
0.4142135623730972
 10
102.8243035946684
 20
545.7916645212808
 10
102.8243035946684
 20
513.4916645212806
 42
0.4142135623730951
 10
107.8243035946684
 20
508.4916645212806
 10
117.974303594668
 20
508.4916645212806
 42
-0.4142135623730951
 10
118.974303594668
 20
507.4916645212806
 42
0.4142135623730951
 10
119.974303594668
 20
506.4916645212806
 10
127.9743035946681
 20
506.4916645212806
 42
0.4142135623730951
 10
128.9743035946681
 20
507.4916645212806
 42
-0.4142135623730951
 10
129.9743035946681
 20
508.4916645212806
 10
140.1243035946677
 20
508.4916645212806
 42
0.4142135623730951
 10
145.1243035946677
 20
513.4916645212806
  0
CIRCLE
  5
99
330
2
100
AcDbEntity
  8
0
100
AcDbCircle
 10
304.3446138051877
 20
608.7062392737879
 30
0.0
 40
2.0
  0
CIRCLE
  5
9A
330
2
100
AcDbEntity
  8
0
100
AcDbCircle
 10
304.3446138051881
 20
608.7062392737879
 30
0.0
 40
4.5
  0
CIRCLE
  5
9B
330
2
100
AcDbEntity
  8
0
100
AcDbCircle
 10
314.3446138051877
 20
608.7062392737879
 30
0.0
 40
2.0
  0
CIRCLE
  5
9C
330
2
100
AcDbEntity
  8
0
100
AcDbCircle
 10
314.3446138051881
 20
608.7062392737879
 30
0.0
 40
4.5
  0
CIRCLE
  5
9D
330
2
100
AcDbEntity
  8
0
100
AcDbCircle
 10
304.3446138051877
 20
618.706239273788
 30
0.0
 40
2.0
  0
CIRCLE
  5
9E
330
2
100
AcDbEntity
  8
0
100
AcDbCircle
 10
304.3446138051881
 20
618.706239273788
 30
0.0
 40
4.5
  0
CIRCLE
  5
9F
330
2
100
AcDbEntity
  8
0
100
AcDbCircle
 10
314.3446138051877
 20
618.706239273788
 30
0.0
 40
2.0
  0
CIRCLE
  5
A0
330
2
100
AcDbEntity
  8
0
100
AcDbCircle
 10
314.3446138051881
 20
618.706239273788
 30
0.0
 40
4.5
  0
CIRCLE
  5
A1
330
2
100
AcDbEntity
  8
0
100
AcDbCircle
 10
324.3446138051877
 20
608.7062392737879
 30
0.0
 40
2.0
  0
CIRCLE
  5
A2
330
2
100
AcDbEntity
  8
0
100
AcDbCircle
 10
324.3446138051881
 20
608.7062392737879
 30
0.0
 40
4.5
  0
CIRCLE
  5
A3
330
2
100
AcDbEntity
  8
0
100
AcDbCircle
 10
334.3446138051877
 20
608.7062392737879
 30
0.0
 40
2.0
  0
CIRCLE
  5
A4
330
2
100
AcDbEntity
  8
0
100
AcDbCircle
 10
334.3446138051882
 20
608.7062392737879
 30
0.0
 40
4.5
  0
CIRCLE
  5
A5
330
2
100
AcDbEntity
  8
0
100
AcDbCircle
 10
324.3446138051877
 20
618.706239273788
 30
0.0
 40
2.0
  0
CIRCLE
  5
A6
330
2
100
AcDbEntity
  8
0
100
AcDbCircle
 10
324.3446138051881
 20
618.706239273788
 30
0.0
 40
4.5
  0
CIRCLE
  5
A7
330
2
100
AcDbEntity
  8
0
100
AcDbCircle
 10
334.3446138051877
 20
618.706239273788
 30
0.0
 40
2.0
  0
CIRCLE
  5
A8
330
2
100
AcDbEntity
  8
0
100
AcDbCircle
 10
334.3446138051882
 20
618.706239273788
 30
0.0
 40
4.5
  0
TEXT
  5
A9
330
2
100
AcDbEntity
  8
0
100
AcDbText
 10
301.9191178261058
 20
633.8104020454625
 30
0.0
 40
2.5
  1
1.5MM ACRYLIC
  7
Tech 2.5
100
AcDbText
  0
CIRCLE
  5
AA
330
2
100
AcDbEntity
  8
0
100
AcDbCircle
 10
304.3446138051877
 20
582.1481652552484
 30
0.0
 40
2.0
  0
CIRCLE
  5
AB
330
2
100
AcDbEntity
  8
0
100
AcDbCircle
 10
304.3446138051881
 20
582.1481652552484
 30
0.0
 40
4.5
  0
CIRCLE
  5
AC
330
2
100
AcDbEntity
  8
0
100
AcDbCircle
 10
314.3446138051877
 20
582.1481652552484
 30
0.0
 40
2.0
  0
CIRCLE
  5
AD
330
2
100
AcDbEntity
  8
0
100
AcDbCircle
 10
314.3446138051881
 20
582.1481652552484
 30
0.0
 40
4.5
  0
CIRCLE
  5
AE
330
2
100
AcDbEntity
  8
0
100
AcDbCircle
 10
304.3446138051877
 20
592.1481652552484
 30
0.0
 40
2.0
  0
CIRCLE
  5
AF
330
2
100
AcDbEntity
  8
0
100
AcDbCircle
 10
304.3446138051881
 20
592.1481652552484
 30
0.0
 40
4.5
  0
CIRCLE
  5
B0
330
2
100
AcDbEntity
  8
0
100
AcDbCircle
 10
314.3446138051877
 20
592.1481652552484
 30
0.0
 40
2.0
  0
CIRCLE
  5
B1
330
2
100
AcDbEntity
  8
0
100
AcDbCircle
 10
314.3446138051881
 20
592.1481652552484
 30
0.0
 40
4.5
  0
CIRCLE
  5
B2
330
2
100
AcDbEntity
  8
0
100
AcDbCircle
 10
324.3446138051877
 20
582.1481652552484
 30
0.0
 40
2.0
  0
CIRCLE
  5
B3
330
2
100
AcDbEntity
  8
0
100
AcDbCircle
 10
324.3446138051881
 20
582.1481652552484
 30
0.0
 40
4.5
  0
CIRCLE
  5
B4
330
2
100
AcDbEntity
  8
0
100
AcDbCircle
 10
324.3446138051877
 20
592.1481652552484
 30
0.0
 40
2.0
  0
CIRCLE
  5
B5
330
2
100
AcDbEntity
  8
0
100
AcDbCircle
 10
324.3446138051881
 20
592.1481652552484
 30
0.0
 40
4.5
  0
TEXT
  5
B6
330
2
100
AcDbEntity
  8
0
100
AcDbText
 10
3.132400930772746
 20
643.1657233637456
 30
0.0
 40
2.5
  1
PERISTALTIC PUMP
  7
Tech 2.5
100
AcDbText
  0
TEXT
  5
B7
330
2
100
AcDbEntity
  8
0
100
AcDbText
 10
3.132400930772746
 20
196.436948211661
 30
0.0
 40
2.5
  1
SAUSAGE TRAY
  7
Tech 2.5
100
AcDbText
  0
LWPOLYLINE
  5
B8
330
2
100
AcDbEntity
  8
0
100
AcDbPolyline
 90
       28
 70
     1
 43
0.0
 10
174.0197289427683
 20
89.37139381490874
 42
0.4142135623730951
 10
175.0197289427683
 20
90.37139381490874
 10
175.0197289427683
 20
99.13934300734013
 42
0.2679491924310728
 10
174.5197289427683
 20
100.0053684111242
 42
-0.7673269879789311
 10
175.0197289427683
 20
101.8713938149087
 10
181.0197289427683
 20
101.8713938149087
 42
-0.7673269879786405
 10
181.5197289427683
 20
100.0053684111242
 42
0.2679491924311028
 10
181.0197289427683
 20
99.13934300734013
 10
181.0197289427683
 20
90.37139381490874
 42
0.4142135623730951
 10
182.0197289427683
 20
89.37139381490874
 10
196.0197289427683
 20
89.37139381490874
 42
0.4142135623730951
 10
206.0197289427683
 20
99.37139381490874
 10
206.0197289427683
 20
113.3713938149087
 42
0.4142135623730951
 10
205.0197289427683
 20
114.3713938149087
 10
3.019728942768324
 20
114.3713938149092
 42
0.4142135623730951
 10
2.019728942768324
 20
113.3713938149092
 10
2.019728942768324
 20
99.3713938149092
 42
0.4142135623730951
 10
12.01972894276832
 20
89.3713938149092
 10
26.01972894276832
 20
89.3713938149092
 42
0.4142135623730951
 10
27.01972894276833
 20
90.3713938149092
 10
27.01972894276833
 20
99.13934300734059
 42
0.2679491924310724
 10
26.51972894276833
 20
100.0053684111246
 42
-0.7673269879789305
 10
27.01972894276833
 20
101.8713938149092
 10
33.01972894276833
 20
101.8713938149092
 42
-0.7673269879789767
 10
33.51972894276832
 20
100.0053684111246
 42
0.2679491924311316
 10
33.01972894276833
 20
99.13934300734059
 10
33.01972894276833
 20
90.3713938149092
 42
0.4142135623730951
 10
34.01972894276833
 20
89.3713938149092
  0
LWPOLYLINE
  5
B9
330
2
100
AcDbEntity
  8
0
100
AcDbPolyline
 90
       44
 70
     1
 43
0.0
 10
39.05196198980093
 20
174.523943624446
 42
0.1989123673796683
 10
35.51642808386759
 20
175.9884097185133
 10
24.01807851331751
 20
175.9884097185129
 42
0.4142135623730837
 10
23.01807851331751
 20
174.9884097185129
 10
23.01807851331751
 20
166.220460526082
 42
0.2679491924311244
 10
23.5180785133175
 20
165.3544351222974
 42
-0.7673269879789642
 10
23.01807851331751
 20
163.4884097185129
 10
17.01807851331841
 20
163.4884097185129
 42
-0.7673269879787834
 10
16.5180785133175
 20
165.3544351222972
 42
0.2679491924310055
 10
17.0180785133175
 20
166.2204605260815
 10
17.0180785133175
 20
174.9884097185129
 42
0.4142135623730951
 10
16.0180785133175
 20
175.9884097185129
 10
3.019728942767414
 20
175.9884097185129
 42
0.4142135623731111
 10
2.019728942767414
 20
174.9884097185129
 10
2.019728942769233
 20
135.4884097185129
 42
0.4142135623730972
 10
3.019728942769233
 20
134.4884097185129
 10
12.19130181802166
 20
134.4884097185133
 42
0.3178372451957633
 10
13.13411085960342
 20
135.1550763851801
 42
-0.8430389971007564
 10
17.01972894276741
 20
134.4884097185133
 10
17.01972894276741
 20
129.4884097185129
 42
0.4142135623730826
 10
18.01972894276741
 20
128.4884097185129
 10
132.1552628487002
 20
128.4884097185129
 42
0.4142135623730951
 10
133.1552628487002
 20
129.4884097185129
 10
133.1552628487002
 20
134.4884097185129
 42
-0.8430389971006956
 10
137.0408809318642
 20
135.1550763851799
 42
0.3178372451957288
 10
137.9836899734459
 20
134.4884097185133
 10
147.1552628487002
 20
134.4884097185129
 42
0.4142135623731077
 10
148.1552628487002
 20
135.4884097185129
 10
148.1552628487002
 20
174.9884097185129
 42
0.4142135623730951
 10
147.1552628487002
 20
175.9884097185129
 10
134.1569132781501
 20
175.9884097185129
 42
0.4142135623730951
 10
133.1569132781501
 20
174.9884097185129
 10
133.1569132781501
 20
166.220460526082
 42
0.2679491924311248
 10
133.6569132781501
 20
165.3544351222974
 42
-0.7673269879789643
 10
133.1569132781501
 20
163.4884097185129
 10
127.156913278151
 20
163.4884097185129
 42
-0.7673269879790447
 10
126.6569132781505
 20
165.3544351222972
 42
0.2679491924309861
 10
127.1569132781501
 20
166.2204605260815
 10
127.1569132781501
 20
174.9884097185129
 42
0.4142135623730826
 10
126.1569132781501
 20
175.9884097185129
 10
114.6585637076
 20
175.9884097185133
 42
0.1989123673796683
 10
111.1230298016667
 20
174.523943624446
 10
77.20881623929336
 20
140.6097300620724
 42
-0.4142135623730951
 10
72.96617555217427
 20
140.6097300620724
  0
LWPOLYLINE
  5
BA
330
2
100
AcDbEntity
  8
0
100
AcDbPolyline
 90
       44
 70
     1
 43
0.0
 10
194.2712458373794
 20
174.523943624446
 42
0.1989123673796683
 10
190.7357119314465
 20
175.9884097185133
 10
179.2373623608964
 20
175.9884097185129
 42
0.4142135623730837
 10
178.2373623608964
 20
174.9884097185129
 10
178.2373623608964
 20
166.220460526082
 42
0.2679491924311244
 10
178.7373623608964
 20
165.3544351222974
 42
-0.7673269879789642
 10
178.2373623608964
 20
163.4884097185129
 10
172.2373623608969
 20
163.4884097185129
 42
-0.7673269879787834
 10
171.7373623608969
 20
165.3544351222972
 42
0.2679491924310055
 10
172.2373623608964
 20
166.2204605260815
 10
172.2373623608964
 20
174.9884097185129
 42
0.4142135623730951
 10
171.2373623608964
 20
175.9884097185129
 10
158.2390127903463
 20
175.9884097185129
 42
0.4142135623731111
 10
157.2390127903463
 20
174.9884097185129
 10
157.2390127903481
 20
135.4884097185129
 42
0.4142135623730972
 10
158.2390127903481
 20
134.4884097185129
 10
167.4105856656001
 20
134.4884097185133
 42
0.3178372451957633
 10
168.3533947071823
 20
135.1550763851801
 42
-0.8430389971007564
 10
172.2390127903459
 20
134.4884097185133
 10
172.2390127903463
 20
129.4884097185129
 42
0.4142135623730826
 10
173.2390127903463
 20
128.4884097185129
 10
287.3745466962791
 20
128.4884097185129
 42
0.4142135623730951
 10
288.3745466962791
 20
129.4884097185129
 10
288.3745466962791
 20
134.4884097185129
 42
-0.8430389971006956
 10
292.2601647794431
 20
135.1550763851799
 42
0.3178372451957288
 10
293.2029738210253
 20
134.4884097185133
 10
302.3745466962791
 20
134.4884097185129
 42
0.4142135623731077
 10
303.3745466962792
 20
135.4884097185129
 10
303.3745466962792
 20
174.9884097185129
 42
0.4142135623730951
 10
302.3745466962791
 20
175.9884097185129
 10
289.3761971257291
 20
175.9884097185129
 42
0.4142135623730951
 10
288.376197125729
 20
174.9884097185129
 10
288.376197125729
 20
166.220460526082
 42
0.2679491924311248
 10
288.8761971257291
 20
165.3544351222974
 42
-0.7673269879789643
 10
288.376197125729
 20
163.4884097185129
 10
282.37619712573
 20
163.4884097185129
 42
-0.7673269879790447
 10
281.8761971257295
 20
165.3544351222972
 42
0.2679491924309861
 10
282.376197125729
 20
166.2204605260815
 10
282.376197125729
 20
174.9884097185129
 42
0.4142135623730826
 10
281.376197125729
 20
175.9884097185129
 10
269.877847555179
 20
175.9884097185133
 42
0.1989123673796683
 10
266.3423136492461
 20
174.523943624446
 10
232.4281000868723
 20
140.6097300620724
 42
-0.4142135623730951
 10
228.1854593997532
 20
140.6097300620724
  0
LWPOLYLINE
  5
BB
330
2
100
AcDbEntity
  8
0
100
AcDbPolyline
 90
       28
 70
     1
 43
0.0
 10
174.0197289427683
 20
52.84222663199284
 42
0.4142135623730951
 10
175.0197289427683
 20
53.84222663199285
 10
175.0197289427683
 20
62.61017582442423
 42
0.2679491924310728
 10
174.5197289427683
 20
63.47620122820877
 42
-0.7673269879789311
 10
175.0197289427683
 20
65.34222663199284
 10
181.0197289427683
 20
65.34222663199284
 42
-0.7673269879786405
 10
181.5197289427683
 20
63.47620122820877
 42
0.2679491924311028
 10
181.0197289427683
 20
62.61017582442423
 10
181.0197289427683
 20
53.84222663199285
 42
0.4142135623730951
 10
182.0197289427683
 20
52.84222663199284
 10
196.0197289427683
 20
52.84222663199284
 42
0.4142135623730951
 10
206.0197289427683
 20
62.84222663199284
 10
206.0197289427683
 20
76.84222663199284
 42
0.4142135623730951
 10
205.0197289427683
 20
77.84222663199284
 10
3.019728942768324
 20
77.84222663199329
 42
0.4142135623730951
 10
2.019728942768324
 20
76.8422266319933
 10
2.019728942768324
 20
62.84222663199329
 42
0.4142135623730951
 10
12.01972894276832
 20
52.84222663199329
 10
26.01972894276832
 20
52.84222663199329
 42
0.4142135623730951
 10
27.01972894276833
 20
53.8422266319933
 10
27.01972894276833
 20
62.61017582442469
 42
0.2679491924310724
 10
26.51972894276833
 20
63.47620122820922
 42
-0.7673269879789305
 10
27.01972894276833
 20
65.34222663199329
 10
33.01972894276833
 20
65.34222663199329
 42
-0.7673269879789767
 10
33.51972894276832
 20
63.47620122820922
 42
0.2679491924311316
 10
33.01972894276833
 20
62.61017582442469
 10
33.01972894276833
 20
53.8422266319933
 42
0.4142135623730951
 10
34.01972894276833
 20
52.84222663199329
  0
TEXT
  5
BC
330
2
100
AcDbEntity
  8
0
100
AcDbText
 10
3.132400930772746
 20
185.7638729692764
 30
0.0
 40
2.5
  1
6MM ACRYLIC
  7
Tech 2.5
100
AcDbText
  0
CIRCLE
  5
BD
330
2
100
AcDbEntity
  8
0
100
AcDbCircle
 10
38.01972894276833
 20
372.6724219149644
 30
0.0
 40
20.5
  0
LINE
  5
BE
330
2
100
AcDbEntity
  8
0
100
AcDbLine
 10
74.01972894276832
 20
372.6724219149644
 30
0.0
 11
74.01972894276832
 21
405.6724219149644
 31
0.0
  0
LINE
  5
BF
330
2
100
AcDbEntity
  8
0
100
AcDbLine
 10
2.019728942768324
 20
405.6724219149644
 30
0.0
 11
2.019728942768324
 21
372.6724219149653
 31
0.0
  0
ARC
  5
C0
330
2
100
AcDbEntity
  8
0
100
AcDbCircle
 10
14.51972894276832
 20
405.6724219149644
 30
0.0
 40
12.5
100
AcDbArc
 50
90.0
 51
180.0
  0
CIRCLE
  5
C1
330
2
100
AcDbEntity
  8
0
100
AcDbCircle
 10
61.51972894276832
 20
405.6724219149644
 30
0.0
 40
2.0
  0
ARC
  5
C2
330
2
100
AcDbEntity
  8
0
100
AcDbCircle
 10
38.01972894276833
 20
372.6724219149644
 30
0.0
 40
36.0
100
AcDbArc
 50
180.0
 51
0.0
  0
LINE
  5
C3
330
2
100
AcDbEntity
  8
0
100
AcDbLine
 10
14.51972894276832
 20
418.1724219149644
 30
0.0
 11
61.51972894276832
 21
418.1724219149644
 31
0.0
  0
ARC
  5
C4
330
2
100
AcDbEntity
  8
0
100
AcDbCircle
 10
61.51972894276832
 20
405.6724219149644
 30
0.0
 40
12.5
100
AcDbArc
 50
0.0
 51
90.0
  0
CIRCLE
  5
C5
330
2
100
AcDbEntity
  8
0
100
AcDbCircle
 10
14.51972894276832
 20
405.6724219149644
 30
0.0
 40
2.0
  0
LWPOLYLINE
  5
C6
330
2
100
AcDbEntity
  8
0
100
AcDbPolyline
 90
        4
 70
     1
 43
0.0
 10
271.4546419441467
 20
392.1214685213104
 10
271.4546419441467
 20
417.1214685213108
 10
199.4546419441467
 20
417.1214685213108
 10
199.4546419441467
 20
392.1214685213104
  0
ARC
  5
C7
330
2
100
AcDbEntity
  8
0
100
AcDbCircle
 10
211.9546419441467
 20
404.6214685213104
 30
0.0
 40
12.5
100
AcDbArc
 50
90.0
 51
180.0
  0
ARC
  5
C8
330
2
100
AcDbEntity
  8
0
100
AcDbCircle
 10
258.9546419441467
 20
404.6214685213104
 30
0.0
 40
12.5
100
AcDbArc
 50
0.0
 51
90.0
  0
CIRCLE
  5
C9
330
2
100
AcDbEntity
  8
0
100
AcDbCircle
 10
258.9546419441467
 20
404.6214685213104
 30
0.0
 40
2.0
  0
CIRCLE
  5
CA
330
2
100
AcDbEntity
  8
0
100
AcDbCircle
 10
211.9546419441467
 20
404.6214685213104
 30
0.0
 40
2.0
  0
LINE
  5
CB
330
2
100
AcDbEntity
  8
0
100
AcDbLine
 10
211.9546419441467
 20
399.6214685213104
 30
0.0
 11
211.9546419441467
 21
409.6214685213103
 31
0.0
  0
LINE
  5
CC
330
2
100
AcDbEntity
  8
0
100
AcDbLine
 10
258.9546419441467
 20
399.6214685213104
 30
0.0
 11
258.9546419441467
 21
409.6214685213103
 31
0.0
  0
LWPOLYLINE
  5
CD
330
2
100
AcDbEntity
  8
0
100
AcDbPolyline
 90
        4
 70
     1
 43
0.0
 10
271.4546419441467
 20
367.1214685213099
 10
271.4546419441467
 20
392.1214685213104
 10
199.4546419441467
 20
392.1214685213104
 10
199.4546419441467
 20
367.1214685213099
  0
LINE
  5
CE
330
2
100
AcDbEntity
  8
0
100
AcDbLine
 10
199.4546419441467
 20
392.1214685213104
 30
0.0
 11
199.4546419441467
 21
377.3214685213102
 31
0.0
  0
CIRCLE
  5
CF
330
2
100
AcDbEntity
  8
0
100
AcDbCircle
 10
208.4546419441467
 20
377.3214685213102
 30
0.0
 40
2.0
  0
LINE
  5
D0
330
2
100
AcDbEntity
  8
0
100
AcDbLine
 10
208.4546419441467
 20
372.3214685213102
 30
0.0
 11
208.4546419441467
 21
382.3214685213102
 31
0.0
  0
CIRCLE
  5
D1
330
2
100
AcDbEntity
  8
0
100
AcDbCircle
 10
262.4546419441467
 20
377.3214685213102
 30
0.0
 40
2.0
  0
LINE
  5
D2
330
2
100
AcDbEntity
  8
0
100
AcDbLine
 10
262.4546419441467
 20
372.3214685213102
 30
0.0
 11
262.4546419441467
 21
382.3214685213102
 31
0.0
  0
LINE
  5
D3
330
2
100
AcDbEntity
  8
0
100
AcDbLine
 10
211.9546419441467
 20
417.1214685213104
 30
0.0
 11
211.9546419441467
 21
412.1214685213103
 31
0.0
  0
LINE
  5
D4
330
2
100
AcDbEntity
  8
0
100
AcDbLine
 10
199.4546419441462
 20
404.6214685213099
 30
0.0
 11
204.4546419441462
 21
404.6214685213099
 31
0.0
  0
LINE
  5
D5
330
2
100
AcDbEntity
  8
0
100
AcDbLine
 10
258.9546419441467
 20
417.1214685213104
 30
0.0
 11
258.9546419441467
 21
412.1214685213103
 31
0.0
  0
LINE
  5
D6
330
2
100
AcDbEntity
  8
0
100
AcDbLine
 10
271.4546419441472
 20
404.6214685213099
 30
0.0
 11
266.4546419441472
 21
404.6214685213099
 31
0.0
  0
LINE
  5
D7
330
2
100
AcDbEntity
  8
0
100
AcDbLine
 10
216.9546419441467
 20
404.6214685213104
 30
0.0
 11
206.9546419441467
 21
404.6214685213104
 31
0.0
  0
LINE
  5
D8
330
2
100
AcDbEntity
  8
0
100
AcDbLine
 10
263.9546419441467
 20
404.6214685213104
 30
0.0
 11
253.9546419441467
 21
404.6214685213104
 31
0.0
  0
LINE
  5
D9
330
2
100
AcDbEntity
  8
0
100
AcDbLine
 10
213.4546419441467
 20
377.3214685213102
 30
0.0
 11
203.4546419441467
 21
377.3214685213102
 31
0.0
  0
LINE
  5
DA
330
2
100
AcDbEntity
  8
0
100
AcDbLine
 10
267.4546419441467
 20
377.3214685213102
 30
0.0
 11
257.4546419441467
 21
377.3214685213102
 31
0.0
  0
TEXT
  5
DB
330
2
100
AcDbEntity
  8
0
100
AcDbText
 10
3.132400930772746
 20
439.1818661901056
 30
0.0
 40
2.5
  1
BOTTLE MOUNT
  7
Tech 2.5
100
AcDbText
  0
TEXT
  5
DC
330
2
100
AcDbEntity
  8
0
100
AcDbText
 10
3.132400930772746
 20
428.508790947721
 30
0.0
 40
2.5
  1
6MM ACRYLIC
  7
Tech 2.5
100
AcDbText
  0
TEXT
  5
DD
330
2
100
AcDbEntity
  8
0
100
AcDbText
 10
200.1874156508447
 20
428.508790947721
 30
0.0
 40
2.5
  1
ALUMINIUM ANGLE
  7
Tech 2.5
100
AcDbText
  0
LWPOLYLINE
  5
DE
330
2
100
AcDbEntity
  8
0
100
AcDbPolyline
 90
        4
 70
     1
 43
0.0
 10
33.18620202873763
 20
265.6486030211504
 42
0.6417424305044152
 10
33.18620202873763
 20
264.7395121120595
 42
-4.582575694955792
 10
30.85325440221459
 20
264.7395121120595
 42
0.6417424305044133
 10
30.85325440221459
 20
265.6486030211504
 42
-4.582575694955799
  0
LWPOLYLINE
  5
DF
330
2
100
AcDbEntity
  8
0
100
AcDbPolyline
 90
       20
 70
     1
 43
0.0
 10
62.01972821547633
 20
280.1940575666049
 42
0.4142135623730951
 10
57.01972821547633
 20
285.1940575666049
 10
7.019728215476334
 20
285.1940575666049
 42
0.4142135623730951
 10
2.019728215476334
 20
280.1940575666049
 10
2.019728215476334
 20
269.1940575666049
 42
0.4142135623730951
 10
4.019728215476334
 20
267.1940575666049
 10
9.019728215476334
 20
267.1940575666049
 42
-1.0
 10
9.019728215476334
 20
263.1940575666049
 10
4.019728215476334
 20
263.1940575666049
 42
0.4142135623730951
 10
2.019728215476334
 20
261.1940575666049
 10
2.019728215476334
 20
250.1940575666049
 42
0.4142135623730951
 10
7.019728215476334
 20
245.1940575666049
 10
57.01972821547633
 20
245.1940575666049
 42
0.4142135623730951
 10
62.01972821547633
 20
250.1940575666049
 10
62.01972821547633
 20
261.1940575666049
 42
0.4142135623730951
 10
60.01972821547633
 20
263.1940575666049
 10
55.01972821547633
 20
263.1940575666049
 42
-1.0
 10
55.01972821547633
 20
267.1940575666049
 10
60.01972821547633
 20
267.1940575666049
 42
0.4142135623730951
 10
62.01972821547633
 20
269.1940575666049
  0
TEXT
  5
E0
330
2
100
AcDbEntity
  8
0
100
AcDbText
 10
3.132400930772746
 20
306.6669820359189
 30
0.0
 40
2.5
  1
TUBE PLATE
  7
Tech 2.5
100
AcDbText
  0
TEXT
  5
E1
330
2
100
AcDbEntity
  8
0
100
AcDbText
 10
3.132400930772746
 20
295.9939067935343
 30
0.0
 40
2.5
  1
6MM ACRYLIC
  7
Tech 2.5
100
AcDbText
  0
LWPOLYLINE
  5
E2
330
2
100
AcDbEntity
  8
0
100
AcDbPolyline
 90
        2
 70
     1
 43
0.0
 10
105.8827970466605
 20
387.8004477803659
 42
-1.0
 10
109.8827970466604
 20
387.8004477803659
 42
-1.0
  0
LWPOLYLINE
  5
E3
330
2
100
AcDbEntity
  8
0
100
AcDbPolyline
 90
        2
 70
     1
 43
0.0
 10
159.8834174802359
 20
387.8004477803659
 42
-1.0
 10
163.8834174802359
 20
387.8004477803659
 42
-1.0
  0
LWPOLYLINE
  5
E4
330
2
100
AcDbEntity
  8
0
100
AcDbPolyline
 90
        8
 70
     1
 43
0.0
 10
107.8827970466605
 20
351.8004477803659
 10
161.8834174802332
 20
351.8004477803659
 42
0.4142135623730951
 10
170.8834174802332
 20
360.8004477803659
 10
170.8834174802332
 20
387.8004477803659
 42
0.4142135623730951
 10
161.8834174802332
 20
396.8004477803658
 10
107.8827970466605
 20
396.8004477803658
 42
0.4142135623730951
 10
98.88279704666047
 20
387.8004477803659
 10
98.88279704666047
 20
360.8004477803659
 42
0.4142135623730951
  0
LWPOLYLINE
  5
E5
330
2
100
AcDbEntity
  8
0
100
AcDbPolyline
 90
        2
 70
     1
 43
0.0
 10
109.8827970466541
 20
409.1724219149644
 42
-1.0
 10
105.8827970466541
 20
409.1724219149644
 42
-1.0
  0
LWPOLYLINE
  5
E6
330
2
100
AcDbEntity
  8
0
100
AcDbPolyline
 90
        2
 70
     1
 43
0.0
 10
163.8834174802296
 20
409.1724219149644
 42
-1.0
 10
159.8834174802296
 20
409.1724219149644
 42
-1.0
  0
LWPOLYLINE
  5
E7
330
2
100
AcDbEntity
  8
0
100
AcDbPolyline
 90
        6
 70
     1
 43
0.0
 10
98.88279704665729
 20
409.1724219149644
 10
98.88279704665729
 20
406.1724219149644
 10
170.8834174802296
 20
406.1724219149644
 10
170.8834174802296
 20
409.1724219149639
 42
0.4142135623731103
 10
161.8834174802296
 20
418.1724219149644
 10
107.8827970466573
 20
418.1724219149644
 42
0.4142135623730954
  0
TEXT
  5
E8
330
2
100
AcDbEntity
  8
0
100
AcDbText
 10
99.62642545443305
 20
429.9167029518457
 30
0.0
 40
2.5
  1
6MM ACRYLIC
  7
Tech 2.5
100
AcDbText
  0
LWPOLYLINE
  5
E9
330
2
100
AcDbEntity
  8
0
100
AcDbPolyline
 90
        2
 70
     1
 43
0.0
 10
166.8327162171931
 20
572.436936094402
 42
-1.0
 10
162.8327162171931
 20
572.436936094402
 42
-1.0
  0
LWPOLYLINE
  5
EA
330
2
100
AcDbEntity
  8
0
100
AcDbPolyline
 90
        2
 70
     1
 43
0.0
 10
112.9920957836271
 20
572.436936094402
 42
-1.0
 10
108.992095783627
 20
572.436936094402
 42
-1.0
  0
LWPOLYLINE
  5
EB
330
2
100
AcDbEntity
  8
0
100
AcDbPolyline
 90
        2
 70
     1
 43
0.0
 10
166.8327162171931
 20
616.2775565279686
 42
-1.0
 10
162.8327162171931
 20
616.2775565279686
 42
-1.0
  0
LWPOLYLINE
  5
EC
330
2
100
AcDbEntity
  8
0
100
AcDbPolyline
 90
        2
 70
     1
 43
0.0
 10
112.9920957836271
 20
616.2775565279686
 42
-1.0
 10
108.992095783627
 20
616.2775565279686
 42
-1.0
  0
LWPOLYLINE
  5
ED
330
2
100
AcDbEntity
  8
0
100
AcDbPolyline
 90
       78
 70
     1
 43
0.0
 10
164.8327162171936
 20
625.3572463085417
 10
110.9920957836266
 20
625.3572463085417
 42
0.4142135623730951
 10
101.9120957836266
 20
616.2772463085417
 10
101.9120957836266
 20
598.3569360917584
 42
0.4142135623730951
 10
103.9120957836267
 20
596.3569360917585
 10
107.9120957836267
 20
596.3569360917585
 42
-1.0
 10
107.9120957836267
 20
592.3569360917585
 10
103.9120957836267
 20
592.3569360917585
 42
0.4142135623730728
 10
101.9120957836269
 20
590.3569360917588
 10
101.9120957836253
 20
572.4372463085428
 42
0.4142235577338697
 10
110.9924056492999
 20
563.3572463138293
 10
122.8988118569791
 20
563.3572463164824
 42
0.4142135623078301
 10
124.8988118565335
 20
565.3572463164825
 10
124.8988118565335
 20
565.831031456115
 10
122.1412061649111
 20
565.831031456115
 10
122.1412061649111
 20
568.831031456115
 10
124.8988118565335
 20
568.831031456115
 10
124.8598224025791
 20
570.1886450751291
 10
124.6990939951893
 20
571.4407314253438
 10
124.4293373741729
 20
572.6126814362384
 10
124.0632632793385
 20
573.7298860372922
 10
123.613582450494
 20
574.8177361579839
 10
123.0930056274478
 20
575.9016227277926
 10
122.5142435500085
 20
577.0069366761966
 10
121.8900069579839
 20
578.1590689326775
 10
121.2330068114343
 20
579.3834096799463
 10
120.5576289761443
 20
580.6996703102345
 10
119.8839671291407
 20
582.1082098046773
 10
119.2333297413788
 20
583.6052683691869
 10
118.6270252838144
 20
585.1870862096745
 10
118.0863622274028
 20
586.8499035320517
 10
117.6326490430997
 20
588.5899605422301
 10
117.287194201861
 20
590.4034974461215
 10
117.0715458890622
 20
592.286642933103
 10
117.0110315211791
 20
594.2337675723978
 10
117.1339894240973
 20
596.2378412407655
 10
117.4688414812399
 20
598.2917949435162
 10
118.0440095760304
 20
600.3885596859601
 10
118.887915591893
 20
602.5210664734069
 10
120.0289814122522
 20
604.6822463111693
 42
-0.5773502691902276
 10
155.795830588568
 20
604.6822463111693
 10
156.9368964089271
 20
602.5210664734069
 10
157.7808024247897
 20
600.3885596859601
 10
158.3559705195803
 20
598.2917949435162
 10
158.6908225767229
 20
596.2378412407655
 10
158.813780479641
 20
594.2337675723978
 10
158.7532661117579
 20
592.286642933103
 10
158.5376177989592
 20
590.4034974461215
 10
158.1921629577205
 20
588.5899605422301
 10
157.7384497734174
 20
586.8499035320517
 10
157.1977867170058
 20
585.1870862096745
 10
156.5914822594413
 20
583.6052683691868
 10
155.9408448716795
 20
582.1082098046774
 10
155.2671830246758
 20
580.6996703102343
 10
154.5918051893859
 20
579.3834096799465
 10
153.934805042836
 20
578.1590689326777
 10
153.3105684508117
 20
577.0069366761967
 10
152.7318063733724
 20
575.9016227277925
 10
152.2112295503261
 20
574.8177361579839
 10
151.7615487214816
 20
573.7298860372922
 10
151.3954746266472
 20
572.6126814362384
 10
151.1257180056309
 20
571.4407314253438
 10
150.9649895982411
 20
570.1886450751291
 10
150.9260001442867
 20
568.831031456115
 10
153.683605835909
 20
568.831031456115
 10
153.683605835909
 20
565.831031456115
 10
150.9260001442867
 20
565.831031456115
 10
150.9260001442867
 20
565.3572463164825
 42
0.4142135623078323
 10
152.9260001438411
 20
563.3572463164824
 10
164.833026082161
 20
563.3572463138292
 42
0.4142035671058615
 10
173.912716217195
 20
572.4372463085424
 10
173.9127162171939
 20
590.3569360917588
 42
0.4142135623730784
 10
171.9127162171939
 20
592.3569360917587
 10
167.9127162171941
 20
592.3569360917585
 42
-1.0
 10
167.912716217194
 20
596.3569360917585
 10
171.9127162171935
 20
596.3569360917585
 42
0.4142135623730951
 10
173.9127162171935
 20
598.3569360917584
 10
173.9127162171935
 20
616.2772463085417
 42
0.4142135623730951
  0
POLYLINE
  5
EE
330
2
100
AcDbEntity
  8
0
 62
   139
370
     0
100
AcDb2dPolyline
 66
     1
 10
0.0
 20
0.0
 30
0.0
  0
VERTEX
  5
EF
330
EE
100
AcDbEntity
  8
0
 62
   139
370
     0
100
AcDbVertex
100
AcDb2dVertex
 10
106.3191406884661
 20
582.6679577471629
 30
0.0
  0
VERTEX
  5
F0
330
EE
100
AcDbEntity
  8
0
 62
   139
370
     0
100
AcDbVertex
100
AcDb2dVertex
 10
107.2701977694573
 20
580.1682198788824
 30
0.0
  0
VERTEX
  5
F1
330
EE
100
AcDbEntity
  8
0
 62
   139
370
     0
100
AcDbVertex
100
AcDb2dVertex
 10
108.2233968709011
 20
582.6679577471629
 30
0.0
  0
SEQEND
  5
F2
330
EE
100
AcDbEntity
  8
0
 62
   139
370
     0
  0
POLYLINE
  5
F3
330
2
100
AcDbEntity
  8
0
 62
   139
370
     0
100
AcDb2dPolyline
 66
     1
 10
0.0
 20
0.0
 30
0.0
  0
VERTEX
  5
F4
330
F3
100
AcDbEntity
  8
0
 62
   139
370
     0
100
AcDbVertex
100
AcDb2dVertex
 10
108.6989254113964
 20
582.1924292066673
 30
0.0
  0
VERTEX
  5
F5
330
F3
100
AcDbEntity
  8
0
 62
   139
370
     0
100
AcDbVertex
100
AcDb2dVertex
 10
108.9366896816441
 20
582.3102403315648
 30
0.0
  0
VERTEX
  5
F6
330
F3
100
AcDbEntity
  8
0
 62
   139
370
     0
100
AcDbVertex
100
AcDb2dVertex
 10
109.2944070972421
 20
582.6679577471629
 30
0.0
  0
VERTEX
  5
F7
330
F3
100
AcDbEntity
  8
0
 62
   139
370
     0
100
AcDbVertex
100
AcDb2dVertex
 10
109.2944070972421
 20
580.1682198788824
 30
0.0
  0
SEQEND
  5
F8
330
F3
100
AcDbEntity
  8
0
 62
   139
370
     0
  0
POLYLINE
  5
F9
330
2
100
AcDbEntity
  8
0
 62
   139
370
     0
100
AcDb2dPolyline
 66
     1
 10
0.0
 20
0.0
 30
0.0
  0
VERTEX
  5
FA
330
F9
100
AcDbEntity
  8
0
 62
   139
370
     0
100
AcDbVertex
100
AcDb2dVertex
 10
110.6031815938313
 20
581.2392301052235
 30
0.0
  0
VERTEX
  5
FB
330
F9
100
AcDbEntity
  8
0
 62
   139
370
     0
100
AcDbVertex
100
AcDb2dVertex
 10
111.7941449655227
 20
581.2392301052235
 30
0.0
  0
SEQEND
  5
FC
330
F9
100
AcDbEntity
  8
0
 62
   139
370
     0
  0
POLYLINE
  5
FD
330
2
100
AcDbEntity
  8
0
 62
   139
370
     0
100
AcDb2dPolyline
 66
     1
 10
0.0
 20
0.0
 30
0.0
  0
VERTEX
  5
FE
330
FD
100
AcDbEntity
  8
0
 62
   139
370
     0
100
AcDbVertex
100
AcDb2dVertex
 10
114.1739296884529
 20
582.6679577471629
 30
0.0
  0
VERTEX
  5
FF
330
FD
100
AcDbEntity
  8
0
 62
   139
370
     0
100
AcDbVertex
100
AcDb2dVertex
 10
112.9829663167615
 20
582.6679577471629
 30
0.0
  0
VERTEX
  5
100
330
FD
100
AcDbEntity
  8
0
 62
   139
370
     0
100
AcDbVertex
100
AcDb2dVertex
 10
112.8651551918642
 20
581.5969475208215
 30
0.0
  0
VERTEX
  5
101
330
FD
100
AcDbEntity
  8
0
 62
   139
370
     0
100
AcDbVertex
100
AcDb2dVertex
 10
112.9829663167615
 20
581.7169006661718
 30
0.0
  0
VERTEX
  5
102
330
FD
100
AcDbEntity
  8
0
 62
   139
370
     0
100
AcDbVertex
100
AcDb2dVertex
 10
113.3406837323596
 20
581.8347117910694
 30
0.0
  0
VERTEX
  5
103
330
FD
100
AcDbEntity
  8
0
 62
   139
370
     0
100
AcDbVertex
100
AcDb2dVertex
 10
113.6984011479576
 20
581.8347117910694
 30
0.0
  0
VERTEX
  5
104
330
FD
100
AcDbEntity
  8
0
 62
   139
370
     0
100
AcDbVertex
100
AcDb2dVertex
 10
114.0539765431026
 20
581.7169006661718
 30
0.0
  0
VERTEX
  5
105
330
FD
100
AcDbEntity
  8
0
 62
   139
370
     0
100
AcDbVertex
100
AcDb2dVertex
 10
114.2917408133508
 20
581.4769943754714
 30
0.0
  0
VERTEX
  5
106
330
FD
100
AcDbEntity
  8
0
 62
   139
370
     0
100
AcDbVertex
100
AcDb2dVertex
 10
114.4116939587006
 20
581.1214189803262
 30
0.0
  0
VERTEX
  5
107
330
FD
100
AcDbEntity
  8
0
 62
   139
370
     0
100
AcDbVertex
100
AcDb2dVertex
 10
114.4116939587006
 20
580.8836547100782
 30
0.0
  0
VERTEX
  5
108
330
FD
100
AcDbEntity
  8
0
 62
   139
370
     0
100
AcDbVertex
100
AcDb2dVertex
 10
114.2917408133508
 20
580.5259372944802
 30
0.0
  0
VERTEX
  5
109
330
FD
100
AcDbEntity
  8
0
 62
   139
370
     0
100
AcDbVertex
100
AcDb2dVertex
 10
114.0539765431026
 20
580.2881730242326
 30
0.0
  0
VERTEX
  5
10A
330
FD
100
AcDbEntity
  8
0
 62
   139
370
     0
100
AcDbVertex
100
AcDb2dVertex
 10
113.6984011479576
 20
580.1682198788824
 30
0.0
  0
VERTEX
  5
10B
330
FD
100
AcDbEntity
  8
0
 62
   139
370
     0
100
AcDbVertex
100
AcDb2dVertex
 10
113.3406837323596
 20
580.1682198788824
 30
0.0
  0
VERTEX
  5
10C
330
FD
100
AcDbEntity
  8
0
 62
   139
370
     0
100
AcDbVertex
100
AcDb2dVertex
 10
112.9829663167615
 20
580.2881730242326
 30
0.0
  0
VERTEX
  5
10D
330
FD
100
AcDbEntity
  8
0
 62
   139
370
     0
100
AcDbVertex
100
AcDb2dVertex
 10
112.8651551918642
 20
580.4059841491302
 30
0.0
  0
VERTEX
  5
10E
330
FD
100
AcDbEntity
  8
0
 62
   139
370
     0
100
AcDbVertex
100
AcDb2dVertex
 10
112.7452020465139
 20
580.6437484193778
 30
0.0
  0
SEQEND
  5
10F
330
FD
100
AcDbEntity
  8
0
 62
   139
370
     0
  0
LWPOLYLINE
  5
110
330
2
100
AcDbEntity
  8
0
100
AcDbPolyline
 90
       64
 70
     1
 43
0.0
 10
230.7104704421672
 20
547.3626218163182
 10
222.1952590589276
 20
547.3626218163182
 10
222.1952590589276
 20
544.3626218163181
 10
220.6952590589276
 20
544.3626218163181
 10
220.6952590589276
 20
540.3626218163177
 10
223.8493113599552
 20
540.3626218163177
 42
0.1989123673797956
 10
223.7760880552519
 20
540.5393985116146
 10
223.5813094051341
 20
540.7341771617326
 42
-0.2516534781385659
 10
223.5131062231476
 20
540.9608022243661
 42
-0.0962758983517508
 10
223.9511641378681
 20
542.0183675831903
 42
-0.2516534781393618
 10
224.1596391889252
 20
542.1303887692844
 10
224.4350977975819
 20
542.130388769284
 42
0.4142135623735784
 10
224.6850977975823
 20
542.3803887692839
 10
224.6850977975823
 20
542.6558473779411
 42
-0.2516534781388446
 10
224.7971189836762
 20
542.8643224289977
 42
-0.0962758983518181
 10
225.8546843425001
 20
543.3023803437189
 42
-0.2516534781388384
 10
226.0813094051341
 20
543.2341771617322
 10
226.2760880552519
 20
543.0393985116144
 42
0.4142135623730948
 10
226.6296414458452
 20
543.0393985116144
 10
226.824420095963
 20
543.2341771617322
 42
-0.2516534781387805
 10
227.0510451585969
 20
543.3023803437189
 42
-0.0962758983517742
 10
228.1086105174209
 20
542.8643224289982
 42
-0.2516534781388406
 10
228.2206317035147
 20
542.6558473779415
 10
228.2206317035147
 20
542.3803887692844
 42
0.4142135623730951
 10
228.4706317035148
 20
542.1303887692844
 10
228.7460903121719
 20
542.1303887692844
 42
-0.2516534781388268
 10
228.9545653632286
 20
542.0183675831905
 42
-0.0962758983518138
 10
229.3926232779495
 20
540.9608022243658
 42
-0.2516534781390638
 10
229.3244200959625
 20
540.7341771617317
 10
229.1296414458452
 20
540.5393985116148
 42
0.1989123673806894
 10
229.0564181411419
 20
540.3626218163177
 10
243.8764996477112
 20
540.3626218163181
 42
0.1989123673802466
 10
243.8032763430078
 20
540.5393985116148
 10
243.6084976928905
 20
540.7341771617317
 42
-0.2516534781390574
 10
243.5402945109036
 20
540.9608022243658
 42
-0.0962758983518224
 10
243.9783524256245
 20
542.0183675831905
 42
-0.251653478138825
 10
244.1868274766812
 20
542.1303887692844
 10
244.4622860853383
 20
542.1303887692844
 42
0.4142135623730951
 10
244.7122860853383
 20
542.3803887692844
 10
244.7122860853383
 20
542.6558473779415
 42
-0.251653478138963
 10
244.8243072714322
 20
542.8643224289984
 42
-0.0962758983517811
 10
245.8818726302561
 20
543.3023803437189
 42
-0.2516534781387287
 10
246.1084976928901
 20
543.2341771617322
 10
246.3032763430078
 20
543.0393985116146
 42
0.4142135623730975
 10
246.6568297336012
 20
543.0393985116146
 10
246.8516083837189
 20
543.2341771617322
 42
-0.251653478138858
 10
247.0782334463529
 20
543.3023803437189
 42
-0.0962758983518277
 10
248.1357988051768
 20
542.8643224289977
 42
-0.2516534781387323
 10
248.2478199912707
 20
542.6558473779411
 10
248.2478199912707
 20
542.3803887692839
 42
0.4142135623735778
 10
248.4978199912712
 20
542.130388769284
 10
248.7732785999278
 20
542.1303887692844
 42
-0.2516534781392721
 10
248.981753650985
 20
542.0183675831903
 42
-0.0962758983517274
 10
249.4198115657054
 20
540.9608022243664
 42
-0.2516534781386081
 10
249.3516083837189
 20
540.7341771617326
 10
249.1568297336012
 20
540.5393985116146
 42
0.1989123673797841
 10
249.0836064288978
 20
540.3626218163177
 10
252.2376587299254
 20
540.3626218163177
 10
252.2376587299254
 20
544.3626218163181
 10
250.7376587299254
 20
544.3626218163181
 10
250.7376587299254
 20
547.3626218163182
 10
242.2224473466858
 20
547.3626218163182
 10
242.2224473466858
 20
544.362621816318
 10
230.7104704421672
 20
544.3626218163184
  0
LWPOLYLINE
  5
111
330
2
100
AcDbEntity
  8
0
100
AcDbPolyline
 90
       64
 70
     1
 43
0.0
 10
230.7104704421672
 20
530.1230642266411
 10
222.1952590589276
 20
530.1230642266411
 10
222.1952590589276
 20
533.1230642266411
 10
220.6952590589276
 20
533.1230642266411
 10
220.6952590589276
 20
537.1230642266415
 10
223.8493113599552
 20
537.1230642266415
 42
-0.1989123673797956
 10
223.7760880552519
 20
536.9462875313446
 10
223.5813094051341
 20
536.7515088812266
 42
0.2516534781385659
 10
223.5131062231476
 20
536.5248838185931
 42
0.0962758983517508
 10
223.9511641378681
 20
535.467318459769
 42
0.2516534781393618
 10
224.1596391889252
 20
535.3552972736748
 10
224.4350977975819
 20
535.3552972736753
 42
-0.4142135623735784
 10
224.6850977975823
 20
535.1052972736753
 10
224.6850977975823
 20
534.8298386650181
 42
0.2516534781388446
 10
224.7971189836762
 20
534.6213636139615
 42
0.0962758983518181
 10
225.8546843425001
 20
534.1833056992403
 42
0.2516534781388384
 10
226.0813094051341
 20
534.251508881227
 10
226.2760880552519
 20
534.4462875313448
 42
-0.4142135623730948
 10
226.6296414458452
 20
534.4462875313448
 10
226.824420095963
 20
534.251508881227
 42
0.2516534781387805
 10
227.0510451585969
 20
534.1833056992403
 42
0.0962758983517742
 10
228.1086105174209
 20
534.621363613961
 42
0.2516534781388406
 10
228.2206317035147
 20
534.8298386650177
 10
228.2206317035147
 20
535.1052972736749
 42
-0.4142135623730951
 10
228.4706317035148
 20
535.3552972736748
 10
228.7460903121719
 20
535.3552972736748
 42
0.2516534781388268
 10
228.9545653632286
 20
535.4673184597687
 42
0.0962758983518138
 10
229.3926232779495
 20
536.5248838185933
 42
0.2516534781390638
 10
229.3244200959625
 20
536.7515088812275
 10
229.1296414458452
 20
536.9462875313444
 42
-0.1989123673806894
 10
229.0564181411419
 20
537.1230642266415
 10
243.8764996477112
 20
537.123064226641
 42
-0.1989123673802466
 10
243.8032763430078
 20
536.9462875313444
 10
243.6084976928905
 20
536.7515088812275
 42
0.2516534781390574
 10
243.5402945109036
 20
536.5248838185933
 42
0.0962758983518224
 10
243.9783524256245
 20
535.4673184597687
 42
0.251653478138825
 10
244.1868274766812
 20
535.3552972736748
 10
244.4622860853383
 20
535.3552972736748
 42
-0.4142135623730951
 10
244.7122860853383
 20
535.1052972736749
 10
244.7122860853383
 20
534.8298386650177
 42
0.251653478138963
 10
244.8243072714322
 20
534.6213636139608
 42
0.0962758983517811
 10
245.8818726302561
 20
534.1833056992403
 42
0.2516534781387287
 10
246.1084976928901
 20
534.251508881227
 10
246.3032763430078
 20
534.4462875313446
 42
-0.4142135623730975
 10
246.6568297336012
 20
534.4462875313446
 10
246.8516083837189
 20
534.251508881227
 42
0.251653478138858
 10
247.0782334463529
 20
534.1833056992403
 42
0.0962758983518277
 10
248.1357988051768
 20
534.6213636139615
 42
0.2516534781387323
 10
248.2478199912707
 20
534.8298386650181
 10
248.2478199912707
 20
535.1052972736753
 42
-0.4142135623735778
 10
248.4978199912712
 20
535.3552972736753
 10
248.7732785999278
 20
535.3552972736748
 42
0.2516534781392721
 10
248.981753650985
 20
535.467318459769
 42
0.0962758983517274
 10
249.4198115657054
 20
536.5248838185928
 42
0.2516534781386081
 10
249.3516083837189
 20
536.7515088812266
 10
249.1568297336012
 20
536.9462875313446
 42
-0.1989123673797841
 10
249.0836064288978
 20
537.1230642266415
 10
252.2376587299254
 20
537.1230642266415
 10
252.2376587299254
 20
533.1230642266411
 10
250.7376587299254
 20
533.1230642266411
 10
250.7376587299254
 20
530.1230642266411
 10
242.2224473466858
 20
530.1230642266411
 10
242.2224473466858
 20
533.1230642266413
 10
230.7104704421672
 20
533.1230642266408
  0
CIRCLE
  5
112
330
2
100
AcDbEntity
  8
0
100
AcDbCircle
 10
236.4664588944288
 20
594.3572463111856
 30
0.0
 40
16.5
  0
LWPOLYLINE
  5
113
330
2
100
AcDbEntity
  8
0
100
AcDbPolyline
 90
       20
 70
     1
 43
0.0
 10
272.4667691112122
 20
616.2772463085417
 42
0.4142135623730951
 10
263.3867691112123
 20
625.3572463085417
 10
209.5461486776453
 20
625.3572463085417
 42
0.4142135623730951
 10
200.4661486776454
 20
616.2772463085417
 10
200.4661486776454
 20
598.3569360917584
 42
0.4142135623730951
 10
202.4661486776454
 20
596.3569360917585
 10
206.4661486776449
 20
596.3569360917585
 42
-1.0
 10
206.4661486776449
 20
592.3569360917585
 10
202.4661486776449
 20
592.3569360917585
 42
0.4142135623730749
 10
200.4661486776449
 20
590.3569360917587
 10
200.466148677644
 20
572.4372463085427
 42
0.4142235577143368
 10
209.5464585427135
 20
563.3572463138292
 10
263.3870789762827
 20
563.3572463138292
 42
0.4142035671025389
 10
272.4667691112136
 20
572.4372463085427
 10
272.4667691112127
 20
590.3569360917587
 42
0.4142135623730753
 10
270.4667691112127
 20
592.3569360917585
 10
266.4667691112127
 20
592.3569360917585
 42
-1.0
 10
266.4667691112127
 20
596.3569360917585
 10
270.4667691112122
 20
596.3569360917585
 42
0.4142135623730951
 10
272.4667691112122
 20
598.3569360917584
  0
CIRCLE
  5
114
330
2
100
AcDbEntity
  8
0
100
AcDbCircle
 10
263.3867691112123
 20
616.277556527969
 30
0.0
 40
3.5
  0
CIRCLE
  5
115
330
2
100
AcDbEntity
  8
0
100
AcDbCircle
 10
209.5461486776453
 20
616.277556527969
 30
0.0
 40
3.5
  0
CIRCLE
  5
116
330
2
100
AcDbEntity
  8
0
100
AcDbCircle
 10
209.5461486776453
 20
572.4369360944025
 30
0.0
 40
3.5
  0
CIRCLE
  5
117
330
2
100
AcDbEntity
  8
0
100
AcDbCircle
 10
263.3867691112123
 20
572.4369360944025
 30
0.0
 40
3.5
  0
LWPOLYLINE
  5
118
330
2
100
AcDbEntity
  8
0
100
AcDbPolyline
 90
        4
 70
     1
 43
0.0
 10
230.7104704421667
 20
568.8310314561155
 10
222.1952590589276
 20
568.8310314561155
 10
222.1952590589276
 20
565.8310314561155
 10
230.7104704421667
 20
565.8310314561155
  0
LWPOLYLINE
  5
119
330
2
100
AcDbEntity
  8
0
100
AcDbPolyline
 90
        4
 70
     1
 43
0.0
 10
242.2224473466908
 20
568.8310314561155
 10
250.73765872993
 20
568.8310314561155
 10
250.73765872993
 20
565.8310314561155
 10
242.2224473466908
 20
565.8310314561155
  0
LWPOLYLINE
  5
11A
330
2
100
AcDbEntity
  8
0
100
AcDbPolyline
 90
        4
 70
     1
 43
0.0
 10
32.26405070729175
 20
568.8310314561154
 10
23.7488393240526
 20
568.8310314561154
 10
23.7488393240526
 20
565.8310314561154
 10
32.26405070729175
 20
565.8310314561154
  0
LWPOLYLINE
  5
11B
330
2
100
AcDbEntity
  8
0
100
AcDbPolyline
 90
        4
 70
     1
 43
0.0
 10
43.77602761181583
 20
568.8310314561154
 10
52.29123899505498
 20
568.8310314561154
 10
52.29123899505498
 20
565.8310314561154
 10
43.77602761181583
 20
565.8310314561154
  0
ENDSEC
  0
SECTION
  2
OBJECTS
  0
DICTIONARY
  5
C
330
0
100
AcDbDictionary
281
     1
  3
ACAD_COLOR
350
4C
  3
ACAD_GROUP
350
39
  3
ACAD_LAYOUT
350
1A
  3
ACAD_MATERIAL
350
F
  3
ACAD_MLEADERSTYLE
350
4F
  3
ACAD_MLINESTYLE
350
3A
  3
ACAD_PLOTSETTINGS
350
3B
  3
ACAD_PLOTSTYLENAME
350
B
  3
ACAD_SCALELIST
350
4D
  3
ACAD_TABLESTYLE
350
4E
  3
ACAD_VISUALSTYLE
350
32
  3
ACDB_RECOMPOSE_DATA
350
12A
  3
AcDbVariableDictionary
350
11E
1001
ADE
1000
ADE02C004
1000
[Query]
1000
CaseSensitiveMatch=0
1000
SaveCurrQueryInSession=1
1000
MkSelSetWithQryObj=0
1000
ShowBlockAsInsPt=0
1000
CreateAssociativeHatchObjects=0
1000
ReferenceBoundaryForAreaLocation=1
1000
ShowImageAsBoundary=1
1000
DefaultJoinOperator=2
1000
ColorForAdd=red
1000
ColorForRemove=red
1000
BlockLocnForQuery=1
1000
TextLocnForQuery=1
1000
IncludeAllObjectsInGroups=0
1000
AlwaysUseLibraryDefinitions=0
1000
PreviewDefinitionsFrom=2
1000
[Save Back]
1000
RedefineBlockDefinitions=1
1000
RedefineLayerDefinitions=1
1000
RedefineTextStyleDefinitions=1
1000
RemoveUnusedGroups=1
1000
EraseSavedBackObjects=1
1000
RemoveLockAfterSave=1
1000
CreateHistoryFileOfChanges=0
1000
CreateBackupFileOfSourceDwg=1
1000
DontAddObjectsToSaveSet=0
1000
MarkObjectsForEditingWithoutPrompting=0
1000
FdoDontAddObjsToSvSet=0
1000
FdoEditWithoutPrompt=1
1000
FdoRemUnusedGrps=1
1000
FdoEraseSvdBkObjs=1
1000
FdoRemoveLockOnSave=1
1000
FdoTesselationMaxPointsDistance=0
1000
FdoTesselationMaxCurvesDistance=0
1000
[Coordinate Transformation]
1000
RestoreLastActiveDwgsOnStartup=1
1000
ActivateDwgsOnAttach=1
1000
AdjustSizesAndScalesForChangesInUnits=1
1000
AdjustRotationsForMapDistortions=1
1000
AdjustSizesAndScalesForMapDistortions=1
1000
AdjustElevations=1
1000
AdjustZeroRotationObjects=1
1000
ReconnectDbOnWSOpen=1
1000
NoOfSQLConditionsInHistory=10
  0
DICTIONARY
  5
23
330
22
100
AcDbDictionary
280
     1
281
     1
  3
ACAD_LAYERFILTERS
360
24
  3
ACAD_LAYERSTATES
360
25
  0
DICTIONARY
  5
8
330
7
100
AcDbDictionary
280
     1
281
     1
  3
ADSK_XREC_LAYER_RECONCILED
360
9
  0
DICTIONARY
  5
3
330
2
100
AcDbDictionary
280
     1
281
     1
  3
ACAD_ASSOCNETWORK
360
4
  3
ACAD_SORTENTS
360
11C
  0
DICTIONARY
  5
4C
102
{ACAD_REACTORS
330
C
102
}
330
C
100
AcDbDictionary
281
     1
  0
DICTIONARY
  5
39
102
{ACAD_REACTORS
330
C
102
}
330
C
100
AcDbDictionary
281
     1
  0
DICTIONARY
  5
1A
102
{ACAD_REACTORS
330
C
102
}
330
C
100
AcDbDictionary
281
     1
  3
Landscape
350
1F
  3
Model
350
19
  0
DICTIONARY
  5
F
102
{ACAD_REACTORS
330
C
102
}
330
C
100
AcDbDictionary
281
     1
  3
ByBlock
350
44
  3
ByLayer
350
3C
  3
Global
350
E
  0
DICTIONARY
  5
4F
102
{ACAD_REACTORS
330
C
102
}
330
C
100
AcDbDictionary
281
     1
  0
DICTIONARY
  5
3A
102
{ACAD_REACTORS
330
C
102
}
330
C
100
AcDbDictionary
281
     1
  3
Standard
350
51
  0
DICTIONARY
  5
3B
102
{ACAD_REACTORS
330
C
102
}
330
C
100
AcDbDictionary
281
     1
  0
ACDBDICTIONARYWDFLT
  5
B
102
{ACAD_REACTORS
330
C
102
}
330
C
100
AcDbDictionary
281
     1
  3
Normal
350
A
100
AcDbDictionaryWithDefault
340
A
  0
DICTIONARY
  5
4D
102
{ACAD_REACTORS
330
C
102
}
330
C
100
AcDbDictionary
281
     1
  3
A0
350
55
  3
A1
350
56
  3
A2
350
57
  3
A3
350
58
  3
A4
350
59
  3
A5
350
5A
  3
A6
350
5B
  3
A7
350
5C
  3
A8
350
5D
  3
A9
350
5E
  3
B0
350
5F
  3
B1
350
60
  3
B2
350
61
  3
B3
350
62
  3
B4
350
63
  3
B5
350
64
  3
B6
350
65
  0
DICTIONARY
  5
4E
102
{ACAD_REACTORS
330
C
102
}
330
C
100
AcDbDictionary
281
     1
  3
Standard
350
52
  0
DICTIONARY
  5
32
102
{ACAD_REACTORS
330
C
102
}
330
C
100
AcDbDictionary
281
     1
  3
2dWireframe
350
31
  3
Realistic
350
53
  3
Wireframe
350
54
  0
XRECORD
  5
12A
102
{ACAD_REACTORS
330
C
102
}
330
C
100
AcDbXrecord
280
     1
 90
        1
330
52
  0
DICTIONARY
  5
11E
102
{ACAD_REACTORS
330
C
102
}
330
C
100
AcDbDictionary
281
     1
  3
CANNOSCALE
350
124
  3
CMLEADERSTYLE
350
120
  3
CTABLESTYLE
350
11F
  3
CVIEWDETAILSTYLE
350
121
  3
CVIEWSECTIONSTYLE
350
122
  3
LAYEREVAL
350
126
  3
LAYERNOTIFY
350
127
  3
LIGHTINGUNITS
350
125
  3
MSLTSCALE
350
123
  0
DICTIONARY
  5
24
102
{ACAD_REACTORS
330
23
102
}
330
23
100
AcDbDictionary
281
     1
  0
DICTIONARY
  5
25
102
{ACAD_REACTORS
330
23
102
}
330
23
100
AcDbDictionary
281
     1
  0
XRECORD
  5
9
102
{ACAD_REACTORS
330
8
102
}
330
8
100
AcDbXrecord
280
     1
290
     1
  0
DICTIONARY
  5
4
102
{ACAD_REACTORS
330
3
102
}
330
3
100
AcDbDictionary
281
     1
  0
SORTENTSTABLE
  5
11C
102
{ACAD_REACTORS
330
3
102
}
330
3
100
AcDbSortentsTable
330
2
  0
LAYOUT
  5
1F
102
{ACAD_XDICTIONARY
360
20
102
}
102
{ACAD_REACTORS
330
1A
102
}
330
1A
100
AcDbPlotSettings
  1

  2
Microsoft Print to PDF.pc3
  4
A4
  6

 40
3.174999952316284
 41
3.174999952316284
 42
3.17498779296875
 43
3.175003051757812
 44
297.0106506347656
 45
210.0156707763672
 46
0.0
 47
0.0
 48
0.0
 49
0.0
140
0.0
141
0.0
142
1.0
143
1.0
 70
   688
 72
     1
 73
     0
 74
     5
  7
monochrome.ctb
 75
    16
147
1.0
 76
     1
 77
     3
 78
   600
148
0.0
149
0.0
100
AcDbLayout
  1
Landscape
 70
     0
 71
     1
 10
-3.174999952316284
 20
-3.174999952316284
 11
293.8356506824494
 21
206.8406708240509
 12
0.0
 22
0.0
 32
0.0
 14
0.5548555633881734
 24
0.1673825080200686
 34
-0.0015258207003583
 15
290.5589988370714
 25
202.9855557698479
 35
0.0000000349246037
146
0.0
 13
0.0
 23
0.0
 33
0.0
 16
1.0
 26
0.0
 36
0.0
 17
0.0
 27
1.0
 37
0.0
 76
     0
330
1C
1001
ACAD_PSEXT
1000
Microsoft Print to PDF.pc3
1000
Microsoft Print To PDF
1000
PORTPROMPT:
1000

1070
     0
  0
LAYOUT
  5
19
102
{ACAD_XDICTIONARY
360
1B
102
}
102
{ACAD_REACTORS
330
1A
102
}
330
1A
100
AcDbPlotSettings
  1

  2
HP LaserJet 4L
  4
Letter
  6

 40
7.143749713897705
 41
5.027085304260253
 42
7.14373779296875
 43
5.027069091796875
 44
215.8999938964844
 45
279.3999938964844
 46
0.0
 47
0.0
 48
0.0
 49
0.0
140
0.0
141
0.0
142
1.0
143
1.0
 70
 11952
 72
     1
 73
     1
 74
     0
  7

 75
     0
147
1.0
 76
     0
 77
     2
 78
   300
148
-43219.15422176181
149
1998.377131679037
100
AcDbLayout
  1
Model
 70
     1
 71
     0
 10
0.0
 20
0.0
 11
12.0
 21
9.0
 12
0.0
 22
0.0
 32
0.0
 14
0.0
 24
0.0
 34
0.0
 15
0.0
 25
0.0
 35
0.0
146
0.0
 13
0.0
 23
0.0
 33
0.0
 16
1.0
 26
0.0
 36
0.0
 17
0.0
 27
1.0
 37
0.0
 76
     0
330
2
331
30
  0
MATERIAL
  5
44
102
{ACAD_XDICTIONARY
360
45
102
}
102
{ACAD_REACTORS
330
F
102
}
330
F
100
AcDbMaterial
  1
ByBlock
 72
     0
 43
0.0008202099737533
 43
0.0
 43
0.0
 43
0.0
 43
0.0
 43
0.0008202099737533
 43
0.0
 43
0.0
 43
0.0
 43
0.0
 43
1.0
 43
0.0
 43
0.0
 43
0.0
 43
0.0
 43
1.0
 77
     0
 47
0.0008202099737533
 47
0.0
 47
0.0
 47
0.0
 47
0.0
 47
0.0008202099737533
 47
0.0
 47
0.0
 47
0.0
 47
0.0
 47
1.0
 47
0.0
 47
0.0
 47
0.0
 47
0.0
 47
1.0
171
     0
 49
0.0008202099737533
 49
0.0
 49
0.0
 49
0.0
 49
0.0
 49
0.0008202099737533
 49
0.0
 49
0.0
 49
0.0
 49
0.0
 49
1.0
 49
0.0
 49
0.0
 49
0.0
 49
0.0
 49
1.0
175
     0
142
0.0008202099737533
142
0.0
142
0.0
142
0.0
142
0.0
142
0.0008202099737533
142
0.0
142
0.0
142
0.0
142
0.0
142
1.0
142
0.0
142
0.0
142
0.0
142
0.0
142
1.0
179
     0
144
0.0008202099737533
144
0.0
144
0.0
144
0.0
144
0.0
144
0.0008202099737533
144
0.0
144
0.0
144
0.0
144
0.0
144
1.0
144
0.0
144
0.0
144
0.0
144
0.0
144
1.0
147
0.0008202099737533
147
0.0
147
0.0
147
0.0
147
0.0
147
0.0008202099737533
147
0.0
147
0.0
147
0.0
147
0.0
147
1.0
147
0.0
147
0.0
147
0.0
147
0.0
147
1.0
  0
MATERIAL
  5
3C
102
{ACAD_XDICTIONARY
360
3D
102
}
102
{ACAD_REACTORS
330
F
102
}
330
F
100
AcDbMaterial
  1
ByLayer
 72
     0
 43
0.0008202099737533
 43
0.0
 43
0.0
 43
0.0
 43
0.0
 43
0.0008202099737533
 43
0.0
 43
0.0
 43
0.0
 43
0.0
 43
1.0
 43
0.0
 43
0.0
 43
0.0
 43
0.0
 43
1.0
 77
     0
 47
0.0008202099737533
 47
0.0
 47
0.0
 47
0.0
 47
0.0
 47
0.0008202099737533
 47
0.0
 47
0.0
 47
0.0
 47
0.0
 47
1.0
 47
0.0
 47
0.0
 47
0.0
 47
0.0
 47
1.0
171
     0
 49
0.0008202099737533
 49
0.0
 49
0.0
 49
0.0
 49
0.0
 49
0.0008202099737533
 49
0.0
 49
0.0
 49
0.0
 49
0.0
 49
1.0
 49
0.0
 49
0.0
 49
0.0
 49
0.0
 49
1.0
175
     0
142
0.0008202099737533
142
0.0
142
0.0
142
0.0
142
0.0
142
0.0008202099737533
142
0.0
142
0.0
142
0.0
142
0.0
142
1.0
142
0.0
142
0.0
142
0.0
142
0.0
142
1.0
179
     0
144
0.0008202099737533
144
0.0
144
0.0
144
0.0
144
0.0
144
0.0008202099737533
144
0.0
144
0.0
144
0.0
144
0.0
144
1.0
144
0.0
144
0.0
144
0.0
144
0.0
144
1.0
147
0.0008202099737533
147
0.0
147
0.0
147
0.0
147
0.0
147
0.0008202099737533
147
0.0
147
0.0
147
0.0
147
0.0
147
1.0
147
0.0
147
0.0
147
0.0
147
0.0
147
1.0
  0
MATERIAL
  5
E
102
{ACAD_XDICTIONARY
360
10
102
}
102
{ACAD_REACTORS
330
F
102
}
330
F
100
AcDbMaterial
  1
Global
 72
     0
 43
0.0008202099737533
 43
0.0
 43
0.0
 43
0.0
 43
0.0
 43
0.0008202099737533
 43
0.0
 43
0.0
 43
0.0
 43
0.0
 43
1.0
 43
0.0
 43
0.0
 43
0.0
 43
0.0
 43
1.0
 77
     0
 47
0.0008202099737533
 47
0.0
 47
0.0
 47
0.0
 47
0.0
 47
0.0008202099737533
 47
0.0
 47
0.0
 47
0.0
 47
0.0
 47
1.0
 47
0.0
 47
0.0
 47
0.0
 47
0.0
 47
1.0
171
     0
 49
0.0008202099737533
 49
0.0
 49
0.0
 49
0.0
 49
0.0
 49
0.0008202099737533
 49
0.0
 49
0.0
 49
0.0
 49
0.0
 49
1.0
 49
0.0
 49
0.0
 49
0.0
 49
0.0
 49
1.0
175
     0
142
0.0008202099737533
142
0.0
142
0.0
142
0.0
142
0.0
142
0.0008202099737533
142
0.0
142
0.0
142
0.0
142
0.0
142
1.0
142
0.0
142
0.0
142
0.0
142
0.0
142
1.0
179
     0
144
0.0008202099737533
144
0.0
144
0.0
144
0.0
144
0.0
144
0.0008202099737533
144
0.0
144
0.0
144
0.0
144
0.0
144
1.0
144
0.0
144
0.0
144
0.0
144
0.0
144
1.0
147
0.0008202099737533
147
0.0
147
0.0
147
0.0
147
0.0
147
0.0008202099737533
147
0.0
147
0.0
147
0.0
147
0.0
147
1.0
147
0.0
147
0.0
147
0.0
147
0.0
147
1.0
  0
MLINESTYLE
  5
51
102
{ACAD_REACTORS
330
3A
102
}
330
3A
100
AcDbMlineStyle
  2
STANDARD
 70
     0
  3

 62
   256
 51
90.0
 52
90.0
 71
     2
 49
0.5
 62
   256
  6
BYLAYER
 49
-0.5
 62
   256
  6
BYLAYER
  0
ACDBPLACEHOLDER
  5
A
102
{ACAD_REACTORS
330
B
102
}
330
B
  0
SCALE
  5
55
102
{ACAD_REACTORS
330
4D
102
}
330
4D
100
AcDbScale
 70
     0
300
1:1
140
1.0
141
1.0
290
     1
  0
SCALE
  5
56
102
{ACAD_REACTORS
330
4D
102
}
330
4D
100
AcDbScale
 70
     0
300
1:2
140
1.0
141
2.0
290
     0
  0
SCALE
  5
57
102
{ACAD_REACTORS
330
4D
102
}
330
4D
100
AcDbScale
 70
     0
300
1:4
140
1.0
141
4.0
290
     0
  0
SCALE
  5
58
102
{ACAD_REACTORS
330
4D
102
}
330
4D
100
AcDbScale
 70
     0
300
1:5
140
1.0
141
5.0
290
     0
  0
SCALE
  5
59
102
{ACAD_REACTORS
330
4D
102
}
330
4D
100
AcDbScale
 70
     0
300
1:8
140
1.0
141
8.0
290
     0
  0
SCALE
  5
5A
102
{ACAD_REACTORS
330
4D
102
}
330
4D
100
AcDbScale
 70
     0
300
1:10
140
1.0
141
10.0
290
     0
  0
SCALE
  5
5B
102
{ACAD_REACTORS
330
4D
102
}
330
4D
100
AcDbScale
 70
     0
300
1:16
140
1.0
141
16.0
290
     0
  0
SCALE
  5
5C
102
{ACAD_REACTORS
330
4D
102
}
330
4D
100
AcDbScale
 70
     0
300
1:20
140
1.0
141
20.0
290
     0
  0
SCALE
  5
5D
102
{ACAD_REACTORS
330
4D
102
}
330
4D
100
AcDbScale
 70
     0
300
1:30
140
1.0
141
30.0
290
     0
  0
SCALE
  5
5E
102
{ACAD_REACTORS
330
4D
102
}
330
4D
100
AcDbScale
 70
     0
300
1:40
140
1.0
141
40.0
290
     0
  0
SCALE
  5
5F
102
{ACAD_REACTORS
330
4D
102
}
330
4D
100
AcDbScale
 70
     0
300
1:50
140
1.0
141
50.0
290
     0
  0
SCALE
  5
60
102
{ACAD_REACTORS
330
4D
102
}
330
4D
100
AcDbScale
 70
     0
300
1:100
140
1.0
141
100.0
290
     0
  0
SCALE
  5
61
102
{ACAD_REACTORS
330
4D
102
}
330
4D
100
AcDbScale
 70
     0
300
2:1
140
2.0
141
1.0
290
     0
  0
SCALE
  5
62
102
{ACAD_REACTORS
330
4D
102
}
330
4D
100
AcDbScale
 70
     0
300
4:1
140
4.0
141
1.0
290
     0
  0
SCALE
  5
63
102
{ACAD_REACTORS
330
4D
102
}
330
4D
100
AcDbScale
 70
     0
300
8:1
140
8.0
141
1.0
290
     0
  0
SCALE
  5
64
102
{ACAD_REACTORS
330
4D
102
}
330
4D
100
AcDbScale
 70
     0
300
10:1
140
10.0
141
1.0
290
     0
  0
SCALE
  5
65
102
{ACAD_REACTORS
330
4D
102
}
330
4D
100
AcDbScale
 70
     0
300
100:1
140
100.0
141
1.0
290
     0
  0
TABLESTYLE
  5
52
102
{ACAD_XDICTIONARY
360
128
102
}
102
{ACAD_REACTORS
330
4E
102
}
330
4E
100
AcDbTableStyle
280
     0
  3
Standard
 70
     0
 71
     0
 40
0.06
 41
0.06
280
     0
281
     0
  7
Standard
140
0.18
170
     2
 62
     0
 63
     7
283
     0
 90
        4
 91
        0
  1

274
    -2
284
     1
 64
     0
275
    -2
285
     1
 65
     0
276
    -2
286
     1
 66
     0
277
    -2
287
     1
 67
     0
278
    -2
288
     1
 68
     0
279
    -2
289
     1
 69
     0
  7
Standard
140
0.25
170
     5
 62
     0
 63
     7
283
     0
 90
        4
 91
        0
  1

274
    -2
284
     1
 64
     0
275
    -2
285
     1
 65
     0
276
    -2
286
     1
 66
     0
277
    -2
287
     1
 67
     0
278
    -2
288
     1
 68
     0
279
    -2
289
     1
 69
     0
  7
Standard
140
0.18
170
     5
 62
     0
 63
     7
283
     0
 90
        4
 91
        0
  1

274
    -2
284
     1
 64
     0
275
    -2
285
     1
 65
     0
276
    -2
286
     1
 66
     0
277
    -2
287
     1
 67
     0
278
    -2
288
     1
 68
     0
279
    -2
289
     1
 69
     0
  0
VISUALSTYLE
  5
31
102
{ACAD_REACTORS
330
32
102
}
330
32
100
AcDbVisualStyle
  2
2dWireframe
 70
     4
177
     3
291
     0
 70
    58
 90
        0
176
     1
 90
        2
176
     1
 90
        0
176
     1
 90
        0
176
     1
 40
0.6
176
     1
 40
30.0
176
     1
 62
     7
420
 16777215
176
     1
 90
        1
176
     1
 90
        4
176
     1
 62
     7
176
     1
 62
   257
176
     1
 90
        1
176
     1
 90
        1
176
     1
 40
1.0
176
     1
 90
        0
176
     1
 62
   257
176
     1
 40
1.0
176
     1
 90
        1
176
     1
 90
        6
176
     1
 90
        2
176
     1
 62
     7
176
     1
 90
        5
176
     1
 90
        0
176
     1
 90
        0
176
     1
290
     0
176
     1
 90
        1
176
     1
 40
0.0
176
     1
 90
        0
176
     1
290
     1
176
     1
290
     1
176
     1
290
     0
176
     1
290
     0
176
     1
290
     0
176
     1
290
     0
176
     1
290
     0
176
     1
290
     0
176
     1
290
     0
176
     1
 90
       50
176
     1
 40
0.0
176
     1
 40
1.0
176
     1
 90
        0
176
     1
 62
    18
420
        0
176
     1
 90
       50
176
     1
 90
        3
176
     1
 62
     5
420
      255
176
     1
290
     0
176
     1
 90
       50
176
     1
 90
       50
176
     1
 90
       50
176
     1
290
     0
176
     1
 90
       50
176
     1
 62
   256
176
     0
 40
1.0
176
     0
 90
        2
176
     1
  1
strokes_ogs.tif
176
     1
290
     0
176
     1
 40
1.0
176
     1
 40
1.0
176
     1
  0
VISUALSTYLE
  5
53
102
{ACAD_REACTORS
330
32
102
}
330
32
100
AcDbVisualStyle
  2
Realistic
 70
     8
177
     3
291
     0
 70
    58
 90
        2
176
     1
 90
        3
176
     1
 90
        0
176
     1
 90
        2
176
     1
 40
0.6
176
     1
 40
30.0
176
     1
 62
     7
420
 16777215
176
     1
 90
        0
176
     1
 90
        0
176
     1
 62
     7
176
     1
 62
   257
176
     1
 90
        1
176
     1
 90
        1
176
     1
 40
1.0
176
     1
 90
        8
176
     1
 62
   257
176
     1
 40
1.0
176
     1
 90
        1
176
     1
 90
        6
176
     1
 90
        2
176
     1
 62
     7
176
     1
 90
        3
176
     1
 90
        0
176
     1
 90
        0
176
     1
290
     0
176
     1
 90
       13
176
     1
 40
0.0
176
     1
 90
        0
176
     1
290
     0
176
     1
290
     1
176
     1
290
     1
176
     1
290
     0
176
     1
290
     0
176
     1
290
     0
176
     1
290
     0
176
     1
290
     0
176
     1
290
     0
176
     1
 90
       50
176
     1
 40
0.0
176
     1
 40
1.0
176
     1
 90
        0
176
     1
 62
    18
420
        0
176
     1
 90
       50
176
     1
 90
        3
176
     1
 62
     5
420
      255
176
     1
290
     0
176
     1
 90
       50
176
     1
 90
       50
176
     1
 90
       50
176
     1
290
     0
176
     1
 90
       50
176
     1
 62
   256
176
     0
 40
1.0
176
     0
 90
        2
176
     1
  1
strokes_ogs.tif
176
     1
290
     0
176
     1
 40
1.0
176
     1
 40
1.0
176
     1
  0
VISUALSTYLE
  5
54
102
{ACAD_REACTORS
330
32
102
}
330
32
100
AcDbVisualStyle
  2
Wireframe
 70
     5
177
     3
291
     0
 70
    58
 90
        0
176
     1
 90
        2
176
     1
 90
        0
176
     1
 90
        0
176
     1
 40
0.6
176
     1
 40
30.0
176
     1
 62
     7
420
 16777215
176
     1
 90
        1
176
     1
 90
        4
176
     1
 62
     7
176
     1
 62
   257
176
     1
 90
        1
176
     1
 90
        1
176
     1
 40
1.0
176
     1
 90
        0
176
     1
 62
   257
176
     1
 40
1.0
176
     1
 90
        1
176
     1
 90
        6
176
     1
 90
        2
176
     1
 62
     7
176
     1
 90
        3
176
     1
 90
        0
176
     1
 90
        0
176
     1
290
     0
176
     1
 90
        1
176
     1
 40
0.0
176
     1
 90
        0
176
     1
290
     0
176
     1
290
     1
176
     1
290
     1
176
     1
290
     0
176
     1
290
     0
176
     1
290
     0
176
     1
290
     0
176
     1
290
     0
176
     1
290
     0
176
     1
 90
       50
176
     1
 40
0.0
176
     1
 40
1.0
176
     1
 90
        0
176
     1
 62
    18
420
        0
176
     1
 90
       50
176
     1
 90
        3
176
     1
 62
     5
420
      255
176
     1
290
     0
176
     1
 90
       50
176
     1
 90
       50
176
     1
 90
       50
176
     1
290
     0
176
     1
 90
       50
176
     1
 62
   256
176
     0
 40
1.0
176
     0
 90
        2
176
     1
  1
strokes_ogs.tif
176
     1
290
     0
176
     1
 40
1.0
176
     1
 40
1.0
176
     1
  0
DICTIONARYVAR
  5
124
102
{ACAD_REACTORS
330
11E
102
}
330
11E
100
DictionaryVariables
280
     0
  1
1:1
  0
DICTIONARYVAR
  5
120
102
{ACAD_REACTORS
330
11E
102
}
330
11E
100
DictionaryVariables
280
     0
  1
STANDARD
  0
DICTIONARYVAR
  5
11F
102
{ACAD_REACTORS
330
11E
102
}
330
11E
100
DictionaryVariables
280
     0
  1
STANDARD
  0
DICTIONARYVAR
  5
121
102
{ACAD_REACTORS
330
11E
102
}
330
11E
100
DictionaryVariables
280
     0
  1

  0
DICTIONARYVAR
  5
122
102
{ACAD_REACTORS
330
11E
102
}
330
11E
100
DictionaryVariables
280
     0
  1

  0
DICTIONARYVAR
  5
126
102
{ACAD_REACTORS
330
11E
102
}
330
11E
100
DictionaryVariables
280
     0
  1
1
  0
DICTIONARYVAR
  5
127
102
{ACAD_REACTORS
330
11E
102
}
330
11E
100
DictionaryVariables
280
     0
  1
15
  0
DICTIONARYVAR
  5
125
102
{ACAD_REACTORS
330
11E
102
}
330
11E
100
DictionaryVariables
280
     0
  1
0
  0
DICTIONARYVAR
  5
123
102
{ACAD_REACTORS
330
11E
102
}
330
11E
100
DictionaryVariables
280
     0
  1
0
  0
DICTIONARY
  5
20
330
1F
100
AcDbDictionary
280
     1
281
     1
  0
DICTIONARY
  5
1B
330
19
100
AcDbDictionary
280
     1
281
     1
  0
DICTIONARY
  5
45
330
44
100
AcDbDictionary
280
     1
281
     1
  3
BUMPTILE
360
46
  3
DIFFUSETILE
360
47
  3
OPACITYTILE
360
48
  3
REFLECTIONTILE
360
49
  3
REFRACTIONTILE
360
4A
  3
SPECULARTILE
360
4B
  0
DICTIONARY
  5
3D
330
3C
100
AcDbDictionary
280
     1
281
     1
  3
BUMPTILE
360
3E
  3
DIFFUSETILE
360
3F
  3
OPACITYTILE
360
40
  3
REFLECTIONTILE
360
41
  3
REFRACTIONTILE
360
42
  3
SPECULARTILE
360
43
  0
DICTIONARY
  5
10
330
E
100
AcDbDictionary
280
     1
281
     1
  3
BUMPTILE
360
11
  3
DIFFUSETILE
360
12
  3
OPACITYTILE
360
13
  3
REFLECTIONTILE
360
14
  3
REFRACTIONTILE
360
15
  3
SPECULARTILE
360
16
  0
DICTIONARY
  5
128
330
52
100
AcDbDictionary
280
     1
281
     1
  3
ACAD_ROUNDTRIP_2008_TABLESTYLE_CELLSTYLEMAP
360
129
  0
XRECORD
  5
46
102
{ACAD_REACTORS
330
45
102
}
330
45
100
AcDbXrecord
280
     1
270
     1
271
     1
  0
XRECORD
  5
47
102
{ACAD_REACTORS
330
45
102
}
330
45
100
AcDbXrecord
280
     1
270
     1
271
     1
  0
XRECORD
  5
48
102
{ACAD_REACTORS
330
45
102
}
330
45
100
AcDbXrecord
280
     1
270
     1
271
     1
  0
XRECORD
  5
49
102
{ACAD_REACTORS
330
45
102
}
330
45
100
AcDbXrecord
280
     1
270
     1
271
     1
  0
XRECORD
  5
4A
102
{ACAD_REACTORS
330
45
102
}
330
45
100
AcDbXrecord
280
     1
270
     1
271
     1
  0
XRECORD
  5
4B
102
{ACAD_REACTORS
330
45
102
}
330
45
100
AcDbXrecord
280
     1
270
     1
271
     1
  0
XRECORD
  5
3E
102
{ACAD_REACTORS
330
3D
102
}
330
3D
100
AcDbXrecord
280
     1
270
     1
271
     1
  0
XRECORD
  5
3F
102
{ACAD_REACTORS
330
3D
102
}
330
3D
100
AcDbXrecord
280
     1
270
     1
271
     1
  0
XRECORD
  5
40
102
{ACAD_REACTORS
330
3D
102
}
330
3D
100
AcDbXrecord
280
     1
270
     1
271
     1
  0
XRECORD
  5
41
102
{ACAD_REACTORS
330
3D
102
}
330
3D
100
AcDbXrecord
280
     1
270
     1
271
     1
  0
XRECORD
  5
42
102
{ACAD_REACTORS
330
3D
102
}
330
3D
100
AcDbXrecord
280
     1
270
     1
271
     1
  0
XRECORD
  5
43
102
{ACAD_REACTORS
330
3D
102
}
330
3D
100
AcDbXrecord
280
     1
270
     1
271
     1
  0
XRECORD
  5
11
102
{ACAD_REACTORS
330
10
102
}
330
10
100
AcDbXrecord
280
     1
270
     1
271
     1
  0
XRECORD
  5
12
102
{ACAD_REACTORS
330
10
102
}
330
10
100
AcDbXrecord
280
     1
270
     1
271
     1
  0
XRECORD
  5
13
102
{ACAD_REACTORS
330
10
102
}
330
10
100
AcDbXrecord
280
     1
270
     1
271
     1
  0
XRECORD
  5
14
102
{ACAD_REACTORS
330
10
102
}
330
10
100
AcDbXrecord
280
     1
270
     1
271
     1
  0
XRECORD
  5
15
102
{ACAD_REACTORS
330
10
102
}
330
10
100
AcDbXrecord
280
     1
270
     1
271
     1
  0
XRECORD
  5
16
102
{ACAD_REACTORS
330
10
102
}
330
10
100
AcDbXrecord
280
     1
270
     1
271
     1
  0
CELLSTYLEMAP
  5
129
102
{ACAD_REACTORS
330
128
102
}
330
128
100
AcDbCellStyleMap
 90
        3
300
CELLSTYLE
  1
TABLEFORMAT_BEGIN
 90
        5
170
     1
 91
        0
 92
    32768
 62
   257
 93
        1
300
CONTENTFORMAT
  1
CONTENTFORMAT_BEGIN
 90
        0
 91
        0
 92
        4
 93
        0
300

 40
0.0
140
1.0
 94
        5
 62
     0
340
27
144
0.25
309
CONTENTFORMAT_END
171
     0
 94
        6
 95
        1
302
GRIDFORMAT
  1
GRIDFORMAT_BEGIN
 90
        0
 91
        1
 62
     0
 92
       -2
340
0
 93
        0
 40
0.045
309
GRIDFORMAT_END
 95
        2
302
GRIDFORMAT
  1
GRIDFORMAT_BEGIN
 90
        0
 91
        1
 62
     0
 92
       -2
340
0
 93
        0
 40
0.045
309
GRIDFORMAT_END
 95
        4
302
GRIDFORMAT
  1
GRIDFORMAT_BEGIN
 90
        0
 91
        1
 62
     0
 92
       -2
340
0
 93
        0
 40
0.045
309
GRIDFORMAT_END
 95
        8
302
GRIDFORMAT
  1
GRIDFORMAT_BEGIN
 90
        0
 91
        1
 62
     0
 92
       -2
340
0
 93
        0
 40
0.045
309
GRIDFORMAT_END
 95
       16
302
GRIDFORMAT
  1
GRIDFORMAT_BEGIN
 90
        0
 91
        1
 62
     0
 92
       -2
340
0
 93
        0
 40
0.045
309
GRIDFORMAT_END
 95
       32
302
GRIDFORMAT
  1
GRIDFORMAT_BEGIN
 90
        0
 91
        1
 62
     0
 92
       -2
340
0
 93
        0
 40
0.045
309
GRIDFORMAT_END
309
TABLEFORMAT_END
  1
CELLSTYLE_BEGIN
 90
        1
 91
        1
300
_TITLE
309
CELLSTYLE_END
300
CELLSTYLE
  1
TABLEFORMAT_BEGIN
 90
        5
170
     1
 91
        0
 92
        0
 62
   257
 93
        1
300
CONTENTFORMAT
  1
CONTENTFORMAT_BEGIN
 90
        0
 91
        0
 92
        4
 93
        0
300

 40
0.0
140
1.0
 94
        5
 62
     0
340
27
144
0.18
309
CONTENTFORMAT_END
171
     0
 94
        6
 95
        1
302
GRIDFORMAT
  1
GRIDFORMAT_BEGIN
 90
        0
 91
        1
 62
     0
 92
       -2
340
0
 93
        0
 40
0.045
309
GRIDFORMAT_END
 95
        2
302
GRIDFORMAT
  1
GRIDFORMAT_BEGIN
 90
        0
 91
        1
 62
     0
 92
       -2
340
0
 93
        0
 40
0.045
309
GRIDFORMAT_END
 95
        4
302
GRIDFORMAT
  1
GRIDFORMAT_BEGIN
 90
        0
 91
        1
 62
     0
 92
       -2
340
0
 93
        0
 40
0.045
309
GRIDFORMAT_END
 95
        8
302
GRIDFORMAT
  1
GRIDFORMAT_BEGIN
 90
        0
 91
        1
 62
     0
 92
       -2
340
0
 93
        0
 40
0.045
309
GRIDFORMAT_END
 95
       16
302
GRIDFORMAT
  1
GRIDFORMAT_BEGIN
 90
        0
 91
        1
 62
     0
 92
       -2
340
0
 93
        0
 40
0.045
309
GRIDFORMAT_END
 95
       32
302
GRIDFORMAT
  1
GRIDFORMAT_BEGIN
 90
        0
 91
        1
 62
     0
 92
       -2
340
0
 93
        0
 40
0.045
309
GRIDFORMAT_END
309
TABLEFORMAT_END
  1
CELLSTYLE_BEGIN
 90
        2
 91
        1
300
_HEADER
309
CELLSTYLE_END
300
CELLSTYLE
  1
TABLEFORMAT_BEGIN
 90
        5
170
     1
 91
        0
 92
        0
 62
   257
 93
        1
300
CONTENTFORMAT
  1
CONTENTFORMAT_BEGIN
 90
        0
 91
        0
 92
        4
 93
        0
300

 40
0.0
140
1.0
 94
        2
 62
     0
340
27
144
0.18
309
CONTENTFORMAT_END
171
     0
 94
        6
 95
        1
302
GRIDFORMAT
  1
GRIDFORMAT_BEGIN
 90
        0
 91
        1
 62
     0
 92
       -2
340
0
 93
        0
 40
0.045
309
GRIDFORMAT_END
 95
        2
302
GRIDFORMAT
  1
GRIDFORMAT_BEGIN
 90
        0
 91
        1
 62
     0
 92
       -2
340
0
 93
        0
 40
0.045
309
GRIDFORMAT_END
 95
        4
302
GRIDFORMAT
  1
GRIDFORMAT_BEGIN
 90
        0
 91
        1
 62
     0
 92
       -2
340
0
 93
        0
 40
0.045
309
GRIDFORMAT_END
 95
        8
302
GRIDFORMAT
  1
GRIDFORMAT_BEGIN
 90
        0
 91
        1
 62
     0
 92
       -2
340
0
 93
        0
 40
0.045
309
GRIDFORMAT_END
 95
       16
302
GRIDFORMAT
  1
GRIDFORMAT_BEGIN
 90
        0
 91
        1
 62
     0
 92
       -2
340
0
 93
        0
 40
0.045
309
GRIDFORMAT_END
 95
       32
302
GRIDFORMAT
  1
GRIDFORMAT_BEGIN
 90
        0
 91
        1
 62
     0
 92
       -2
340
0
 93
        0
 40
0.045
309
GRIDFORMAT_END
309
TABLEFORMAT_END
  1
CELLSTYLE_BEGIN
 90
        3
 91
        2
300
_DATA
309
CELLSTYLE_END
  0
ENDSEC
  0
SECTION
  2
ACDSDATA
 70
     2
 71
     8
  0
ACDSSCHEMA
 90
        0
  1
AcDb_Thumbnail_Schema
  2
AcDbDs::ID
280
    10
 91
        8
  2
Thumbnail_Data
280
    15
 91
        0
101
ACDSRECORD
 95
        0
 90
        1
  2
AcDbDs::TreatedAsObjectData
280
     1
291
     1
101
ACDSRECORD
 95
        0
 90
        2
  2
AcDbDs::Legacy
280
     1
291
     1
101
ACDSRECORD
  1
AcDbDs::ID
 90
        3
  2
AcDs:Indexable
280
     1
291
     1
101
ACDSRECORD
  1
AcDbDs::ID
 90
        4
  2
AcDbDs::HandleAttribute
280
     7
282
     1
  0
ACDSSCHEMA
 90
        1
  1
AcDbDs::TreatedAsObjectDataSchema
  2
AcDbDs::TreatedAsObjectData
280
     1
 91
        0
  0
ACDSSCHEMA
 90
        2
  1
AcDbDs::LegacySchema
  2
AcDbDs::Legacy
280
     1
 91
        0
  0
ACDSSCHEMA
 90
        3
  1
AcDbDs::IndexedPropertySchema
  2
AcDs:Indexable
280
     1
 91
        0
  0
ACDSSCHEMA
 90
        4
  1
AcDbDs::HandleAttributeSchema
  2
AcDbDs::HandleAttribute
280
     7
 91
        1
284
     1
  0
ACDSRECORD
 90
        0
  2
AcDbDs::ID
280
    10
320
19
  2
Thumbnail_Data
280
    15
 94
     1675
310
89504E470D0A1A0A0000000D4948445200000100000000790803000000E1F60FE900000300504C5445000000FFFFFF0000000000000000000000000000000000000000000000000000000000330000660000990000CC0000FF0033000033330033660033990033CC0033FF0066000066330066660066990066CC0066FF0099
310
000099330099660099990099CC0099FF00CC0000CC3300CC6600CC9900CCCC00CCFF00FF0000FF3300FF6600FF9900FFCC00FFFF3300003300333300663300993300CC3300FF3333003333333333663333993333CC3333FF3366003366333366663366993366CC3366FF3399003399333399663399993399CC3399FF33CC00
310
33CC3333CC6633CC9933CCCC33CCFF33FF0033FF3333FF6633FF9933FFCC33FFFF6600006600336600666600996600CC6600FF6633006633336633666633996633CC6633FF6666006666336666666666996666CC6666FF6699006699336699666699996699CC6699FF66CC0066CC3366CC6666CC9966CCCC66CCFF66FF0066
310
FF3366FF6666FF9966FFCC66FFFF9900009900339900669900999900CC9900FF9933009933339933669933999933CC9933FF9966009966339966669966999966CC9966FF9999009999339999669999999999CC9999FF99CC0099CC3399CC6699CC9999CCCC99CCFF99FF0099FF3399FF6699FF9999FFCC99FFFFCC0000CC00
310
33CC0066CC0099CC00CCCC00FFCC3300CC3333CC3366CC3399CC33CCCC33FFCC6600CC6633CC6666CC6699CC66CCCC66FFCC9900CC9933CC9966CC9999CC99CCCC99FFCCCC00CCCC33CCCC66CCCC99CCCCCCCCCCFFCCFF00CCFF33CCFF66CCFF99CCFFCCCCFFFFFF0000FF0033FF0066FF0099FF00CCFF00FFFF3300FF3333
310
FF3366FF3399FF33CCFF33FFFF6600FF6633FF6666FF6699FF66CCFF66FFFF9900FF9933FF9966FF9999FF99CCFF99FFFFCC00FFCC33FFCC66FFCC99FFCCCCFFCCFFFFFF00FFFF33FFFF66FFFF99FFFFCCFFFFFF0000000D0D0D1A1A1A2828283535354343435050505D5D5D6B6B6B787878868686939393A1A1A1AEAEAEBB
310
BBBBC9C9C9D6D6D6E4E4E4F1F1F1FFFFFF0000000000000000000000000000000000000000000000000000000000003AE5ACE9000001764944415478DAED9A416EC3300C04F9FF47F925FC06EFB55349942D4305DA4301EE0C026713E4C2312D3189CDFE9F18216C8D61E59904C492C404C877000210800004200001084000
310
02108000042000010840000210800004480990FC597C147B856845DFDE1430B08335800E10E9813C2CAF457A60EA86FB9B1A2D3076C0978400858B60BB15200001000085974077EFA36FC69114E660F7FEDDC7E728310D5F75BA7F0E873701EDF5E7505DC0D9F4ADE018554F16EA1BE8C53E2DF8B0505FC074B2353BE0FDE4
310
67D25803A5059CB55F0FEFF191AA8F0163CF73BFC796AA0BB0ACFDF017AC7C07F4B28F938C2345F90EF8AEF67A3AB18C2D9982801D0840808680E9299548AC01F14307049780C22F42EAFF8F0300802AEADBE07423CCEBDD31517F149E65ACC9EA8FC28F2A979B45040444DE2596712405015966C691E800D6007601E6003A
310
407812161984366DA02060BB10D0010A02FEF6097601E680D2FBA0010000000000000000000000000000000000FC962F8FD60CC82811E7E40000000049454E44AE4260820000FE866FCFEFA0C7F152FFF90000000049454E44AE426082A9B784BE597E7A0163BF0DDE76BE35001773C0FEAFC3D708387940E2825C00B85D93
310
877F0B010280A9111004411004419061DDDC611904F0C59B546324C0B1C8B8C34DAA31F25F094DF10A8799475078A3F96806D81F05B73F78641600579EC3E48AE5078012D099870FCD0368BC7DD27C0FC72A80EA8B4835120000009803B00A38A903D217930B9EB01C55826A61AF781924F402E8068D67C0C5FB014E87C023
310
670F03E0D23D414FABC077BE0000060270663A7455089D5910910198030000000000DD20BA41D3082E75830E34FBF3017842048220088220088220088220088220088220088220E87BFA01BE328DF8BFDC6B140000000049454E44AE4260826A003904CA6DA04FF9320D2B1752DB5F6E83950056E703E0E05DA07E63D8C260
310
0150F2E089AC1DF438DF5373821E407A2CD6A533929A405A6E4DCFC14B6684141618F48BB2FA801DF8AD27406B0AE8A553285BA928A9513EFABC2C7FBBF559D89BEDB93FC455B760B134EF8587B7637A082533AA35028FAD9279E573FAE7B2133EBE08100A8542A15028140A8542A15028140A8542FF557F00FE0AE9D16384
310
29020000000049454E44AE426082000049454E44AE426082
  0
ACDSRECORD
 90
        0
  2
AcDbDs::ID
280
    10
320
1F
  2
Thumbnail_Data
280
    15
 94
     1524
310
89504E470D0A1A0A0000000D4948445200000100000000B5080300000087DCD12600000300504C5445FFFFFF000000C8C8C80000000000000000000000000000000000000000000000000000330000660000990000CC0000FF0033000033330033660033990033CC0033FF0066000066330066660066990066CC0066FF0099
310
000099330099660099990099CC0099FF00CC0000CC3300CC6600CC9900CCCC00CCFF00FF0000FF3300FF6600FF9900FFCC00FFFF3300003300333300663300993300CC3300FF3333003333333333663333993333CC3333FF3366003366333366663366993366CC3366FF3399003399333399663399993399CC3399FF33CC00
310
33CC3333CC6633CC9933CCCC33CCFF33FF0033FF3333FF6633FF9933FFCC33FFFF6600006600336600666600996600CC6600FF6633006633336633666633996633CC6633FF6666006666336666666666996666CC6666FF6699006699336699666699996699CC6699FF66CC0066CC3366CC6666CC9966CCCC66CCFF66FF0066
310
FF3366FF6666FF9966FFCC66FFFF9900009900339900669900999900CC9900FF9933009933339933669933999933CC9933FF9966009966339966669966999966CC9966FF9999009999339999669999999999CC9999FF99CC0099CC3399CC6699CC9999CCCC99CCFF99FF0099FF3399FF6699FF9999FFCC99FFFFCC0000CC00
310
33CC0066CC0099CC00CCCC00FFCC3300CC3333CC3366CC3399CC33CCCC33FFCC6600CC6633CC6666CC6699CC66CCCC66FFCC9900CC9933CC9966CC9999CC99CCCC99FFCCCC00CCCC33CCCC66CCCC99CCCCCCCCCCFFCCFF00CCFF33CCFF66CCFF99CCFFCCCCFFFFFF0000FF0033FF0066FF0099FF00CCFF00FFFF3300FF3333
310
FF3366FF3399FF33CCFF33FFFF6600FF6633FF6666FF6699FF66CCFF66FFFF9900FF9933FF9966FF9999FF99CCFF99FFFFCC00FFCC33FFCC66FFCC99FFCCCCFFCCFFFFFF00FFFF33FFFF66FFFF99FFFFCCFFFFFF0000000D0D0D1A1A1A2828283535354343435050505D5D5D6B6B6B787878868686939393A1A1A1AEAEAEBB
310
BBBBC9C9C9D6D6D6E4E4E4F1F1F1FFFFFF000000000000000000000000000000000000000000000000000000000000B0E2D235000002AF4944415478DAED9DED6EC3200C45FDFE6F593F49B52EC9960F08D88E42E383B4FDD8921B746A886BB84234757BBD44257103C007C01C0E7F7FDEB4C7FE433E3F9277065800248D7F
310
000000000000C04F22941580000000000000000000801200E757CD01550A002A17CC70B41DEAF45BE355AC22E50FB801808AE1A9ABA88A56E917F10050B1755D575DB7AAC8914AA74875889F0250B1755DFE693A5456B7AAB92B11004C53AC5F4583557A01A89823E028165C71A48EAE7C2F000901E07A0B04743D58E50E00
310
E55C629F3995BB3E804AF71098D60EAAF9D43E57937D0E37888A39021ACB862AD5CF2E46A5F17DA0E7AFDF8E39A0B56C5A0DDE0E15B9488549100000300270A5C2E3A814004856000200000080A22811000000A407903E13040000EAF7A9E5697A898A49040000F001E8DB4739279EEA54912B544C00FA76922E57EB252A5D
310
4B84CBD59EE5F1C642FCF61BCB66617B1415860093200000402A0C00006C01501465AF300000000000000000690168D644A8B124A6D2B73349F5B02416A0D2DD157F496C579B6BCABAF76E9FFB3C43375966E4219619B34F25C43374ACF225969910B38B4AB04A2F002C337703C03233CA5EE1EC7E81B48E113C430C012641
310
006400C056590000000000A8E6535866180200783200F608010000000040E53EF60A2707806506CB4C6ECB4CEB13657DB58EA8C224080000900902600F808A1000CE72093C438F6C000000000000004E9BC332836506CB0C96192C332589EC9619F1F854225434E29C218ED9C133845FC00B00CB4CFA6376B21EB42421D357
310
B00A8E9178009215000B230000000000C0E228110000F60801000000000000CAF7B1571800A901E4364C6099C96E9A9AAE93AEB83B1EBD1CB3C35BE06B013C3E13A4220400009CE41258661ED9000000000000C708000000000000000059DB9C08E56D00D0CC03E0B7BD0143A4B67123711D7D0000000049454E44AE426082
  0
ENDSEC
  0
EOF
